<svg width="24" height="24" viewBox="0 0 24 24" fill="none" xmlns="http://www.w3.org/2000/svg">
<rect width="24" height="24" fill="white"/>
<path d="M10.9069 13.2045L8.22804 13.1259C8.09102 13.1219 8.00428 12.9786 8.06537 12.8571L12.8094 3.42763C12.8995 3.24851 13.1727 3.31728 13.1654 3.51725L12.9125 10.4142C12.9087 10.5195 12.994 10.6069 13.1004 10.6069H16.8118C16.9579 10.6069 17.0481 10.7646 16.9729 10.8886L10.8911 20.9093C10.7892 21.0772 10.5281 20.9953 10.5425 20.8001L11.0887 13.404C11.0966 13.2984 11.0138 13.2077 10.9069 13.2045Z" fill="#33CBD3"/>
<path d="M10.8348 13.2103H8.18822C8.04928 13.2103 7.95838 13.0664 8.01924 12.9429L12.8644 3.1049C12.9551 2.92092 13.2357 2.99562 13.2208 3.19975L12.6947 10.4075C12.6869 10.5152 12.773 10.6069 12.8822 10.6069H15.8953C16.0362 10.6069 16.127 10.7545 16.0623 10.8783L10.8863 20.785C10.7927 20.9641 10.5183 20.8884 10.5318 20.6873L11.0222 13.4086C11.0295 13.3013 10.9434 13.2103 10.8348 13.2103Z" fill="#0098A0"/>
</svg>
