<svg width="24" height="24" viewBox="0 0 24 24" fill="none" xmlns="http://www.w3.org/2000/svg">
<path d="M12.0895 2.68165C12.0526 2.60738 11.9466 2.60766 11.9101 2.68211L8.96602 8.6914C8.95149 8.72106 8.92325 8.74163 8.89057 8.74637L2.20023 9.71652C2.11826 9.7284 2.08544 9.82908 2.14467 9.88699L6.99173 14.6257C7.01534 14.6488 7.02603 14.682 7.02032 14.7145L5.86273 21.2979C5.8483 21.38 5.93472 21.4427 6.00827 21.4035L11.9523 18.2347C11.9817 18.219 12.0169 18.219 12.0463 18.2347L17.9919 21.4037C18.0654 21.4428 18.1518 21.3803 18.1375 21.2982L16.9883 14.7144C16.9827 14.6819 16.9934 14.6488 17.0169 14.6257L21.8558 9.88682C21.9149 9.82892 21.8821 9.72836 21.8002 9.71642L15.1475 8.74636C15.115 8.74163 15.0869 8.72126 15.0724 8.69186L12.0895 2.68165Z" fill="#F4F82B" stroke="#F4F82B" stroke-width="1.4" stroke-linejoin="round"/>
</svg>
