<svg width="600" height="245" viewBox="0 0 600 245" fill="none" xmlns="http://www.w3.org/2000/svg">
<path d="M564.101 73.2351H599.999V210.602H564.101V73.2351Z" fill="#123A4D"/>
<path d="M494.954 212.433C462.901 212.433 441.472 191.92 441.472 161.516C441.472 130.563 463.268 109.866 495.87 109.866C532.318 109.866 553.014 136.424 547.886 172.505H478.653C478.653 183.128 485.613 187.707 496.236 187.707C502.28 187.707 507.958 185.876 509.789 180.564H546.787C541.659 205.657 520.962 212.433 494.954 212.433ZM478.653 151.809H514.185C514.185 145.032 510.522 134.592 495.87 134.592C483.049 134.592 478.653 144.116 478.653 151.809Z" fill="#123A4D"/>
<path d="M383.363 172.323L404.792 111.698H438.493L400.579 210.602H361.933L323.837 111.698H362.117L383.363 172.323Z" fill="#123A4D"/>
<path d="M281.486 132.944C281.486 132.944 283.684 109.866 313.355 109.866H315.92V146.131L313.355 145.948C294.307 145.582 281.486 152.358 281.486 165.729V210.602H244.672V111.698H281.486V132.944Z" fill="#123A4D"/>
<path d="M174.609 212.433C142.557 212.433 121.128 191.92 121.128 161.516C121.128 130.563 142.924 109.866 175.525 109.866C211.973 109.866 232.67 136.424 227.542 172.505H158.309C158.309 183.128 165.269 187.707 175.892 187.707C181.936 187.707 187.614 185.876 189.445 180.564H226.443C221.314 205.657 200.618 212.433 174.609 212.433ZM158.309 151.809H193.841C193.841 145.032 190.178 134.592 175.525 134.592C162.704 134.592 158.309 144.116 158.309 151.809Z" fill="#123A4D"/>
<path fill-rule="evenodd" clip-rule="evenodd" d="M51.2939 71.0801C67.744 71.0801 80.4787 74.5816 89.3535 81.5029L73.2725 115.403C74.5545 107.711 63.9312 101.117 51.1104 101.117C39.7548 101.117 31.3301 103.681 31.3301 111.74C31.3301 114.669 32.9502 116.625 35.999 118.145C26.296 118.674 8.54654 115.597 2.75977 99.1308C9.16297 81.328 26.4407 71.0801 51.2939 71.0801Z" fill="url(#paint0_linear_1533_6546)"/>
<path fill-rule="evenodd" clip-rule="evenodd" d="M2.74805 99.0896C8.53553 115.556 26.2868 118.631 35.9893 118.101C42.6647 121.43 56.1872 122.671 74.5439 127.449C85.215 130.251 95.6941 134.26 102.513 142.423C103.043 160.464 86.9371 178.266 77.1016 178.266L74.6416 178.104C77.244 176.127 78.7568 173.712 78.7568 171.04C78.7567 161.516 67.2178 160.05 43.2246 155.471C22.7111 151.625 0 144.299 0 115.91C6.41763e-06 109.741 0.940906 104.115 2.74805 99.0896Z" fill="url(#paint1_linear_1533_6546)"/>
<path d="M102.516 142.423C107.284 148.13 110.263 155.867 110.263 166.644C110.263 203.092 80.2253 213.715 50.9204 213.715C40.3117 213.715 19.891 211.308 8.39502 194.851L28.2085 164.629C28.2085 177.084 36.8171 183.495 54.3999 183.495C62.8836 183.495 70.2905 181.413 74.645 178.104L77.105 178.266C86.9404 178.266 103.046 160.465 102.516 142.423Z" fill="url(#paint2_linear_1533_6546)"/>
<path d="M51.4681 61.9218C42.5446 61.9218 35.3107 54.9997 35.3107 46.4609C35.3107 37.9221 42.5446 31 51.4681 31C60.3916 31 67.6255 37.9221 67.6255 46.4609C67.6255 54.9997 60.3916 61.9218 51.4681 61.9218Z" fill="#123A4D"/>
<defs>
<linearGradient id="paint0_linear_1533_6546" x1="86.1493" y1="81.9704" x2="19.7727" y2="107.031" gradientUnits="userSpaceOnUse">
<stop stop-color="#123A4D"/>
<stop offset="1" stop-color="#2563EB"/>
</linearGradient>
<linearGradient id="paint1_linear_1533_6546" x1="19.8174" y1="115.508" x2="94.5435" y2="166.884" gradientUnits="userSpaceOnUse">
<stop stop-color="#123A4D"/>
<stop offset="1" stop-color="#00BEC8"/>
</linearGradient>
<linearGradient id="paint2_linear_1533_6546" x1="90.3711" y1="152.45" x2="19.3218" y2="178.069" gradientUnits="userSpaceOnUse">
<stop stop-color="#123A4D"/>
<stop offset="1" stop-color="#CEFF2F"/>
</linearGradient>
</defs>
</svg>
