<svg width="500" height="204" viewBox="0 0 500 204" fill="none" xmlns="http://www.w3.org/2000/svg">
<path d="M470.084 60.6958H500V175.168H470.084V60.6958Z" fill="#CEFF2F"/>
<path d="M412.462 176.694C385.752 176.694 367.894 159.6 367.894 134.263C367.894 108.469 386.057 91.2217 413.225 91.2217C443.599 91.2217 460.846 113.353 456.572 143.421H398.878C398.878 152.274 404.678 156.089 413.53 156.089C418.567 156.089 423.299 154.563 424.825 150.137H455.656C451.383 171.047 434.136 176.694 412.462 176.694ZM398.878 126.174H428.488C428.488 120.527 425.436 111.827 413.225 111.827C402.541 111.827 398.878 119.763 398.878 126.174Z" fill="#CEFF2F"/>
<path d="M319.469 143.269L337.327 92.748H365.411L333.816 175.168H301.611L269.864 92.748H301.764L319.469 143.269Z" fill="#CEFF2F"/>
<path d="M234.572 110.453C234.572 110.453 236.404 91.2217 261.13 91.2217H263.267V121.442L261.13 121.29C245.256 120.984 234.572 126.632 234.572 137.774V175.168H203.894V92.748H234.572V110.453Z" fill="#CEFF2F"/>
<path d="M145.508 176.694C118.798 176.694 100.94 159.6 100.94 134.263C100.94 108.469 119.103 91.2217 146.271 91.2217C176.645 91.2217 193.892 113.353 189.618 143.421H131.924C131.924 152.274 137.724 156.089 146.576 156.089C151.613 156.089 156.345 154.563 157.871 150.137H188.702C184.429 171.047 167.181 176.694 145.508 176.694ZM131.924 126.174H161.534C161.534 120.527 158.482 111.827 146.271 111.827C135.587 111.827 131.924 119.763 131.924 126.174Z" fill="#CEFF2F"/>
<path d="M42.7451 58.8999C56.4537 58.8999 67.0662 61.8176 74.4619 67.5854L61.0605 95.8364C62.1289 89.4261 53.2767 83.9313 42.5928 83.9312C33.1297 83.9312 26.1084 86.068 26.1084 92.7837C26.1085 95.2239 27.4588 96.8537 29.999 98.1206C21.9132 98.5613 7.12218 95.9975 2.2998 82.2759C7.63571 67.4399 22.0339 58.8999 42.7451 58.8999Z" fill="url(#paint0_linear_1533_6425)"/>
<path d="M2.29004 82.2412C7.11283 95.9624 21.9047 98.5258 29.9902 98.085C35.553 100.859 46.8225 101.892 62.1201 105.874C71.0124 108.209 79.7446 111.55 85.4268 118.352C85.8691 133.386 72.4474 148.222 64.251 148.222L62.2012 148.087C64.37 146.439 65.6309 144.426 65.6309 142.199C65.6305 134.263 56.0145 133.042 36.0205 129.227C18.9259 126.021 0 119.915 0 96.2578C3.07513e-05 91.1176 0.78412 86.4287 2.29004 82.2412Z" fill="url(#paint1_linear_1533_6425)"/>
<path d="M85.4307 118.353C89.4036 123.109 91.8857 129.556 91.8857 138.537C91.8856 168.91 66.8543 177.763 42.4336 177.763C33.593 177.763 16.576 175.756 6.99609 162.042L23.5078 136.858C23.5078 147.236 30.6815 152.579 45.334 152.579C52.4034 152.579 58.5754 150.844 62.2041 148.087L64.2549 148.222C72.4511 148.222 85.8724 133.387 85.4307 118.353Z" fill="url(#paint2_linear_1533_6425)"/>
<path d="M42.89 51.2682C35.4538 51.2682 29.4255 45.4998 29.4255 38.3841C29.4255 31.2684 35.4538 25.5 42.89 25.5C50.3262 25.5 56.3545 31.2684 56.3545 38.3841C56.3545 45.4998 50.3262 51.2682 42.89 51.2682Z" fill="#CEFF2F"/>
<defs>
<linearGradient id="paint0_linear_1533_6425" x1="86.171" y1="76.2867" x2="16.4776" y2="88.8589" gradientUnits="userSpaceOnUse">
<stop stop-color="#123A4D"/>
<stop offset="1" stop-color="#2563EB"/>
</linearGradient>
<linearGradient id="paint1_linear_1533_6425" x1="16.5144" y1="95.9234" x2="78.7859" y2="138.737" gradientUnits="userSpaceOnUse">
<stop stop-color="#123A4D"/>
<stop offset="1" stop-color="#00BEC8"/>
</linearGradient>
<linearGradient id="paint2_linear_1533_6425" x1="91.8857" y1="118.353" x2="18.869" y2="153.323" gradientUnits="userSpaceOnUse">
<stop stop-color="#123A4D"/>
<stop offset="1" stop-color="#CEFF2F"/>
</linearGradient>
</defs>
</svg>
