<svg width="597" height="1000" viewBox="0 0 597 1000" fill="none" xmlns="http://www.w3.org/2000/svg">
<path d="M277.384 216.883C366.341 216.883 435.208 235.829 483.199 273.282L396.242 456.724C403.171 415.1 345.724 379.424 276.397 379.424C214.991 379.424 169.43 393.295 169.427 436.901C169.427 452.748 178.189 463.335 194.674 471.562C142.203 474.425 46.2215 457.774 14.9302 368.669C49.557 272.334 142.989 216.883 277.384 216.883Z" fill="url(#paint0_linear_1533_6470)"/>
<path d="M14.8667 368.455C46.1633 457.545 142.142 474.184 194.61 471.323C230.705 489.34 303.838 496.046 403.111 521.901C460.813 537.065 517.467 558.769 554.339 602.931C557.21 700.56 470.127 796.886 416.94 796.886L403.632 796.01C417.704 785.312 425.887 772.244 425.887 757.786C425.884 706.253 363.489 698.323 233.748 673.548C122.819 652.734 0 613.086 0 459.465C0.00030322 426.088 5.09567 395.644 14.8667 368.455Z" fill="url(#paint1_linear_1533_6470)"/>
<path d="M554.364 602.94C580.147 633.822 596.264 675.685 596.266 734.003C596.266 931.233 433.827 988.721 275.357 988.721C217.989 988.72 107.564 975.687 45.3987 886.638L152.545 723.108C152.547 790.501 199.098 825.191 294.178 825.191C340.055 825.191 380.11 813.925 403.656 796.021L416.953 796.896C470.139 796.896 557.231 700.566 554.364 602.94Z" fill="url(#paint2_linear_1533_6470)"/>
<path d="M278.325 167.326C230.07 167.326 190.952 129.869 190.952 83.6631C190.952 37.4573 230.07 0 278.325 0C326.579 0 365.698 37.4573 365.698 83.6631C365.698 129.869 326.579 167.326 278.325 167.326Z" fill="black"/>
<defs>
<linearGradient id="paint0_linear_1533_6470" x1="527.447" y1="285.713" x2="92.6239" y2="374.127" gradientUnits="userSpaceOnUse">
<stop stop-opacity="0.1"/>
<stop offset="1"/>
</linearGradient>
<linearGradient id="paint1_linear_1533_6470" x1="-48.9138" y1="414.722" x2="509.9" y2="695.213" gradientUnits="userSpaceOnUse">
<stop stop-opacity="0.1"/>
<stop offset="1"/>
</linearGradient>
<linearGradient id="paint2_linear_1533_6470" x1="626.035" y1="602.94" x2="143.106" y2="809.104" gradientUnits="userSpaceOnUse">
<stop stop-opacity="0.1"/>
<stop offset="1"/>
</linearGradient>
</defs>
</svg>
