<svg width="250" height="102" viewBox="0 0 250 102" fill="none" xmlns="http://www.w3.org/2000/svg">
<path d="M235.042 30.0979H250V87.3342H235.042V30.0979Z" fill="black"/>
<path d="M206.231 88.0972C192.876 88.0972 183.947 79.55 183.947 66.8817C183.947 53.9844 193.028 45.3608 206.612 45.3608C221.799 45.3608 230.423 56.4265 228.286 71.4606H199.439C199.439 75.8868 202.339 77.7947 206.765 77.7947C209.283 77.7947 211.649 77.0316 212.412 74.8184H227.828C225.691 85.2736 217.067 88.0972 206.231 88.0972ZM199.439 62.837H214.244C214.244 60.0133 212.718 55.6634 206.612 55.6634C201.27 55.6634 199.439 59.6317 199.439 62.837Z" fill="black"/>
<path d="M159.735 71.3843L168.663 46.124H182.705L166.908 87.3341H150.806L134.932 46.124H150.882L159.735 71.3843Z" fill="black"/>
<path d="M117.287 54.9765C117.287 54.9765 118.202 45.3608 130.565 45.3608H131.634V60.4712L130.565 60.3949C122.629 60.2423 117.287 63.0659 117.287 68.6369V87.3341H101.947V46.124H117.287V54.9765Z" fill="black"/>
<path d="M72.7542 88.0972C59.3991 88.0972 50.4702 79.55 50.4702 66.8817C50.4702 53.9844 59.5517 45.3608 73.1358 45.3608C88.3225 45.3608 96.9461 56.4265 94.8092 71.4606H65.9622C65.9622 75.8868 68.8621 77.7947 73.2884 77.7947C75.8068 77.7947 78.1726 77.0316 78.9357 74.8184H94.3513C92.2145 85.2736 83.5909 88.0972 72.7542 88.0972ZM65.9622 62.837H80.7673C80.7673 60.0133 79.241 55.6634 73.1358 55.6634C67.7937 55.6634 65.9622 59.6317 65.9622 62.837Z" fill="black"/>
<path d="M21.373 29.2C28.2273 29.2 33.5336 30.6588 37.2314 33.5427L30.5312 47.6677C31.0651 44.4627 26.6387 41.7155 21.2969 41.7155C16.5655 41.7155 13.0549 42.7836 13.0547 46.1413C13.0547 47.3615 13.7298 48.1768 15 48.8102C10.957 49.0306 3.56145 47.7486 1.15039 40.8875C3.81845 33.4697 11.0176 29.2 21.373 29.2Z" fill="url(#paint0_linear_1533_6505)"/>
<path d="M1.14551 40.8711C3.55697 47.7311 10.9523 49.0123 14.9951 48.792C17.7763 50.1793 23.4113 50.6956 31.0605 52.6865C35.5065 53.8541 39.8718 55.5253 42.7129 58.9258C42.9341 66.4432 36.2242 73.8603 32.126 73.8603L31.1006 73.7929C32.1849 72.9691 32.8154 71.9629 32.8154 70.8496C32.8152 66.8816 28.0075 66.271 18.0107 64.3633C9.46346 62.7606 0 59.7077 0 47.8789C2.33637e-05 45.3089 0.392631 42.9647 1.14551 40.8711Z" fill="url(#paint1_linear_1533_6505)"/>
<path d="M42.7148 58.9265C44.7014 61.3044 45.9433 64.5278 45.9434 69.0183C45.9434 84.205 33.4272 88.6316 21.2168 88.6316C16.7965 88.6315 8.28797 87.628 3.49805 80.7712L11.7539 68.1794C11.754 73.3687 15.3409 76.0398 22.667 76.0398C26.2019 76.0398 29.2882 75.1723 31.1025 73.7937L32.127 73.8611C36.2251 73.8611 42.9357 66.4437 42.7148 58.9265Z" fill="url(#paint2_linear_1533_6505)"/>
<path d="M21.4455 25.3841C17.7274 25.3841 14.7132 22.4999 14.7132 18.9421C14.7132 15.3842 17.7274 12.5 21.4455 12.5C25.1636 12.5 28.1777 15.3842 28.1777 18.9421C28.1777 22.4999 25.1636 25.3841 21.4455 25.3841Z" fill="black"/>
<defs>
<linearGradient id="paint0_linear_1533_6505" x1="40.6408" y1="34.4998" x2="7.13864" y2="41.3165" gradientUnits="userSpaceOnUse">
<stop stop-opacity="0.1"/>
<stop offset="1"/>
</linearGradient>
<linearGradient id="paint1_linear_1533_6505" x1="-3.7689" y1="44.4337" x2="39.2771" y2="66.0548" gradientUnits="userSpaceOnUse">
<stop stop-opacity="0.1"/>
<stop offset="1"/>
</linearGradient>
<linearGradient id="paint2_linear_1533_6505" x1="48.2372" y1="58.9265" x2="11.0343" y2="74.8192" gradientUnits="userSpaceOnUse">
<stop stop-opacity="0.1"/>
<stop offset="1"/>
</linearGradient>
</defs>
</svg>
