<svg width="1000" height="408" viewBox="0 0 1000 408" fill="none" xmlns="http://www.w3.org/2000/svg">
<path d="M940.168 120.392H1000V349.337H940.168V120.392Z" fill="black"/>
<path d="M824.924 352.389C771.504 352.389 735.788 318.2 735.788 267.527C735.788 215.938 772.112 181.443 826.448 181.443C887.196 181.443 921.692 225.706 913.144 285.843H797.756C797.756 303.547 809.356 311.179 827.06 311.179C837.132 311.179 846.596 308.127 849.648 299.274H911.312C902.764 341.095 868.268 352.389 824.924 352.389ZM797.756 251.348H856.976C856.976 240.053 850.872 222.654 826.448 222.654C805.08 222.654 797.756 238.527 797.756 251.348Z" fill="black"/>
<path d="M638.94 285.537L674.652 184.496H730.82L667.632 349.336H603.224L539.728 184.496H603.528L638.94 285.537Z" fill="black"/>
<path d="M469.148 219.906C469.148 219.906 472.808 181.443 522.26 181.443H526.536V241.885L522.26 241.58C490.516 240.969 469.148 252.264 469.148 274.548V349.337H407.788V184.496H469.148V219.906Z" fill="black"/>
<path d="M291.017 352.389C237.596 352.389 201.881 318.2 201.881 267.527C201.881 215.938 238.207 181.443 292.543 181.443C353.29 181.443 387.784 225.706 379.237 285.843H263.849C263.849 303.547 275.448 311.179 293.154 311.179C303.227 311.179 312.69 308.127 315.743 299.274H377.405C368.858 341.095 334.364 352.389 291.017 352.389ZM263.849 251.348H323.069C323.069 240.053 316.964 222.654 292.543 222.654C271.175 222.654 263.849 238.527 263.849 251.348Z" fill="black"/>
<path d="M85.492 116.8C112.909 116.8 134.134 122.635 148.926 134.171L122.125 190.671C124.26 177.851 106.555 166.862 85.1876 166.862C66.262 166.862 52.2196 171.135 52.2188 184.565C52.2188 189.446 54.9192 192.707 60 195.241C43.828 196.123 14.2458 190.994 4.60156 163.55C15.2738 133.879 44.0704 116.8 85.492 116.8Z" fill="url(#paint0_linear_1871_4217)"/>
<path d="M4.58204 163.484C14.2279 190.924 43.8092 196.049 59.9804 195.167C71.1052 200.717 93.6452 202.782 124.242 210.745C142.026 215.416 159.487 222.101 170.852 235.703C171.736 265.772 144.897 295.441 128.504 295.441L124.402 295.171C128.74 291.876 131.262 287.851 131.262 283.398C131.261 267.526 112.03 265.083 72.0428 257.453C37.8538 251.042 0 238.83 0 191.515C9.34548e-05 181.235 1.57052 171.858 4.58204 163.484Z" fill="url(#paint1_linear_1871_4217)"/>
<path d="M170.859 235.706C178.806 245.217 183.773 258.111 183.774 276.073C183.774 336.82 133.709 354.526 84.8672 354.526C67.186 354.526 33.1519 350.512 13.9922 323.084L47.0156 272.717C47.016 293.474 61.3636 304.159 90.668 304.159C104.808 304.159 117.153 300.689 124.41 295.174L128.508 295.444C144.9 295.444 171.743 265.774 170.859 235.706Z" fill="url(#paint2_linear_1871_4217)"/>
<path d="M85.7819 101.536C70.9095 101.536 58.8529 89.9996 58.8529 75.7682C58.8529 61.5368 70.9095 50 85.7819 50C100.654 50 112.711 61.5368 112.711 75.7682C112.711 89.9996 100.654 101.536 85.7819 101.536Z" fill="black"/>
<defs>
<linearGradient id="paint0_linear_1871_4217" x1="162.563" y1="137.999" x2="28.5546" y2="165.266" gradientUnits="userSpaceOnUse">
<stop stop-opacity="0.1"/>
<stop offset="1"/>
</linearGradient>
<linearGradient id="paint1_linear_1871_4217" x1="-15.0756" y1="177.734" x2="157.108" y2="264.219" gradientUnits="userSpaceOnUse">
<stop stop-opacity="0.1"/>
<stop offset="1"/>
</linearGradient>
<linearGradient id="paint2_linear_1871_4217" x1="192.949" y1="235.706" x2="44.1372" y2="299.276" gradientUnits="userSpaceOnUse">
<stop stop-opacity="0.1"/>
<stop offset="1"/>
</linearGradient>
</defs>
</svg>
