<svg width="268" height="201" viewBox="0 0 268 201" fill="none" xmlns="http://www.w3.org/2000/svg">
<path d="M151.5 64C149.248 79.3333 142.893 87 132.433 87C121.974 87 114.663 79.5836 110.5 64.7516" stroke="#01133B" stroke-width="1.32" stroke-linecap="round" stroke-linejoin="round"/>
<path d="M155.687 41.6542C152.575 39.5447 149.638 39.1247 147.305 39.2771C144.915 39.3918 144.66 38.0621 144.262 35.4803C143.737 32.2341 138.749 29.8446 135.463 28.1131C129.873 25.1504 123.075 26.407 118.98 31.2301C113.68 37.4659 115.108 46.693 121.672 51.142C123.766 52.5614 126.131 53.3374 128.557 53.4125C131.742 53.5886 134.477 55.5246 135.82 58.4173C136.66 60.2253 138.123 62.2087 140.613 63.8964C143.104 65.5841 145.488 66.2086 147.478 66.3184C150.663 66.4945 153.569 68.2991 154.817 71.2096C155.825 73.3794 157.383 75.3445 159.478 76.7639C166.042 81.2129 175.142 79.1201 178.97 71.8874C181.933 66.2968 180.62 59.4603 175.758 55.4223C173.127 53.1578 169.706 52.0272 166.244 52.2779C163.854 52.3926 161.742 50.8783 160.963 48.6158C160.317 46.2786 158.8 43.7637 155.687 41.6542ZM183.912 70.4456C184.194 70.6436 184.513 70.7834 184.849 70.8569C185.186 70.9305 185.534 70.9363 185.873 70.8739C186.212 70.8116 186.536 70.6825 186.824 70.494C187.113 70.3056 187.361 70.0615 187.554 69.7762C187.748 69.4908 187.883 69.1698 187.951 68.8319C188.019 68.494 188.019 68.1459 187.951 67.8079C187.883 67.4699 187.749 67.1487 187.556 66.8632C187.363 66.5776 187.115 66.3333 186.827 66.1445C186.256 65.7711 185.562 65.6369 184.893 65.7709C184.224 65.9049 183.635 66.2963 183.253 66.8608C182.87 67.4253 182.725 68.1175 182.848 68.7881C182.971 69.4588 183.353 70.0541 183.912 70.4456Z" fill="black"/>
<path d="M68.9824 108.704L132.222 79.5117L195.394 108.704L132.222 124.634L68.9824 108.704Z" fill="black" stroke="black" stroke-width="0.87" stroke-miterlimit="10" stroke-linecap="round" stroke-linejoin="round"/>
<path d="M50.2494 43.1399H40.6777V52.3002H50.2494V43.1399ZM59.752 33.8417H50.181V43.0026H59.752V33.8417Z" stroke="#2563EB" stroke-width="0.87" stroke-miterlimit="10" stroke-linecap="round" stroke-linejoin="round"/>
<path d="M132 65.4999V65.9999L147.605 62.2156C151.297 62.1466 154.783 63.7191 157.518 66.249C164.082 72.2649 179.122 85.5282 179.122 85.5282L190.882 72.3332C193.411 69.4616 196.624 67.2057 200.658 65.2232L206.127 62.5566C207.427 61.9415 208.999 62.4883 209.682 63.7874C210.367 65.0865 209.887 66.659 208.588 67.3424L202.982 70.4191L219.254 80.5374C220.348 81.2208 220.622 82.6566 219.938 83.7507C219.254 84.7765 217.818 85.0498 216.793 84.3658L207.085 77.9391L216.724 84.3658C217.75 85.0498 218.023 86.4857 217.34 87.5108C216.656 88.5365 215.22 88.8099 214.195 88.1265L204.418 81.6999L214.332 88.1948C215.288 88.8099 215.494 90.0407 214.878 90.9974C214.263 91.8865 213.032 92.1599 212.144 91.5448L201.957 85.0499L212.007 91.4765C212.964 92.0915 213.237 93.3907 212.622 94.3474C212.007 95.2365 210.777 95.5099 209.819 94.9632L199.359 88.8782L185.754 104.534C181.583 109.388 174.2 109.662 169.619 105.218L155.604 93.7324V138.718H147.263L134.273 134.616H130.718L117.728 138.718H109.388V93.7324L95.3724 105.218C90.86 109.662 83.4083 109.388 79.2375 104.534L65.6325 88.8782L55.1724 94.9632C54.215 95.5099 52.9849 95.2365 52.3692 94.3474C51.7541 93.3907 52.0268 92.0915 52.9849 91.4765L63.0349 85.0499L52.8475 91.5448C51.9591 92.1599 50.7283 91.8865 50.1133 90.9974C49.4292 90.109 49.7032 88.8099 50.66 88.1948L60.5733 81.6999L50.7967 88.1265C49.7716 88.8099 48.3351 88.5365 47.6517 87.5108C46.9676 86.4857 47.2423 85.0498 48.2674 84.3658L57.9074 77.9391L48.1991 84.3658C47.1733 85.0498 45.7375 84.7765 45.0541 83.7507C44.3707 82.6566 44.6441 81.2208 45.7375 80.5374L62.0091 70.4191L56.4026 67.3424C55.1724 66.659 54.6941 65.0865 55.3091 63.7874C55.9242 62.4199 57.565 61.9415 58.8641 62.5566L64.3333 65.2232C68.3674 67.1374 71.5807 69.4616 74.11 72.3332L85.8692 85.5282C85.8692 85.5282 100.91 72.2649 107.473 66.2483C110.208 63.7191 113.695 62.1466 117.387 62.2149L132.017 65.9999" stroke="black" stroke-width="0.87" stroke-miterlimit="10"/>
<path d="M132 65.9999L147.399 62.2149C151.091 62.1466 154.578 63.7191 157.313 66.2483C161.483 70.0083 169.004 76.7083 173.994 81.1525L160.253 97.4924L155.672 93.7324V138.718H147.331L134.341 134.616H130.308L117.318 138.718H108.977V93.7324L104.396 97.4924L90.5861 81.1525C95.5769 76.7767 103.098 70.0767 107.268 66.2483C110.003 63.7191 113.489 62.1466 117.181 62.2149" stroke="black" stroke-width="0.87" stroke-miterlimit="10"/>
<path d="M199.36 88.8775L197.309 87.7157L192.455 96.6716L199.36 88.8775Z" fill="black" stroke="black" stroke-width="0.87" stroke-miterlimit="10" stroke-linecap="round" stroke-linejoin="round"/>
<path d="M65.2225 88.8775L67.2734 87.7151L72.0592 96.6716L65.2225 88.8775Z" fill="black" stroke="black" stroke-width="0.87" stroke-miterlimit="10" stroke-linecap="round" stroke-linejoin="round"/>
<path d="M69.3242 114.379L69.3926 144.734L106.448 155.399L132.222 124.634L69.3242 114.379ZM195.258 114.379V144.734L158.203 155.399L132.428 124.634L195.258 114.379Z" fill="black" stroke="black" stroke-width="0.87" stroke-miterlimit="10" stroke-linecap="round" stroke-linejoin="round"/>
<path fill-rule="evenodd" clip-rule="evenodd" d="M141 63.9998C131.662 68.9999 134 67.7481 141 63.9998L155 118.5L132 125L115.5 121L103.938 101.04C100.677 105.747 109.979 103.478 103.938 101.04C97.8798 98.5955 101.104 105.935 103.938 101.04C101.701 102.404 105.115 99.0082 103.938 101.04C106.175 99.6766 98.9957 91.8249 101.777 91.444L114 65.4998L120 63.4998L141 63.9998Z" fill="#EDEEF2"/>
<path fill-rule="evenodd" clip-rule="evenodd" d="M141.828 62L138.5 163.246L159.581 178.98L155.5 110L162.128 121.655C170.395 128.272 182.391 127.406 189.618 119.667L198.074 97.9123L178.074 70.9121L170.693 81.3198L162.445 71.1116C159.356 67.2896 155.023 64.6639 150.195 63.6892L141.828 62Z" fill="#EDEEF2" stroke="#01133B" stroke-width="1.32" stroke-linejoin="round"/>
<path fill-rule="evenodd" clip-rule="evenodd" d="M121.173 60.5L124.501 161.746L103.42 177.48L106.111 115.962L100.873 120.155C92.6065 126.772 80.6105 125.906 73.3835 118.167L64.9277 96.4123L84.9277 69.4121L92.3085 79.8198L100.556 69.6116C103.645 65.7896 107.979 63.1639 112.806 62.1892L121.173 60.5Z" fill="#EDEEF2" stroke="#01133B" stroke-width="1.32" stroke-linejoin="round"/>
<path fill-rule="evenodd" clip-rule="evenodd" d="M137.697 67.2915L137.174 54.5348L123.034 55.1097L123.537 67.5327" fill="white"/>
<mask id="mask0_891_7173" style="mask-type:alpha" maskUnits="userSpaceOnUse" x="123" y="54" width="15" height="16">
<path d="M137.173 54.5347L123.034 55.1088L123.365 63.1854C123.441 65.0604 124.259 66.8283 125.639 68.1002C127.019 69.3721 128.847 70.0439 130.722 69.9676C132.597 69.8914 134.365 69.0734 135.637 67.6937C136.909 66.3139 137.581 64.4854 137.505 62.6104L137.173 54.5337L137.173 54.5347Z" fill="white"/>
</mask>
<g mask="url(#mask0_891_7173)">
<path d="M124.395 64.2997C114.092 64.7189 105.421 57.3218 105.03 47.7785C104.64 38.2352 112.676 30.1575 122.979 29.7383C133.283 29.3192 141.952 36.7152 142.343 46.2595C142.735 55.8029 134.699 63.8796 124.395 64.2997Z" fill="#01133B"/>
</g>
<path d="M137.697 67.2915L137.174 54.5348L123.034 55.1097L123.537 67.5327" stroke="#01133B" stroke-width="1.32" stroke-linecap="round" stroke-linejoin="round"/>
<path d="M111.63 35.6244C110.572 27.0114 116.693 19.1744 125.302 18.1184C133.912 17.0624 141.75 23.1884 142.808 31.8004L143.682 38.9134C144.741 47.5254 138.62 55.3634 130.01 56.4194C121.401 57.4754 113.563 51.3494 112.504 42.7374L111.63 35.6244Z" fill="#01133B"/>
<path fill-rule="evenodd" clip-rule="evenodd" d="M113.052 37.4025L114.227 46.9565C115.119 54.2125 121.722 59.3735 128.976 58.4835C136.229 57.5935 141.386 50.9905 140.494 43.7355L139.32 34.1805C138.428 26.9245 131.825 21.7635 124.571 22.6535C117.318 23.5435 112.161 30.1475 113.052 37.4025Z" fill="white" stroke="#01133B" stroke-width="1.32" stroke-linecap="round" stroke-linejoin="round"/>
<mask id="mask1_891_7173" style="mask-type:alpha" maskUnits="userSpaceOnUse" x="112" y="22" width="29" height="36">
<path d="M113.055 37.4002L114.084 45.7612C114.976 53.0182 121.579 58.1791 128.832 57.2911C136.085 56.4011 141.241 49.7981 140.349 42.5411L139.32 34.1811C138.428 26.9241 131.825 21.7631 124.572 22.6511C117.319 23.5411 112.163 30.1432 113.055 37.4002Z" fill="white"/>
</mask>
<g mask="url(#mask1_891_7173)">
<path fill-rule="evenodd" clip-rule="evenodd" d="M115.538 16.8592L115.431 16.8542C112.387 16.7462 101.324 20.9572 97.3635 29.5732C93.3945 38.2092 96.0275 48.1772 100.082 47.6502C102.474 47.3377 104.795 46.6169 106.942 45.5192C112.729 42.5692 116.575 37.3192 117.933 31.4492C122.355 35.7032 129.652 38.1422 136.336 38.4692C139.991 38.6472 142.202 38.8002 144.537 38.5172C149.257 37.9442 141.402 21.2912 134.116 13.1342C129.032 7.44318 119.241 12.1072 115.538 16.8592Z" fill="#01133B"/>
</g>
<mask id="mask2_891_7173" style="mask-type:alpha" maskUnits="userSpaceOnUse" x="125" y="49" width="8" height="5">
<path d="M132.245 49.0225L125.302 51.3345C126.453 53.5095 128.008 54.2615 129.965 53.5925C131.923 52.9245 132.683 51.4005 132.245 49.0225Z" fill="white"/>
</mask>
<g mask="url(#mask2_891_7173)">
<path d="M132.245 49.0225L125.301 51.3345C126.453 53.5095 128.008 54.2615 129.965 53.5925C131.923 52.9245 132.682 51.4005 132.245 49.0225Z" fill="white" stroke="#01133B" stroke-linecap="round" stroke-linejoin="round"/>
<path d="M130.183 55.7644C128.495 55.9714 127.007 55.1604 126.858 53.9544C126.71 52.7474 127.958 51.6024 129.646 51.3944C131.334 51.1884 132.823 51.9984 132.971 53.2044C133.12 54.4114 131.871 55.5574 130.183 55.7644Z" fill="#01133B"/>
</g>
<path d="M124.872 43.2266L124.745 46.6606L126.632 46.7506" stroke="#01133B" stroke-width="1.32" stroke-linecap="round" stroke-linejoin="round"/>
<path d="M132.458 42.4304C130.919 42.6184 129.57 41.9404 129.444 40.9134C129.317 39.8874 130.463 38.9034 132.001 38.7134C133.54 38.5254 134.89 39.2034 135.016 40.2304C135.142 41.2564 133.997 42.2414 132.458 42.4304Z" stroke="#01133B" stroke-width="0.802" stroke-linecap="round" stroke-linejoin="round"/>
<path d="M132.46 42.4302C131.537 42.5432 130.686 41.8032 130.56 40.7762C130.434 39.7502 131.08 38.8262 132.003 38.7142C132.927 38.6002 133.777 39.3402 133.903 40.3672C134.03 41.3932 133.383 42.3172 132.46 42.4302Z" fill="#01133B"/>
<path d="M118.129 44.1902C116.59 44.3782 115.24 43.7002 115.114 42.6732C114.988 41.6472 116.133 40.6622 117.672 40.4732C119.21 40.2852 120.56 40.9632 120.686 41.9902C120.812 43.0162 119.667 44.0012 118.129 44.1902Z" stroke="#01133B" stroke-width="0.802" stroke-linecap="round" stroke-linejoin="round"/>
<path d="M118.13 44.1893C117.207 44.3023 116.356 43.5623 116.23 42.5363C116.104 41.5103 116.75 40.5863 117.673 40.4733C118.596 40.3603 119.447 41.1003 119.573 42.1263C119.699 43.1533 119.053 44.0763 118.13 44.1893Z" fill="#01133B"/>
<path d="M139.591 39.8721L141.118 39.5821C141.596 39.4914 142.089 39.5116 142.558 39.6413C143.027 39.7709 143.46 40.0066 143.824 40.33C144.188 40.6535 144.472 41.0561 144.656 41.5069C144.84 41.9577 144.917 42.4446 144.883 42.9301C144.798 44.1425 144.35 45.301 143.595 46.2539C142.841 47.2068 141.817 47.9096 140.656 48.2701L139.894 48.5061M141.485 42.4061L141.579 45.0941M141.544 44.0961L142.764 43.0381" stroke="#01133B" stroke-width="1.32" stroke-linecap="round" stroke-linejoin="round"/>
<path d="M141.133 46.6611L138.71 57.5991L146.133 56.6891L141.133 46.6611ZM116.053 49.7421L113.63 60.6791L121.053 59.7691L116.053 49.7411V49.7421Z" stroke="#D3E0FB" stroke-width="0.88" stroke-linejoin="round"/>
<path d="M127.414 77.7002C133.622 77.3032 137.758 71.3872 139.823 59.9502" stroke="#01133B" stroke-width="1.32" stroke-linecap="round" stroke-linejoin="round"/>
<path d="M127.5 77.7C121.497 77.3645 118.497 72.6651 116.5 63" stroke="#01133B" stroke-width="1.32" stroke-linecap="round" stroke-linejoin="round"/>
<path d="M68.9818 108.705V169.21L132.222 187.669V124.634L68.9818 108.705ZM195.461 108.705V169.21L132.222 187.669V124.634L195.461 108.705Z" fill="#B6BBE2"/>
<path d="M132.222 124.634L195.461 108.705V169.21L132.222 187.669L68.9818 169.21V108.705L132.222 124.634ZM132.222 187.669V124.634" stroke="black" stroke-width="0.87" stroke-miterlimit="10"/>
<path d="M195.668 108.705L225.818 131.607L159.023 149.998L132.36 124.634L195.668 108.705ZM68.9825 108.705L40.2 130.651L105.559 149.998L132.222 124.634L68.9825 108.705Z" fill="#436FFF" stroke="black" stroke-width="0.87" stroke-miterlimit="10" stroke-linecap="round" stroke-linejoin="round"/>
<path d="M188.997 44.2137C194.463 37.6533 200.417 34.7113 206.857 35.3868C216.517 36.401 206.29 45.3248 201.556 41.4442C196.822 37.5635 201.201 29.7599 208.876 26.8814C216.551 24.0019 221.5 22.2607 221.5 18M146.601 37.1562C147.256 28.7063 152.908 22.3212 163.56 18M62.5 38.852C62.7162 46.5861 68.4241 49.7408 79.6249 48.3152C90.8244 46.8896 97.8352 49.7842 100.656 57" stroke="#F2F5FF" stroke-width="4.4" stroke-linejoin="round"/>
</svg>
