<svg width="380" height="285" viewBox="0 0 380 285" fill="none" xmlns="http://www.w3.org/2000/svg">
<rect width="380" height="285" fill="white"/>
<path d="M309.306 22.552C308.607 22.8701 307.559 23.5063 306.987 24.0152C305.493 25.2557 303.428 28.4683 303.333 29.5816C303.301 30.2495 303.142 30.504 302.824 30.3768C302.602 30.2814 302.189 30.3768 301.967 30.5676C301.712 30.7585 299.838 31.1084 297.773 31.3628C293.452 31.8399 291.005 32.6033 288.654 34.2256C284.238 37.2473 281.918 41.4142 281.6 46.917C281.473 48.73 281.219 50.1932 280.838 50.9248C280.234 52.1653 277.057 55.2507 274.42 57.191C271.687 59.2267 269.177 61.6759 267.049 64.3796C265.936 65.8109 264.443 67.5286 263.744 68.2283C263.013 68.8963 262.442 69.5961 262.442 69.7233C262.442 69.8506 263.077 69.9778 263.871 69.9778C265.079 69.9778 265.301 70.0732 265.301 70.614C265.301 71.1547 265.079 71.2501 263.649 71.2819C260.853 71.3455 260.345 71.441 259.391 72.1407C258.025 73.1268 252.973 78.3751 253.609 78.1525C255.229 77.5799 258.597 77.1982 261.838 77.1982C265.905 77.1982 266.89 77.3891 266.89 78.1843C266.89 78.6614 266.35 78.725 261.743 78.725C257.294 78.7568 256.182 78.8522 253.863 79.4884L251.162 80.2518L229.239 102.104C217.197 114.127 204.107 127.137 200.167 131.049C192.637 138.524 191.906 139.065 188.157 139.955C187.236 140.178 184.789 141.037 182.756 141.928C179.229 143.423 175.035 144.472 174.527 143.995C174.4 143.868 174.241 142.723 174.146 141.45L173.955 139.16L167.95 139.256C164.646 139.319 161.691 139.478 161.373 139.669C161.055 139.828 160.769 140.337 160.706 140.814C160.61 141.673 160.547 141.705 158.227 141.896C156.925 142.023 154.351 142.118 152.508 142.15L149.141 142.182L147.584 140.592C146.758 139.733 145.931 139.097 145.804 139.16C145.677 139.256 145.391 139.065 145.169 138.747C144.756 138.238 144.788 138.238 145.36 138.683C145.995 139.128 145.995 139.128 145.391 138.461C145.074 138.047 144.661 137.824 144.502 137.92C144.375 138.015 144.279 137.92 144.311 137.665C144.375 137.443 144.216 137.284 143.993 137.347C143.739 137.379 143.644 137.315 143.707 137.156C143.803 137.029 140.212 133.244 135.732 128.759L127.567 120.616L122.038 117.722C119.02 116.131 116.447 114.827 116.383 114.827C116.319 114.827 115.748 115.909 115.112 117.213C114.191 119.185 113.873 119.598 113.237 119.598C112.824 119.598 112.475 119.503 112.475 119.344C112.475 119.217 113.047 118.072 113.746 116.799C114.445 115.495 114.953 114.35 114.858 114.191C114.763 114.064 113.778 113.555 112.634 113.046C110.95 112.314 110.569 111.996 110.569 111.424C110.569 110.469 110.823 110.501 113.492 111.837C114.763 112.473 115.843 112.855 115.875 112.728C115.938 112.569 116.256 111.996 116.574 111.487L117.177 110.533L114.763 108.084L112.38 105.635L114.064 103.79C116.129 101.563 117.146 99.4002 117.717 96.124C118.258 93.134 119.814 87.7903 120.164 87.7903C120.291 87.7903 121.149 87.504 122.102 87.1541C128.139 84.8958 130.013 77.8026 125.565 74.1128C124.04 72.8723 120.99 71.2501 118.829 70.5822L117.082 70.0414L117.177 68.7691C117.336 66.956 116.574 65.7155 114.794 64.8567C113.492 64.2205 112.793 64.0933 110.251 64.0933C106.819 64.1251 104.405 64.6658 100.401 66.3835C98.0184 67.4013 97.4148 67.5286 95.4131 67.465C92.6806 67.3695 91.6957 67.8148 90.0753 69.7869C88.6455 71.5682 87.5017 74.7808 87.184 77.8662L86.9616 80.22L82.1639 75.417L77.3662 70.614L67.9933 79.9973L58.6522 89.3489L59.6054 89.6988C60.1137 89.8896 63.1004 91.0029 66.2458 92.148C72.5368 94.4382 81.8144 98.0643 87.2157 100.323C89.1221 101.15 90.9014 101.722 91.1555 101.627C91.4415 101.531 91.5368 101.531 91.4415 101.659C91.3144 101.754 91.6639 102.231 92.1723 102.676C94.1739 104.33 92.6171 104.108 87.5017 101.977C79.9398 98.8595 71.1388 95.456 63.9264 92.8478L57.4766 90.5576L53.0602 94.9471C49.184 98.7959 48.6121 99.5275 48.4532 100.641C48.0719 102.836 45.8479 108.179 44.2274 110.692C42.194 113.841 39.2709 116.958 35.9348 119.471C33.0435 121.634 26.5619 125.038 24.0836 125.705C22.781 126.024 21.9866 126.692 17.7609 130.922L12.9315 135.757L16.5535 139.383C18.5552 141.355 20.4298 143.295 20.684 143.677C20.9381 144.059 22.908 146.158 25.0368 148.353L28.8813 152.329L40.383 136.997C52.6472 120.616 53.4733 119.694 57.0953 118.326C60.2408 117.149 61.7341 117.022 67.1672 117.372C69.9632 117.563 72.3144 117.785 72.4097 117.849C72.505 117.976 74.5703 134.389 74.6656 135.82C74.6656 135.916 72.9499 136.997 70.8529 138.174C68.7877 139.383 66.5 140.942 65.7693 141.609C64.2442 143.104 63.005 145.426 62.5602 147.685C62.2107 149.498 62.1472 148.671 64.9749 174.913C66.6271 190.371 66.6589 190.626 67.485 191.421C68.2475 192.184 68.3111 192.216 68.3111 191.644C68.3111 191.294 67.7392 185.568 67.0402 178.92C66.3412 172.272 65.388 163.239 64.9432 158.881C63.9582 149.53 64.0218 147.43 65.3244 145.045C66.4365 142.977 67.8345 141.769 71.2659 139.892C75.9047 137.347 76.6673 136.806 76.4766 136.075C76.1907 135.057 74.2525 118.008 74.3796 117.913C74.5703 117.785 82.8947 118.199 83.0535 118.358C83.1171 118.421 82.2592 123.765 81.1472 130.254C80.0351 136.711 78.2559 147.017 77.2074 153.156C74.4749 169.06 72.2191 182.069 71.3295 187.031C70.0268 194.252 70.0268 193.934 70.8846 194.856C71.9014 195.969 74.8562 198.419 74.5385 197.942C74.4114 197.719 74.4749 197.528 74.6338 197.528C74.8244 197.528 74.9833 197.814 74.9833 198.132C74.9833 198.737 78.4147 202.299 79.3044 202.617C79.5903 202.713 79.781 202.935 79.781 203.094C79.7492 203.285 81.0519 204.748 82.6723 206.371C84.7375 208.438 85.6589 209.202 85.8495 208.915C86.0084 208.629 86.1037 208.756 86.1037 209.233C86.1037 210.219 93.0619 217.185 93.4432 216.581C93.602 216.295 93.7609 216.454 93.9198 217.09C94.1739 218.076 96.4298 220.684 96.7793 220.366C97.0335 220.112 96.3345 218.839 95.9532 218.839C95.7626 218.839 95.6355 218.617 95.6355 218.33C95.6355 217.885 95.699 217.853 96.1756 218.235C96.6522 218.617 96.684 218.617 96.5251 218.044C96.4298 217.694 96.2392 217.122 96.1121 216.772C95.985 216.422 96.1756 216.549 96.5251 217.09C96.9382 217.758 97.0335 218.171 96.8111 218.426C96.6204 218.712 96.684 219.094 97.0652 219.666C97.5101 220.366 97.5418 220.557 97.1923 220.812C96.8428 221.066 96.8746 221.098 97.3194 220.939C97.6689 220.843 97.8596 220.939 97.8596 221.225C97.8596 221.829 99.1622 223.134 99.7659 223.134C100.02 223.165 100.211 223.356 100.147 223.579C100.052 224.024 100.656 224.883 101.037 224.883C101.196 224.883 101.227 224.565 101.164 224.183C101.1 223.77 101.323 224.024 101.672 224.724C102.022 225.424 102.435 225.964 102.625 225.901C102.848 225.869 102.911 225.964 102.816 226.123C102.594 226.473 103.865 227.809 104.214 227.587C104.532 227.396 105.231 228.223 105.104 228.636C105.008 228.954 109.393 233.471 109.806 233.471C109.901 233.471 109.901 233.089 109.774 232.58C109.647 231.976 109.679 231.817 109.901 232.04C110.092 232.231 110.283 232.803 110.314 233.28C110.378 233.948 111.299 235.125 113.936 237.829C116.192 240.119 117.559 241.296 117.654 241.041C117.749 240.787 117.845 240.882 117.845 241.264C117.876 241.868 128.52 252.874 129.06 252.874C129.187 252.874 130.839 251.983 132.714 250.87C134.62 249.757 137.766 247.944 139.736 246.862L143.326 244.858L142.786 244C140.784 240.914 132.174 229.94 131.856 230.131C131.729 230.195 131.634 230.099 131.602 229.877C131.57 229.654 131.443 229.018 131.348 228.445C131.221 227.841 131.284 227.428 131.475 227.428C131.888 227.428 138.115 235.189 141.706 240.151C143.167 242.155 144.406 243.872 144.47 243.936C144.533 244.031 147.838 242.473 151.809 240.469C169.761 231.499 180.977 228.064 192.256 228.064C203.249 228.064 212.559 231.531 219.644 238.211L221.455 239.928L235.625 225.774L249.764 211.619L242.361 204.303C232.829 194.856 224.727 187.477 214.751 179.016L212.59 177.203L209.477 178.093C194.289 182.483 174.527 190.212 158.863 197.942C150.729 201.949 145.137 204.971 137.702 209.329C131.824 212.796 131.856 212.764 131.856 211.81C131.856 211.333 132.174 210.856 132.746 210.538C152.445 198.8 173.002 188.972 191.652 182.419C196.291 180.765 197.435 180.256 198.102 179.429C198.801 178.634 199.055 178.507 199.532 178.761C200.421 179.238 202.074 179.143 203.503 178.507C204.202 178.189 206.172 177.521 207.888 176.98L211.033 176.058L209.985 175.199C209.127 174.467 209.032 174.245 209.381 173.831C209.921 173.163 210.112 173.195 211.574 174.435L212.876 175.517L214.846 174.944C224.727 172.113 239.851 168.678 250.813 166.833C257.421 165.688 267.62 164.13 268.383 164.13C268.605 164.13 268.796 164.448 268.796 164.861C268.796 165.561 268.574 165.593 260.63 166.738C256.119 167.406 250.209 168.36 247.508 168.901C244.808 169.442 240.741 170.237 238.453 170.682C234.005 171.573 220.629 174.817 216.625 175.994L214.211 176.694L216.467 178.602C226.221 186.841 243.505 202.84 248.462 208.311L250.654 210.697L259.105 202.299C263.744 197.655 267.716 193.838 267.938 193.775C268.923 193.552 269.336 191.962 269.559 187.509C269.654 185.059 269.972 178.252 270.226 172.4C270.925 157.195 271.91 136.266 272.164 132.099C272.355 128.918 272.323 128.505 271.846 128.314C271.528 128.187 271.147 128.25 270.988 128.409C270.829 128.568 270.544 131.145 270.385 134.071L270.067 139.447L268.891 140.687C267.017 142.596 262.759 146.094 261.012 147.144C260.154 147.685 258.47 148.575 257.294 149.116C254.975 150.198 243.156 154.905 242.806 154.873C242.679 154.873 241.948 154.046 241.122 153.06C240.328 152.074 235.308 145.872 229.97 139.319C224.6 132.767 220.184 127.232 220.152 127.073C220.089 126.882 222.059 125.992 224.505 125.069C226.92 124.147 232.416 122.016 236.706 120.33C244.109 117.404 244.585 117.181 246.079 115.622C246.968 114.732 251.925 108.688 257.135 102.199C262.314 95.7105 267.589 89.4443 268.86 88.2674C271.084 86.2317 274.96 83.9733 276.294 83.9733C276.771 83.9733 277.438 85.3093 279.662 90.5894C281.187 94.2155 282.522 97.3963 282.617 97.6826C282.776 98.0961 281.918 98.9231 279.281 100.991C277.311 102.517 275.151 104.362 274.483 105.094C272.768 106.875 271.91 109.293 271.942 112.282C271.942 114.541 272.386 116.004 279.916 138.301L287.86 161.967L288.082 167.501C288.177 170.555 288.4 173.036 288.527 173.036C288.876 173.036 290.115 171.414 289.957 171.159C289.893 171.064 289.734 166.452 289.607 160.949L289.416 150.929L290.878 150.007C293.928 148.13 296.724 142.596 296.756 138.429C296.756 137.284 296.978 137.156 297.582 137.952C297.995 138.492 298.027 138.492 298.217 137.856C298.376 137.284 298.726 137.125 300.156 136.934C301.109 136.806 301.967 136.806 302.062 136.87C302.125 136.966 302.539 140.687 302.983 145.172C303.587 151.693 303.873 153.569 304.381 154.587C305.462 156.718 306.669 156.146 305.843 153.856C305.557 153.124 305.049 149.466 304.699 145.681C304.35 141.928 304 138.333 303.905 137.697C303.746 136.584 303.778 136.52 304.921 136.361C305.62 136.234 306.192 136.298 306.319 136.488C306.415 136.679 306.605 138.142 306.732 139.733C306.955 142.786 307.749 149.784 308.067 151.852L308.258 153.06L309.02 152.329C309.719 151.597 309.751 151.47 309.465 149.498C308.766 144.981 308.003 136.298 308.258 136.107C308.416 136.011 310.227 135.725 312.229 135.534C315.534 135.184 315.947 135.184 316.201 135.63C316.582 136.329 317.09 136.266 317.09 135.502C317.09 135.152 317.281 134.866 317.535 134.866C318.266 134.866 318.679 139.478 317.98 139.701C317.662 139.828 317.726 140.146 318.202 141.005C318.933 142.373 319.028 142.405 319.791 141.546C320.331 140.942 320.331 140.687 319.855 135.757C318.488 121.952 315.756 93.802 315.089 86.8997L314.358 79.2021H317.186C319.696 79.2021 319.982 79.2657 319.823 79.7429C319.505 80.8243 317.09 94.5018 317.09 95.2334C317.09 95.7741 318.139 96.7283 321.634 99.3366C326.273 102.804 327.194 103.79 328.052 106.207C328.687 108.052 328.656 109.483 327.893 112.823C327.512 114.35 326.749 117.849 326.146 120.553C325.542 123.256 324.43 128.377 323.635 131.908C322.841 135.439 322.174 138.524 322.174 138.747C322.174 138.969 322.619 138.715 323.159 138.174C324.239 137.093 323.985 137.983 328.211 119.153C330.403 109.42 330.53 107.511 329.259 104.649C328.306 102.454 327.162 101.309 322.746 98.0643C319.346 95.5515 318.711 94.9471 318.838 94.3746C319.092 93.1022 321.539 79.5838 321.539 79.3612C321.539 79.0113 329.164 79.393 330.498 79.8065C332.722 80.5063 335.201 82.5738 344.256 91.2892C349.276 96.0922 354.201 100.8 355.186 101.69L357.029 103.344L367.736 92.6569C373.614 86.7724 378.411 81.8422 378.411 81.6832C378.411 81.5559 370.309 73.3813 360.396 63.489L342.413 45.5492L334.819 49.3344C328.592 52.4516 327.099 53.0559 326.59 52.8015C326.273 52.6106 325.987 52.3561 326.018 52.2289C326.018 52.1017 329.45 50.3204 333.676 48.2529C337.87 46.1854 341.269 44.4359 341.206 44.3723C341.142 44.3087 336.376 39.5057 330.594 33.7166L320.141 23.22L318.679 23.4108C317.503 23.5699 316.995 23.4426 315.819 22.7747C314.04 21.7568 311.244 21.6614 309.306 22.552ZM292.149 47.6485C294.214 48.8891 297.995 50.384 300.378 50.893L302.253 51.2747L301.013 51.8472C299.87 52.3561 299.743 52.5152 299.711 53.6921C299.647 55.3143 300.41 55.9823 302.411 55.9823C305.303 55.9823 306.891 54.5191 306.002 52.6106C305.652 51.8472 305.684 51.8472 307.559 51.8472C309.338 51.8472 309.465 51.9108 309.465 52.547C309.465 53.7557 309.91 54.201 310.672 53.7875C312.547 52.7696 314.549 53.9465 314.549 56.0459C314.549 57.4772 314.167 58.3042 312.992 59.5766L312.166 60.499L314.485 64.9839C315.756 67.465 316.773 69.7551 316.773 70.0414C316.773 70.3595 316.423 70.6139 315.915 70.7412C314.358 71.0275 309.497 71.3137 309.211 71.1229C309.052 71.0275 309.338 68.7691 309.814 66.0972C310.863 60.5308 310.831 60.658 310.386 60.8171C310.196 60.8807 309.751 61.7713 309.433 62.7892C308.258 66.2244 306.033 68.7373 302.793 70.2641C301.268 70.9956 300.632 71.0911 297.836 71.0911C294.691 71.0911 294.532 71.0593 292.054 69.7869L289.512 68.4828L290.306 70.2641C291.672 73.254 291.704 73.2222 287.701 74.0174C285.508 74.4627 284.11 74.6218 283.92 74.4309C283.729 74.2401 284.047 72.1089 284.746 68.7373L285.89 63.3299L285.095 58.4315L284.301 53.533L285.572 51.5927C286.271 50.5431 287.161 48.6028 287.574 47.2987L288.336 44.9449L289.448 45.8037C290.052 46.2808 291.291 47.1078 292.149 47.6485ZM305.652 53.5648C305.652 54.3282 305.112 54.4555 304.921 53.7557C304.826 53.3422 304.921 53.1195 305.207 53.1195C305.462 53.1195 305.652 53.3104 305.652 53.5648ZM301.109 54.3918C301.141 54.7417 301.045 54.9644 300.855 54.869C300.505 54.6463 300.473 53.7557 300.823 53.7557C300.95 53.7557 301.077 54.042 301.109 54.3918ZM306.447 76.1167C306.574 77.8662 306.828 79.2975 307.018 79.4248C307.241 79.552 308.512 79.6156 309.91 79.552C312.642 79.4566 312.96 79.6156 312.96 81.2697C312.96 81.7786 312.61 83.7507 312.197 85.5956C309.814 96.0922 305.271 101.022 299.044 99.8773C293.992 98.9549 290.528 95.2334 288.209 88.2356C287.574 86.3589 287.224 84.6731 287.224 83.5598V81.7786L289.067 81.3969C290.052 81.1742 291.513 80.9516 292.308 80.9198C293.102 80.8879 293.833 80.8243 293.992 80.8243C294.119 80.7925 294.214 80.0291 294.214 79.1067V77.4209L296.184 77.0392C298.821 76.562 302.284 74.8444 304.222 73.095C306.097 71.3455 306.065 71.3137 306.447 76.1167ZM368.276 77.4845C368.657 77.9616 368.435 78.3115 366.179 80.379C361.127 85.0866 355.154 90.494 354.9 90.5894C354.773 90.653 354.582 90.3985 354.487 90.0487C354.36 89.5397 355.313 88.4901 359.157 84.9594C361.794 82.542 364.749 79.7429 365.702 78.7568C366.656 77.7708 367.513 76.9756 367.641 76.9756C367.768 76.9756 368.054 77.1982 368.276 77.4845ZM103.007 84.5459C103.96 85.1184 106.089 86.0727 107.709 86.6452C110.378 87.5994 110.569 87.7267 109.743 87.9175C108.503 88.2356 108.027 88.6809 108.027 89.5397C108.027 90.7484 109.139 91.4164 111.395 91.5436C112.729 91.6391 113.587 91.5436 113.905 91.2892C114.508 90.7803 114.508 90.2077 113.905 90.4622C113.619 90.5576 113.428 90.4622 113.428 90.1441C113.428 89.826 113.619 89.6988 113.905 89.826C114.477 90.0487 114.572 89.0626 114 88.4901C113.714 88.2038 114 88.1084 115.271 88.1084C117.241 88.1084 117.209 87.8221 116.288 94.0565C115.875 96.951 115.43 98.7323 114.89 99.8137C112.538 104.458 107.042 107.257 101.672 106.493C97.8913 105.984 94.1739 103.249 92.4264 99.6865C91.1873 97.1737 90.9331 94.2791 91.505 89.3489L91.8863 86.0408L93.4114 84.6095C94.2375 83.7825 95.4448 82.3511 96.0803 81.3651L97.2877 79.5838L99.2576 81.5241C100.338 82.6056 102.022 83.9733 103.007 84.5459ZM285.635 83.8461C285.635 85.9772 286.779 125.101 287.224 138.683C287.383 144.027 287.542 150.039 287.542 152.043L287.51 155.7L280.552 134.898C272.895 112.06 272.895 112.155 274.197 108.688C274.928 106.78 275.659 106.016 280.965 101.786C282.998 100.164 284.682 98.7004 284.682 98.5096C284.682 98.3506 283.316 94.9471 281.6 90.9393C279.916 86.9315 278.614 83.5916 278.677 83.4962C278.9 83.3054 284.079 82.1285 284.936 82.0966C285.572 82.0648 285.635 82.1921 285.635 83.8461ZM89.6622 88.4265C89.5034 89.826 89.4716 89.8896 88.4549 89.4125C87.8194 89.1262 87.5017 89.1262 87.184 89.4125C86.6121 89.8896 86.6121 90.8439 87.184 91.0665C87.4382 91.1619 87.6923 91.5754 87.7559 91.989C87.8194 92.4661 88.1054 92.7523 88.6137 92.816C89.281 92.9114 89.3445 92.816 89.2174 92.1162C89.1221 91.6709 89.1856 91.2892 89.3127 91.2892C89.4716 91.2892 89.5669 91.989 89.5351 92.8796C89.5034 93.7384 89.3763 94.47 89.281 94.47C88.6455 94.47 87.0887 93.0704 86.6438 92.148C85.9766 90.7802 85.9766 89.9214 86.5803 88.7445C87.1522 87.5994 87.9147 87.1223 88.9632 87.2496C89.6622 87.3132 89.7576 87.4404 89.6622 88.4265ZM317.662 129.936C317.821 131.495 317.853 132.894 317.758 132.99C317.662 133.117 312.197 133.785 305.652 134.516C299.107 135.248 292.689 135.979 291.386 136.139C290.084 136.329 289.003 136.425 288.94 136.393C288.908 136.329 288.717 131.208 288.527 125.006C288.304 118.803 288.018 109.706 287.86 104.808C287.669 99.941 287.542 94.9471 287.542 93.7066V91.5118L288.368 93.0704C290.401 96.9192 292.562 99.114 295.771 100.609C297.55 101.468 298.217 101.595 300.442 101.595C302.729 101.595 303.269 101.468 305.112 100.577C306.415 99.941 307.717 98.9867 308.512 98.0643C310.069 96.2831 311.975 92.5297 312.801 89.6352L313.437 87.4722L315.406 107.289C316.518 118.167 317.535 128.346 317.662 129.936ZM109.298 89.6988C109.298 89.8578 109.171 90.0169 108.98 90.0169C108.821 90.0169 108.662 89.8578 108.662 89.6988C108.662 89.5079 108.821 89.3807 108.98 89.3807C109.171 89.3807 109.298 89.5079 109.298 89.6988ZM101.1 110.501C102.371 111.137 104.564 111.901 105.962 112.155C107.36 112.442 108.535 112.696 108.599 112.76C108.63 112.791 108.376 114.7 108.027 117.022C107.677 119.344 107.455 121.348 107.55 121.539C107.836 121.984 108.662 121.889 108.853 121.348C109.044 120.839 111.299 120.68 112.729 121.093C113.46 121.284 113.492 121.38 113.365 123.956C113.269 126.373 113.174 126.723 112.475 127.296C112.03 127.646 109.552 129.968 106.915 132.449C99.9248 139.065 98.6221 140.274 98.4315 140.274C98.3361 140.274 95.286 136.743 91.6639 132.385C88.0101 128.059 84.8328 124.274 84.5786 123.988C84.1974 123.511 84.1656 123.065 84.5151 120.839L84.9281 118.262L87.5017 118.485C89.0586 118.612 90.2977 118.899 90.6154 119.185C90.9014 119.439 91.4097 119.598 91.7275 119.535C92.204 119.439 92.3947 118.676 92.9666 114.668C93.3479 112.028 93.8244 108.847 94.0469 107.575L94.4281 105.253L96.5887 107.32C97.9231 108.561 99.6388 109.801 101.1 110.501ZM249.732 108.593C249.732 108.656 249.478 108.911 249.192 109.133C248.684 109.547 248.652 109.515 249.065 109.006C249.478 108.497 249.732 108.338 249.732 108.593ZM123.182 120.743C123.087 120.839 122.801 120.871 122.579 120.775C122.324 120.68 122.42 120.584 122.769 120.584C123.119 120.553 123.309 120.648 123.182 120.743ZM119.91 122.175C122.007 122.525 123.786 122.843 123.818 122.906C123.881 122.938 122.42 126.564 120.609 130.922C118.798 135.28 117.241 139.128 117.146 139.478C116.987 139.955 117.94 141.291 121.212 145.204C125.978 150.866 127.059 152.711 127.313 155.446C127.535 157.704 127.44 157.895 119.401 176.853C116.192 184.455 112.983 192.057 112.284 193.711C111.172 196.447 111.045 196.637 110.95 195.683C110.855 194.729 111.458 183.692 112.952 158.722C113.206 154.428 113.555 148.289 113.746 145.045C113.936 141.8 114.222 137.284 114.381 135.025C114.54 132.735 114.763 128.886 114.89 126.437C114.985 123.988 115.144 121.889 115.239 121.729C115.43 121.411 115.589 121.411 119.91 122.175ZM127.059 124.02C128.901 124.974 133.635 129.363 140.562 136.552C144.025 140.146 147.329 143.327 147.901 143.582C148.759 143.995 149.681 144.027 154.415 143.741C157.433 143.582 159.943 143.486 160.038 143.55C160.229 143.772 158.577 152.297 156.321 162.698C155.241 167.597 154.097 173.131 153.748 174.976L153.08 178.348L150.697 178.57C143.993 179.111 140.53 178.316 134.811 174.881L133.159 173.863L133.35 165.084C133.54 156.178 133.477 155.605 132.396 156.019C132.047 156.178 131.92 157.736 131.729 164.543C131.538 172.622 130.617 201.027 129.95 218.839C129.791 223.642 129.537 230.481 129.442 234.044C129.314 237.574 129.124 240.469 128.997 240.469C128.552 240.469 120.164 234.775 118.194 233.121C114.54 230.068 111.808 225.519 110.569 220.366C109.87 217.503 109.743 212.287 110.219 205.639C110.41 202.872 110.632 201.79 111.299 200.391C111.744 199.437 114.445 193.139 117.241 186.395C121.943 175.135 124.39 169.378 127.599 161.744C128.711 159.168 128.806 158.595 128.838 156.019C128.838 152.297 128.139 150.802 124.358 146.317C122.801 144.472 120.926 142.246 120.164 141.323L118.829 139.701L120.895 134.644C124.834 125.165 125.565 123.415 125.692 123.415C125.788 123.415 126.391 123.702 127.059 124.02ZM221.042 131.749C231.336 145.776 241.154 159.517 241.154 159.867C241.154 160.026 237.818 161.49 233.751 163.112C223.584 167.183 223.711 167.151 223.52 166.929C223.266 166.674 208.079 128.759 208.174 128.664C208.714 128.218 215.513 125.356 216.117 125.324C216.244 125.324 218.468 128.218 221.042 131.749ZM90.3295 133.339C93.888 137.602 97.1923 141.419 97.6689 141.832L98.495 142.596L100.147 141.069C101.069 140.21 104.373 137.093 107.487 134.135L113.11 128.759L112.952 130.922C112.856 132.131 112.475 137.92 112.157 143.772C110.791 167.533 110.187 177.584 109.52 188.94L108.789 200.868L108.027 200.804C107.36 200.741 88.8044 197.942 75.9683 195.938C73.8395 195.62 71.9649 195.27 71.8696 195.142C71.679 194.952 83.5301 125.642 83.7525 125.642C83.7843 125.642 86.7392 129.109 90.3295 133.339ZM213.162 145.745L217.388 156.305L216.689 156.877C216.308 157.195 215.768 157.45 215.545 157.45C214.91 157.45 205.219 151.311 205.505 151.056C205.632 150.961 206.331 150.675 207.094 150.452C208.651 149.975 209.222 149.402 208.937 148.671C208.714 148.13 208.619 148.13 206.204 149.021C204.266 149.752 202.391 149.307 198.865 147.271C197.34 146.381 195.91 145.681 195.624 145.681C195.37 145.681 194.353 146.603 193.4 147.685C192.415 148.798 190.858 150.261 189.905 150.897C188.443 151.915 187.967 152.074 186.791 151.979C185.488 151.883 185.393 151.82 185.457 151.025C185.52 149.816 189.301 142.977 190.635 141.578C192.065 140.115 196.704 138.27 200.326 137.729C201.724 137.538 204.075 136.902 205.569 136.298C207.062 135.725 208.428 135.248 208.587 135.216C208.778 135.216 210.811 139.955 213.162 145.745ZM295.167 137.793C295.167 139.256 294.373 142.468 293.674 143.963C292.784 145.904 290.274 148.862 289.575 148.862C289.226 148.862 289.13 148.226 289.099 145.904C289.099 144.313 289.035 141.928 288.972 140.655C288.876 138.015 288.622 138.238 292.467 137.761C293.706 137.602 294.786 137.474 294.945 137.443C295.072 137.443 295.167 137.602 295.167 137.793ZM172.652 143.518C172.779 145.14 173.129 150.484 173.478 155.382C173.796 160.281 174.304 167.692 174.59 171.891C174.908 176.058 175.003 179.556 174.845 179.684C174.717 179.811 171.032 180.32 166.647 180.797C162.294 181.306 158.227 181.783 157.624 181.878L156.544 182.038L156.766 180.161C156.893 179.143 158.005 171.255 159.212 162.698C160.452 154.11 161.595 146.031 161.754 144.727C161.945 143.423 162.199 142.023 162.358 141.641C162.676 140.878 162.231 140.942 170.492 140.655L172.43 140.592L172.652 143.518ZM187.458 143.2C185.584 146.413 183.646 150.579 183.646 151.438C183.646 153.506 187.045 154.333 189.778 152.965C190.508 152.583 192.161 151.184 193.463 149.88C195.814 147.526 195.846 147.494 196.641 147.971C197.085 148.257 198.769 149.212 200.326 150.134C205.791 153.315 214.306 158.818 215.196 159.708C216.085 160.694 216.276 161.649 215.736 162.985C215.1 164.639 214.306 164.416 208.142 160.79C202.614 157.545 201.248 157.036 201.502 158.277C201.565 158.563 203.821 160.09 206.554 161.68C212.495 165.147 212.876 165.466 212.876 166.865C212.876 167.947 211.701 169.219 210.716 169.219C210.462 169.219 207.824 167.851 204.87 166.165C200.04 163.43 198.579 162.857 198.579 163.748C198.579 164.257 199.405 164.798 204.107 167.501C208.142 169.855 208.587 170.205 208.682 171.064C208.746 171.795 208.555 172.177 207.793 172.845C207.253 173.29 206.554 173.672 206.236 173.672C205.346 173.672 201.851 171.255 201.597 170.491C201.375 169.76 199.691 168.583 198.833 168.583C198.515 168.583 198.166 168.137 197.943 167.438C197.467 166.038 196.005 165.084 194.353 165.084C193.4 165.084 193.114 164.925 192.891 164.352C192.447 163.239 190.731 161.903 189.682 161.903C189.174 161.903 188.38 162.062 187.903 162.221C187.204 162.507 186.982 162.444 186.6 161.903C185.87 160.885 184.376 160.249 183.232 160.472C181.771 160.79 181.008 161.617 178.943 165.147C177.831 167.056 176.942 168.265 176.592 168.265C175.988 168.265 175.893 167.628 175.226 157.291C174.972 153.251 174.654 149.053 174.559 147.907L174.368 145.808L176.846 145.458C178.594 145.204 180.627 144.536 183.487 143.327C185.774 142.373 187.808 141.578 188.03 141.546C188.284 141.546 188.062 142.182 187.458 143.2ZM217.801 158.404C217.706 158.563 217.42 158.722 217.229 158.722C217.007 158.722 217.039 158.595 217.324 158.404C217.928 158.022 218.055 158.022 217.801 158.404ZM184.916 162.539C185.266 162.889 185.552 163.493 185.552 163.907C185.552 164.289 184.662 166.133 183.55 167.947C181.771 170.937 181.453 171.286 180.595 171.382C179.229 171.509 178.435 170.682 178.657 169.346C178.753 168.805 179.642 167.056 180.627 165.434C182.883 161.776 183.646 161.267 184.916 162.539ZM190.763 164.002C191.843 165.052 191.398 166.642 188.952 170.65C186.823 174.181 186.569 174.467 185.584 174.563C184.249 174.69 183.328 173.895 183.328 172.591C183.328 171.477 186.537 165.784 187.967 164.352C188.92 163.398 190.032 163.239 190.763 164.002ZM221.137 166.038C221.677 167.31 222.027 168.424 221.931 168.519C221.868 168.615 221.646 168.265 221.455 167.756C221.264 167.247 220.883 166.611 220.629 166.324C220.184 165.847 219.612 163.112 219.993 163.525C220.089 163.621 220.597 164.734 221.137 166.038ZM216.53 165.402C216.435 165.561 216.181 165.72 216.022 165.72C215.831 165.72 215.799 165.561 215.895 165.402C215.99 165.211 216.244 165.084 216.403 165.084C216.594 165.084 216.625 165.211 216.53 165.402ZM195.846 167.183C196.768 168.074 196.45 169.537 194.702 172.4C192.161 176.63 191.684 177.171 190.604 177.171C189.619 177.171 188.411 176.217 188.411 175.421C188.411 174.499 192.447 167.438 193.304 166.929C193.908 166.515 195.338 166.642 195.846 167.183ZM226.38 168.265C226.284 168.424 225.998 168.583 225.808 168.583C225.585 168.583 225.617 168.455 225.903 168.265C226.507 167.883 226.634 167.883 226.38 168.265ZM176.973 170.714C176.973 171 177.291 171.604 177.704 172.05L178.403 172.877L177.704 172.272C177.259 171.891 176.973 171.827 176.973 172.05C176.973 172.272 176.846 172.336 176.656 172.241C176.497 172.145 176.338 171.636 176.338 171.096C176.338 170.587 176.497 170.173 176.656 170.173C176.846 170.173 176.973 170.428 176.973 170.714ZM199.659 170.682C199.945 170.937 200.167 171.382 200.167 171.636C200.167 172.304 197.657 177.203 196.895 178.03C196.132 178.889 194.607 179.016 194.321 178.252C193.908 177.203 194.162 176.376 195.592 174.022C197.88 170.237 198.61 169.632 199.659 170.682ZM181.421 173.354C181.421 173.513 181.104 173.672 180.722 173.64C180.023 173.64 180.023 173.608 180.627 173.354C180.977 173.195 181.294 173.068 181.358 173.068C181.39 173.036 181.421 173.163 181.421 173.354ZM203.059 174.022C204.234 174.849 204.234 175.39 203.059 176.567C202.042 177.584 201.248 177.712 200.326 177.044C199.786 176.662 199.754 176.503 200.135 175.708C200.771 174.276 201.406 173.354 201.788 173.354C201.978 173.354 202.55 173.64 203.059 174.022ZM136.781 178.38C136.686 178.475 136.431 178.38 136.209 178.157C135.923 177.839 135.955 177.807 136.4 177.998C136.717 178.093 136.876 178.284 136.781 178.38ZM154.732 180.574C154.732 180.924 154.637 181.02 154.478 180.797C154.351 180.606 154.033 180.352 153.779 180.256C153.462 180.129 153.525 180.065 154.033 180.065C154.51 180.034 154.732 180.224 154.732 180.574ZM164.169 183.087C164.074 183.183 163.788 183.214 163.565 183.119C163.311 183.024 163.406 182.928 163.756 182.928C164.105 182.896 164.296 182.992 164.169 183.087ZM161.5 183.437C161.278 183.501 160.896 183.501 160.706 183.437C160.483 183.342 160.642 183.278 161.087 183.278C161.532 183.278 161.691 183.342 161.5 183.437ZM79.8445 198.991C80.194 199.437 80.3846 199.85 80.3211 199.945C80.2258 200.009 79.8763 199.627 79.4632 199.118C79.082 198.578 78.8913 198.164 79.0184 198.164C79.1455 198.164 79.5268 198.546 79.8445 198.991ZM77.0803 199.277C76.9532 198.896 77.3027 199.118 77.9699 199.914C79.082 201.186 79.3997 201.981 78.7642 201.981C78.6054 201.981 78.5101 201.886 78.5736 201.727C78.6689 201.599 78.383 201.059 77.9699 200.55C77.4933 199.945 77.2074 199.786 77.2074 200.073C77.2074 200.391 76.985 200.295 76.5719 199.755C75.7458 198.705 75.7776 198.228 76.6037 199.15C77.1756 199.818 77.2392 199.85 77.0803 199.277ZM81.0201 198.959C81.0201 199.214 81.179 199.437 81.3378 199.437C81.5285 199.437 81.6555 199.659 81.6555 199.914C81.6555 200.168 81.7826 200.391 81.9097 200.391C82.0368 200.391 82.4181 200.804 82.704 201.345C83.0218 201.854 83.1489 202.299 82.9582 202.299C82.7676 202.299 82.4499 201.981 82.2592 201.568C82.0368 201.186 81.7826 200.804 81.6873 200.709C81.2107 200.295 80.3846 198.482 80.6706 198.482C80.8612 198.482 81.0201 198.705 81.0201 198.959ZM82.9582 200.136C83.1171 200.454 83.1489 200.709 82.99 200.709C82.7358 200.709 82.0368 199.564 81.7191 198.641C81.592 198.228 82.577 199.437 82.9582 200.136ZM83.5619 199.118C83.5619 199.277 83.4348 199.437 83.2442 199.437C83.0853 199.437 82.9264 199.277 82.9264 199.118C82.9264 198.928 83.0853 198.8 83.2442 198.8C83.4348 198.8 83.5619 198.928 83.5619 199.118ZM79.1137 199.755C79.1137 199.914 79.0502 200.073 78.9866 200.073C78.8913 200.073 78.7325 199.914 78.6371 199.755C78.5418 199.564 78.6054 199.437 78.7642 199.437C78.9549 199.437 79.1137 199.564 79.1137 199.755ZM87.3746 199.755C87.3746 199.914 87.3111 200.073 87.2475 200.073C87.1522 200.073 86.9933 199.914 86.898 199.755C86.8027 199.564 86.8663 199.437 87.0251 199.437C87.2158 199.437 87.3746 199.564 87.3746 199.755ZM84.1973 200.073C84.1973 200.232 84.1338 200.391 84.0703 200.391C83.9749 200.391 83.8161 200.232 83.7208 200.073C83.6254 199.882 83.689 199.755 83.8479 199.755C84.0385 199.755 84.1973 199.882 84.1973 200.073ZM86.7392 200.391C86.7392 200.55 86.6121 200.709 86.4214 200.709C86.2626 200.709 86.1037 200.55 86.1037 200.391C86.1037 200.2 86.2626 200.073 86.4214 200.073C86.6121 200.073 86.7392 200.2 86.7392 200.391ZM91.6639 200.391C91.7592 200.55 91.6957 200.709 91.5368 200.709C91.3462 200.709 91.1873 200.55 91.1873 200.391C91.1873 200.2 91.2509 200.073 91.3144 200.073C91.4097 200.073 91.5686 200.2 91.6639 200.391ZM79.7492 200.9C79.7492 201.154 79.6221 201.281 79.4315 201.186C79.2726 201.091 79.1137 200.868 79.1137 200.677C79.1137 200.518 79.2726 200.391 79.4315 200.391C79.6221 200.391 79.7492 200.613 79.7492 200.9ZM81.6555 201.949C81.6555 202.108 81.878 202.331 82.1639 202.426C82.4499 202.554 82.6087 202.713 82.4816 202.84C82.3863 202.967 82.5452 203.349 82.8629 203.699C83.4348 204.367 84.2927 206.116 84.0703 206.116C83.8796 206.116 80.3846 200.772 80.3846 200.486C80.3846 200.359 80.6706 200.582 81.0201 200.963C81.3696 201.345 81.6555 201.759 81.6555 201.949ZM85.3412 201.568C85.1188 201.79 84.5151 201.345 84.5151 200.963C84.5151 200.772 84.7057 200.772 84.9917 201.027C85.2776 201.25 85.4047 201.504 85.3412 201.568ZM89.9164 201.027C89.9164 201.186 89.8529 201.345 89.7893 201.345C89.694 201.345 89.5351 201.186 89.4398 201.027C89.3445 200.836 89.4081 200.709 89.5669 200.709C89.7576 200.709 89.9164 200.836 89.9164 201.027ZM95 202.49C95 202.745 94.8729 202.935 94.6823 202.935C94.1739 202.935 94.301 203.381 95.0318 204.176C95.4131 204.558 95.6037 204.971 95.5084 205.098C95.286 205.289 94.5234 204.303 93.8244 202.967C93.2525 201.949 93.3161 201.409 93.888 202.172C94.4281 202.904 94.4917 202.681 94.0469 201.44L93.7291 200.55L94.3646 201.313C94.7141 201.727 95 202.236 95 202.49ZM95.7626 201.25C95.9532 201.727 96.0167 201.727 96.2709 201.345C96.5251 200.963 96.684 200.995 97.2241 201.599C97.6689 202.077 97.8278 202.522 97.7007 202.872C97.5101 203.317 97.4147 203.253 97.1606 202.522C97.0017 202.045 96.7158 201.663 96.5251 201.663C96.3345 201.663 96.3027 201.886 96.398 202.14C96.9382 203.476 97.0017 203.731 96.684 203.413C96.0485 202.776 94.9683 200.709 95.2542 200.709C95.4131 200.709 95.6672 200.963 95.7626 201.25ZM83.8796 201.345C83.8796 201.504 83.7525 201.663 83.5619 201.663C83.403 201.663 83.2442 201.504 83.2442 201.345C83.2442 201.154 83.403 201.027 83.5619 201.027C83.7525 201.027 83.8796 201.154 83.8796 201.345ZM86.4214 201.345C86.4214 201.504 86.3579 201.663 86.2943 201.663C86.199 201.663 86.0402 201.504 85.9448 201.345C85.8495 201.154 85.9131 201.027 86.0719 201.027C86.2626 201.027 86.4214 201.154 86.4214 201.345ZM81.1154 203.222C81.2743 203.858 81.2425 203.921 80.893 203.54C80.6388 203.285 80.3529 202.649 80.2576 202.14C80.0351 201.25 80.0669 201.218 80.48 201.822C80.7341 202.172 81.0201 202.808 81.1154 203.222ZM91.6321 201.822C91.5051 202.077 91.378 202.299 91.3144 202.299C91.2509 202.299 91.1873 202.077 91.1873 201.822C91.1873 201.568 91.3144 201.345 91.505 201.345C91.6639 201.345 91.7275 201.568 91.6321 201.822ZM99.1622 202.236C99.5117 203.19 98.9081 203.031 98.2091 202.013C97.7642 201.313 97.7642 201.281 98.3044 201.377C98.6221 201.44 99.0351 201.822 99.1622 202.236ZM100.084 201.663C100.084 201.822 100.02 201.981 99.9566 201.981C99.8612 201.981 99.7024 201.822 99.607 201.663C99.5117 201.472 99.5753 201.345 99.7341 201.345C99.9248 201.345 100.084 201.472 100.084 201.663ZM90.8061 202.617C91.2191 203.126 91.378 203.572 91.2191 203.572C91.0285 203.572 90.679 203.126 90.393 202.617C90.1071 202.077 89.9482 201.663 90.0117 201.663C90.0753 201.663 90.4248 202.077 90.8061 202.617ZM101.831 202.617C102.117 203.126 102.276 203.572 102.212 203.572C102.149 203.572 101.799 203.126 101.418 202.617C101.005 202.077 100.846 201.663 101.005 201.663C101.196 201.663 101.545 202.077 101.831 202.617ZM103.07 202.363C103.61 203.126 103.706 203.572 103.356 203.572C103.197 203.572 102.848 203.126 102.562 202.617C101.926 201.504 102.339 201.313 103.07 202.363ZM84.4515 202.776C84.3562 202.872 84.1656 202.713 84.0703 202.395C83.8796 201.949 83.9114 201.918 84.2291 202.204C84.4515 202.426 84.5469 202.681 84.4515 202.776ZM86.1355 202.999C86.3897 203.508 86.3897 203.603 86.0719 203.508C85.8813 203.444 85.5636 203.063 85.4365 202.649C85.087 201.79 85.6271 202.045 86.1355 202.999ZM87.0569 202.617C87.0569 202.967 86.9933 203.253 86.9298 203.253C86.8662 203.253 86.7392 202.967 86.6438 202.617C86.5485 202.267 86.6121 201.981 86.7709 201.981C86.9298 201.981 87.0569 202.267 87.0569 202.617ZM84.2609 204.049C84.7375 204.844 85.0234 205.48 84.8964 205.48C84.7693 205.48 84.2927 204.844 83.8161 204.049C83.3395 203.253 83.0535 202.617 83.1806 202.617C83.3077 202.617 83.7843 203.253 84.2609 204.049ZM107.074 203.19C108.44 204.812 108.503 204.971 107.487 204.208C106.502 203.413 105.93 202.617 106.375 202.617C106.502 202.617 106.819 202.872 107.074 203.19ZM108.63 203.444C108.726 203.953 108.662 203.985 108.217 203.603C107.614 203.094 107.55 202.522 108.122 202.681C108.313 202.776 108.567 203.094 108.63 203.444ZM85.4683 203.953C85.4683 204.144 85.2776 204.112 84.9917 203.89C84.7375 203.667 84.5151 203.444 84.5151 203.381C84.5151 203.317 84.7375 203.349 84.9917 203.444C85.2458 203.572 85.4683 203.794 85.4683 203.953ZM90.9967 206.593C91.1238 207.07 90.9967 207.007 90.393 206.275C89.9482 205.735 89.5987 205.162 89.5987 204.971C89.5987 204.748 89.3763 204.526 89.1221 204.399C88.8679 204.303 88.6455 203.985 88.6455 203.699C88.6455 203.031 90.7425 205.639 90.9967 206.593ZM90.3612 203.762C90.679 204.558 90.3295 204.685 89.9164 203.921C89.7258 203.54 89.694 203.253 89.8846 203.253C90.0435 203.253 90.2659 203.476 90.3612 203.762ZM97.1606 205.194C98.5268 207.261 98.3044 207.548 96.8746 205.575C95.3495 203.508 95.2224 203.222 95.699 203.413C95.9214 203.508 96.5887 204.303 97.1606 205.194ZM98.8127 203.953C98.8127 204.144 99.0669 204.494 99.3846 204.717C99.6706 204.939 99.7977 205.13 99.607 205.162C99.1305 205.162 98.7174 204.78 98.2726 203.985C97.9231 203.381 97.9549 203.317 98.3362 203.444C98.5903 203.572 98.8127 203.794 98.8127 203.953ZM94.3646 205.035C94.3646 205.226 94.6505 205.639 95 205.957C95.3495 206.275 95.6355 206.689 95.6355 206.848C95.6355 207.261 94.2375 205.83 93.7609 204.939C93.5703 204.558 93.4114 204.08 93.4114 203.858C93.4114 203.381 94.3328 204.526 94.3646 205.035ZM97.6689 204.399C97.8278 204.844 97.796 204.876 97.383 204.526C96.8428 204.08 96.7793 203.89 97.1923 203.89C97.3512 203.89 97.5736 204.112 97.6689 204.399ZM103.038 204.335C103.166 204.653 103.07 204.748 102.753 204.621C102.276 204.43 102.149 203.89 102.594 203.89C102.753 203.89 102.943 204.112 103.038 204.335ZM104.532 204.907C104.532 205.098 104.309 205.067 104.055 204.844C103.801 204.621 103.579 204.303 103.579 204.144C103.579 203.953 103.801 203.985 104.055 204.208C104.309 204.43 104.532 204.748 104.532 204.907ZM82.291 204.526C82.291 204.685 82.2275 204.844 82.1639 204.844C82.0686 204.844 81.9097 204.685 81.8144 204.526C81.7191 204.335 81.7826 204.208 81.9415 204.208C82.1321 204.208 82.291 204.335 82.291 204.526ZM105.326 204.907C105.326 205.098 105.517 205.321 105.771 205.416C106.025 205.512 106.12 205.416 105.993 205.194C105.866 205.003 105.93 204.844 106.089 204.844C106.502 204.844 106.533 205.162 106.152 205.735C105.962 206.053 105.803 206.053 105.485 205.607C105.04 205.098 104.722 203.953 105.104 204.367C105.231 204.494 105.326 204.748 105.326 204.907ZM103.579 209.138C103.579 209.265 103.356 209.202 103.102 208.979C102.721 208.661 102.625 208.661 102.625 209.106C102.625 209.933 102.085 209.679 101.545 208.597C100.878 207.261 100.91 207.039 101.672 208.025C102.784 209.488 102.689 208.406 101.545 206.689C99.7977 204.112 100.179 204.08 101.99 206.657C102.88 207.897 103.579 209.011 103.579 209.138ZM102.625 205.544C102.625 205.735 102.403 205.703 102.149 205.48C101.895 205.257 101.672 204.939 101.672 204.78C101.672 204.589 101.895 204.621 102.149 204.844C102.403 205.067 102.625 205.385 102.625 205.544ZM107.709 205.162C107.709 205.321 107.646 205.48 107.582 205.48C107.487 205.48 107.328 205.321 107.232 205.162C107.137 204.971 107.201 204.844 107.36 204.844C107.55 204.844 107.709 204.971 107.709 205.162ZM82.9264 205.48C82.9264 205.639 82.8629 205.798 82.7994 205.798C82.704 205.798 82.5452 205.639 82.4499 205.48C82.3545 205.289 82.4181 205.162 82.577 205.162C82.7676 205.162 82.9264 205.289 82.9264 205.48ZM89.1221 205.48C89.2174 205.639 89.1539 205.798 88.995 205.798C88.8044 205.798 88.6455 205.639 88.6455 205.48C88.6455 205.289 88.7091 205.162 88.7726 205.162C88.8679 205.162 89.0268 205.289 89.1221 205.48ZM94.301 206.498C95.3178 208.438 95.1589 208.756 94.0469 207.07C93.0619 205.607 92.903 205.162 93.3479 205.162C93.4749 205.162 93.888 205.766 94.301 206.498ZM98.495 205.48C98.495 205.639 98.4315 205.798 98.3679 205.798C98.2726 205.798 98.1137 205.639 98.0184 205.48C97.9231 205.289 97.9867 205.162 98.1455 205.162C98.3362 205.162 98.495 205.289 98.495 205.48ZM103.737 205.48C103.833 205.639 103.769 205.798 103.61 205.798C103.42 205.798 103.261 205.639 103.261 205.48C103.261 205.289 103.324 205.162 103.388 205.162C103.483 205.162 103.642 205.289 103.737 205.48ZM86.5803 205.798C86.6756 205.957 86.6121 206.116 86.4532 206.116C86.2626 206.116 86.1037 205.957 86.1037 205.798C86.1037 205.607 86.1673 205.48 86.2308 205.48C86.3261 205.48 86.485 205.607 86.5803 205.798ZM96.2709 205.798C96.2709 205.957 96.2074 206.116 96.1438 206.116C96.0485 206.116 95.8897 205.957 95.7943 205.798C95.699 205.607 95.7626 205.48 95.9214 205.48C96.1121 205.48 96.2709 205.607 96.2709 205.798ZM104.85 205.798C104.85 205.957 104.786 206.116 104.722 206.116C104.627 206.116 104.468 205.957 104.373 205.798C104.278 205.607 104.341 205.48 104.5 205.48C104.691 205.48 104.85 205.607 104.85 205.798ZM100.433 206.339C100.846 206.848 100.814 206.88 100.338 206.466C99.7977 206.053 99.6388 205.798 99.893 205.798C99.9566 205.798 100.211 206.053 100.433 206.339ZM108.345 206.116C108.345 206.275 108.281 206.434 108.217 206.434C108.122 206.434 107.963 206.275 107.868 206.116C107.773 205.925 107.836 205.798 107.995 205.798C108.186 205.798 108.345 205.925 108.345 206.116ZM103.261 206.434C103.261 206.593 103.197 206.752 103.134 206.752C103.038 206.752 102.88 206.593 102.784 206.434C102.689 206.243 102.753 206.116 102.911 206.116C103.102 206.116 103.261 206.243 103.261 206.434ZM104.659 206.911C104.945 207.357 105.072 207.707 104.913 207.707C104.754 207.707 104.468 207.357 104.278 206.911C104.087 206.466 103.96 206.116 104.023 206.116C104.087 206.116 104.373 206.466 104.659 206.911ZM132.396 208.088C132.333 208.502 132.269 208.184 132.269 207.389C132.269 206.593 132.333 206.275 132.396 206.657C132.46 207.07 132.46 207.707 132.396 208.088ZM84.8328 206.752C84.8328 206.911 84.7057 207.07 84.5151 207.07C84.3562 207.07 84.1973 206.911 84.1973 206.752C84.1973 206.562 84.3562 206.434 84.5151 206.434C84.7057 206.434 84.8328 206.562 84.8328 206.752ZM96.9064 206.752C96.9064 206.911 96.8428 207.07 96.7793 207.07C96.684 207.07 96.5251 206.911 96.4298 206.752C96.3345 206.562 96.398 206.434 96.5569 206.434C96.7475 206.434 96.9064 206.562 96.9064 206.752ZM107.868 206.975C108.186 207.42 108.186 207.611 107.804 207.961C107.55 208.216 107.264 208.311 107.137 208.216C107.042 208.088 107.137 207.866 107.36 207.738C107.646 207.548 107.677 207.389 107.423 207.261C107.042 207.007 106.947 206.434 107.264 206.434C107.391 206.434 107.646 206.689 107.868 206.975ZM86.4214 207.643C86.4214 208.12 86.3579 208.12 86.1037 207.707C85.6907 207.07 85.6907 206.657 86.1037 206.911C86.2943 207.007 86.4214 207.357 86.4214 207.643ZM91.0602 208.247C90.9649 208.375 90.6472 208.184 90.3612 207.834C89.8846 207.261 89.8846 207.261 90.0753 207.929C90.3295 208.852 90.0435 208.884 89.5669 207.993C89.0586 207.007 89.8529 206.562 90.6472 207.42C90.9967 207.77 91.1555 208.152 91.0602 208.247ZM93.7291 207.42C93.7291 207.611 94.301 208.565 95 209.583C96.5569 211.81 96.684 212.478 95.1589 210.474C94.5552 209.679 94.0469 208.884 94.0469 208.724C94.0469 208.565 93.8244 208.247 93.5703 208.025C93.0301 207.579 92.9348 207.07 93.4114 207.07C93.602 207.07 93.7291 207.229 93.7291 207.42ZM106.756 207.389C106.756 207.548 106.692 207.707 106.629 207.707C106.533 207.707 106.375 207.548 106.279 207.389C106.184 207.198 106.248 207.07 106.406 207.07C106.597 207.07 106.756 207.198 106.756 207.389ZM96.7157 208.661C96.5251 208.82 95.9532 207.993 95.9532 207.579C95.9532 207.389 96.1438 207.548 96.398 207.897C96.6522 208.216 96.7793 208.565 96.7157 208.661ZM97.7007 207.707C97.796 207.866 97.7642 208.025 97.5736 208.025C97.4147 208.025 97.1606 207.866 97.0652 207.707C96.9699 207.516 97.0017 207.389 97.1923 207.389C97.3512 207.389 97.6054 207.516 97.7007 207.707ZM98.9716 207.707C99.0669 207.866 99.0034 208.025 98.8445 208.025C98.6539 208.025 98.495 207.866 98.495 207.707C98.495 207.516 98.5586 207.389 98.6221 207.389C98.7174 207.389 98.8763 207.516 98.9716 207.707ZM101.355 209.711C101.355 209.838 101.227 209.87 101.037 209.774C100.878 209.679 100.719 209.424 100.719 209.265C100.719 209.074 100.497 208.724 100.243 208.47C99.9883 208.184 99.7659 207.834 99.7659 207.611C99.7659 207.42 100.115 207.738 100.56 208.343C101.005 208.947 101.355 209.551 101.355 209.711ZM104.532 208.47C104.564 208.979 105.771 210.378 106.025 210.156C106.12 210.029 106.025 209.742 105.803 209.456C105.167 208.661 105.707 208.915 106.597 209.806C107.518 210.728 108.059 210.569 107.455 209.615C107.01 208.884 106.978 208.661 107.36 208.661C107.9 208.661 108.313 210.41 107.868 210.983C107.518 211.492 107.455 211.492 106.947 210.919C106.629 210.601 106.152 210.378 105.834 210.474C105.421 210.569 105.04 210.219 104.405 209.202C103.96 208.406 103.579 207.643 103.579 207.516C103.579 207.166 104.532 208.088 104.532 208.47ZM85.4683 208.025C85.4683 208.184 85.4047 208.343 85.3412 208.343C85.2458 208.343 85.087 208.184 84.9917 208.025C84.8964 207.834 84.9599 207.707 85.1188 207.707C85.3094 207.707 85.4683 207.834 85.4683 208.025ZM89.4081 208.82C89.8846 209.52 89.8846 209.679 89.4716 210.092C89.0903 210.506 88.995 210.506 88.8362 210.06C88.7408 209.806 88.7726 209.679 88.9632 209.774C89.1539 209.87 89.281 209.742 89.281 209.488C89.281 209.233 89.1539 208.915 88.9632 208.82C88.6455 208.629 88.5184 208.025 88.7726 208.025C88.8362 208.025 89.1221 208.375 89.4081 208.82ZM98.8127 209.456C98.8127 209.583 99.0987 210.092 99.48 210.601C99.8295 211.11 99.9566 211.524 99.7659 211.524C99.5753 211.524 99.3211 211.269 99.2258 210.951C99.0987 210.665 98.7492 210.06 98.4315 209.647C97.7325 208.724 97.6689 208.088 98.3362 208.788C98.5903 209.043 98.8127 209.361 98.8127 209.456ZM100.719 210.41C100.719 210.569 100.37 210.315 99.9248 209.806C99.48 209.297 99.1305 208.724 99.1305 208.534C99.1622 208.12 100.719 209.965 100.719 210.41ZM96.5887 209.965C96.5887 210.156 96.4616 210.188 96.2709 210.092C96.1121 209.997 95.9532 209.742 95.9532 209.583C95.9532 209.392 96.1121 209.361 96.2709 209.456C96.4616 209.551 96.5887 209.806 96.5887 209.965ZM104.85 211.11C106.152 213.178 106.057 213.559 104.691 211.651C104.087 210.792 103.579 209.997 103.579 209.87C103.579 209.329 103.96 209.679 104.85 211.11ZM94.6188 211.078C94.4917 211.174 94.2375 210.919 94.0469 210.506C93.6656 209.806 93.6656 209.806 94.2375 210.315C94.5552 210.633 94.7141 210.951 94.6188 211.078ZM89.0903 211.81C88.9315 212.001 88.0418 210.824 88.0418 210.41C88.0101 210.219 88.296 210.442 88.6455 210.887C88.9632 211.333 89.1856 211.746 89.0903 211.81ZM93.5385 210.76C93.6338 211.015 93.602 211.142 93.4114 211.046C93.2208 210.951 93.0937 210.728 93.0937 210.538C93.0937 210.092 93.3161 210.188 93.5385 210.76ZM98.4315 211.046C98.3361 211.142 98.1455 210.983 98.0502 210.665C97.8596 210.219 97.8913 210.188 98.2091 210.474C98.4315 210.697 98.5268 210.951 98.4315 211.046ZM101.99 210.569C101.99 210.728 101.863 210.887 101.672 210.887C101.513 210.887 101.355 210.728 101.355 210.569C101.355 210.378 101.513 210.251 101.672 210.251C101.863 210.251 101.99 210.378 101.99 210.569ZM104.468 212.382C105.866 214.545 106.12 215.563 104.818 213.687C104.405 213.114 103.992 212.573 103.896 212.478C103.801 212.382 103.483 211.842 103.166 211.269C102.117 209.424 103.07 210.219 104.468 212.382ZM97.9866 212.16C98.8763 213.496 98.9716 213.75 98.5586 213.75C98.3044 213.75 96.9064 211.492 96.9064 211.078C96.9064 210.665 97.1606 210.919 97.9866 212.16ZM101.069 211.81C100.846 211.969 100.719 212.223 100.846 212.414C100.942 212.605 100.91 212.828 100.751 212.923C100.592 213.019 100.37 212.86 100.243 212.573C100.147 212.255 100.211 211.969 100.37 211.905C100.56 211.842 100.719 211.555 100.719 211.269C100.719 210.856 100.814 210.856 101.1 211.142C101.418 211.46 101.418 211.619 101.069 211.81ZM90.393 211.778C90.2977 211.873 90.0435 211.778 89.8211 211.555C89.5351 211.237 89.5669 211.205 90.0117 211.396C90.3295 211.492 90.4883 211.683 90.393 211.778ZM103.515 212.796C104.055 213.655 104.532 214.45 104.532 214.545C104.532 214.895 103.896 214.673 103.896 214.291C103.865 214.1 103.452 213.4 102.943 212.796C101.99 211.714 101.768 211.205 102.244 211.205C102.371 211.205 102.943 211.937 103.515 212.796ZM93.0937 211.842C93.0937 212.001 93.0301 212.16 92.9666 212.16C92.8713 212.16 92.7124 212.001 92.6171 211.842C92.5218 211.651 92.5853 211.524 92.7442 211.524C92.9348 211.524 93.0937 211.651 93.0937 211.842ZM95.5084 212.096C95.5402 212.319 95.5084 212.351 95.4131 212.16C95.3495 212.001 95.1271 211.905 94.9683 212.032C94.8094 212.128 94.6823 212.033 94.6823 211.842C94.6823 211.365 95.4131 211.619 95.5084 212.096ZM99.1305 212.192C99.1305 212.351 99.0034 212.478 98.8127 212.478C98.6539 212.478 98.495 212.255 98.495 211.969C98.495 211.714 98.6539 211.587 98.8127 211.683C99.0034 211.778 99.1305 212.001 99.1305 212.192ZM94.3646 212.319C94.3646 212.573 94.301 212.796 94.2375 212.796C94.1739 212.796 94.0469 212.573 93.9198 212.319C93.8245 212.064 93.888 211.842 94.0469 211.842C94.2375 211.842 94.3646 212.064 94.3646 212.319ZM107.9 213.114C107.963 214.195 107.963 214.195 107.518 213.432C106.978 212.446 106.947 211.746 107.455 211.905C107.677 212.001 107.868 212.541 107.9 213.114ZM97.1606 212.987C97.383 213.432 97.4147 213.718 97.2241 213.591C96.7475 213.305 96.2074 212.16 96.5251 212.16C96.684 212.16 96.9699 212.541 97.1606 212.987ZM102.244 212.828C102.467 213.209 102.594 213.591 102.498 213.687C102.308 213.877 101.386 212.828 101.355 212.382C101.355 211.937 101.831 212.16 102.244 212.828ZM100.306 213.687C100.528 213.909 100.719 214.259 100.719 214.482C100.719 214.673 100.433 214.514 100.084 214.132C99.7341 213.75 99.4482 213.209 99.48 212.891C99.48 212.446 99.5435 212.414 99.6706 212.796C99.7977 213.05 100.052 213.464 100.306 213.687ZM93.7609 214.45C94.4281 215.341 94.5234 215.818 94.0786 215.5C93.6974 215.277 92.776 213.432 92.8077 212.987C92.8077 212.796 92.903 212.86 92.9984 213.114C93.0937 213.368 93.4432 213.973 93.7609 214.45ZM97.0017 214.386C97.4783 215.245 98.0184 216.04 98.1455 216.136C98.495 216.327 99.8295 218.839 99.607 218.839C99.4482 218.839 95.6355 213.178 95.6355 212.923C95.6355 212.382 96.2392 213.05 97.0017 214.386ZM94.8412 213.718C94.587 214.164 94.0469 214.164 94.0469 213.718C94.0469 213.559 94.2057 213.496 94.3646 213.591C94.5552 213.687 94.6823 213.623 94.6823 213.4C94.6823 213.178 94.7776 213.082 94.8729 213.209C94.9683 213.305 94.9683 213.527 94.8412 213.718ZM101.672 213.718C101.672 213.877 101.768 214.291 101.863 214.609C102.022 215.118 101.99 215.118 101.545 214.577C100.973 213.846 100.91 213.432 101.355 213.432C101.545 213.432 101.672 213.559 101.672 213.718ZM96.3027 214.991C96.6522 215.849 96.1121 215.595 95.6037 214.641C95.3495 214.132 95.3495 214.036 95.6673 214.132C95.8579 214.195 96.1756 214.577 96.3027 214.991ZM98.8763 215.404C99.5753 216.517 99.7659 216.645 99.9566 216.199C100.084 215.818 99.9248 215.436 99.4482 215.022C98.6539 214.323 98.6857 213.909 99.48 214.482C100.179 214.991 100.846 216.295 100.401 216.295C99.9566 216.295 99.9883 217.344 100.465 217.822C100.656 218.012 100.783 218.267 100.687 218.33C100.624 218.394 99.893 217.472 99.0669 216.263C98.2408 215.054 97.6689 214.068 97.796 214.068C97.9231 214.068 98.3997 214.673 98.8763 215.404ZM107.391 214.259C107.391 214.514 106.788 214.673 106.629 214.45C106.533 214.291 106.661 214.164 106.915 214.164C107.169 214.164 107.391 214.227 107.391 214.259ZM93.0937 215.913C93.0937 216.327 92.9984 216.295 92.6171 215.786C92.0134 214.991 92.0134 214.514 92.6171 215.022C92.8713 215.245 93.0937 215.659 93.0937 215.913ZM102.721 215.659C102.498 216.549 102.308 216.454 102.308 215.468C102.308 215.022 102.435 214.736 102.594 214.832C102.753 214.927 102.816 215.309 102.721 215.659ZM101.609 216.168C101.482 216.263 101.227 216.009 101.037 215.595C100.656 214.895 100.656 214.895 101.227 215.404C101.545 215.722 101.704 216.04 101.609 216.168ZM105.803 216.327C105.803 216.517 105.676 216.549 105.485 216.454C105.326 216.358 105.167 216.104 105.167 215.945C105.167 215.754 105.326 215.722 105.485 215.818C105.676 215.913 105.803 216.168 105.803 216.327ZM94.9365 216.549C95.1271 217.122 94.4599 216.995 94.2375 216.422C94.1104 216.104 94.2057 215.977 94.4281 216.04C94.6188 216.104 94.8729 216.358 94.9365 216.549ZM97.3512 216.486C97.6372 217.185 97.2559 217.503 96.9064 216.931C96.5251 216.327 96.5251 215.977 96.8746 215.977C97.0335 215.977 97.2559 216.199 97.3512 216.486ZM103.896 217.44C103.896 217.631 103.706 217.981 103.452 218.171C103.102 218.458 102.911 218.362 102.467 217.694C102.181 217.249 102.022 216.804 102.085 216.708C102.181 216.645 102.403 216.867 102.625 217.217C103.134 218.171 103.642 218.076 103.261 217.058C103.07 216.613 102.943 216.168 102.943 216.04C102.943 215.69 103.865 217.09 103.896 217.44ZM106.597 219.412C106.692 219.539 106.915 219.412 107.074 219.158C107.232 218.903 107.455 218.776 107.55 218.903C107.677 218.998 107.582 219.38 107.36 219.73C107.01 220.271 107.105 220.525 108.122 221.766C109.329 223.229 110.41 225.455 110.124 225.774C110.028 225.869 109.933 225.742 109.933 225.487C109.933 225.106 109.87 225.137 109.584 225.519C109.298 225.933 109.266 225.933 109.393 225.487C109.584 224.851 108.63 222.943 107.518 221.766C107.105 221.289 106.756 220.78 106.756 220.621C106.756 220.493 106.184 219.507 105.485 218.458C104.786 217.408 104.214 216.39 104.214 216.168C104.214 215.977 104.722 216.581 105.326 217.535C105.898 218.458 106.502 219.317 106.597 219.412ZM108.345 218.108C108.345 218.521 107.741 218.044 107.296 217.281C106.502 215.913 106.629 215.69 107.55 216.931C107.995 217.535 108.345 218.044 108.345 218.108ZM101.355 217.44C101.355 217.694 101.513 217.885 101.672 217.885C101.863 217.885 101.99 218.076 101.99 218.267C101.958 218.49 101.672 218.33 101.355 217.917C100.687 217.122 100.497 216.454 101.037 216.772C101.227 216.867 101.355 217.185 101.355 217.44ZM107.074 218.299C107.074 218.458 106.851 218.426 106.597 218.203C106.343 217.981 106.12 217.567 106.12 217.281C106.152 216.867 106.216 216.867 106.597 217.376C106.851 217.726 107.074 218.14 107.074 218.299ZM98.4315 220.112C98.8127 220.812 99.0034 221.384 98.8445 221.384C98.6857 221.384 98.495 221.13 98.3997 220.812C98.2726 220.525 97.9549 219.953 97.6689 219.539C97.383 219.158 97.2559 218.839 97.4147 218.839C97.5736 218.839 98.0184 219.412 98.4315 220.112ZM102.467 219.158C102.562 219.348 102.467 219.698 102.181 219.953C101.895 220.239 101.641 220.303 101.513 220.112C101.418 219.953 101.482 219.794 101.672 219.794C101.895 219.794 101.99 219.571 101.863 219.317C101.672 218.776 102.149 218.649 102.467 219.158ZM105.93 220.43C106.565 221.32 107.074 222.147 107.074 222.275C107.074 222.434 107.36 222.847 107.709 223.229C108.249 223.801 108.281 223.929 107.868 223.929C107.614 223.929 107.391 223.77 107.391 223.611C107.391 223.229 105.104 219.666 104.786 219.539C104.532 219.412 104.436 218.839 104.659 218.839C104.722 218.839 105.294 219.571 105.93 220.43ZM99.7024 220.462C100.306 221.416 99.9565 221.543 99.3211 220.589C99.0351 220.144 98.9081 219.794 99.0351 219.794C99.194 219.794 99.48 220.08 99.7024 220.462ZM100.56 220.112C100.656 220.271 100.592 220.43 100.433 220.43C100.243 220.43 100.084 220.271 100.084 220.112C100.084 219.921 100.147 219.794 100.211 219.794C100.306 219.794 100.465 219.921 100.56 220.112ZM104.436 220.493C104.341 220.748 104.246 220.652 104.246 220.303C104.214 219.953 104.309 219.762 104.405 219.889C104.5 219.985 104.532 220.271 104.436 220.493ZM108.535 221.289C108.217 221.607 107.931 221.13 108.217 220.716C108.408 220.366 108.472 220.366 108.599 220.716C108.662 220.939 108.63 221.193 108.535 221.289ZM101.196 221.066C101.291 221.225 101.227 221.384 101.069 221.384C100.878 221.384 100.719 221.225 100.719 221.066C100.719 220.875 100.783 220.748 100.846 220.748C100.942 220.748 101.1 220.875 101.196 221.066ZM103.356 221.925C103.769 222.593 104.913 224.406 105.93 225.964C106.915 227.523 107.614 228.891 107.518 228.986C107.391 229.082 107.264 229.018 107.169 228.859C107.105 228.668 106.057 226.982 104.85 225.137C103.61 223.261 102.625 221.607 102.625 221.416C102.625 221.257 102.435 221.034 102.244 220.971C101.926 220.843 101.926 220.78 102.212 220.78C102.435 220.748 102.943 221.289 103.356 221.925ZM104.786 222.147C105.167 222.625 105.39 223.197 105.294 223.356C105.104 223.642 103.61 221.511 103.579 220.907C103.579 220.589 103.769 220.78 104.786 222.147ZM106.12 222.529C106.692 223.324 107.074 224.056 106.978 224.151C106.788 224.31 104.85 221.766 104.85 221.32C104.85 220.812 105.135 221.098 106.12 222.529ZM99.5753 222.211C99.6706 222.466 99.6388 222.593 99.4482 222.497C99.2576 222.402 99.1305 222.179 99.1305 221.988C99.1305 221.543 99.3529 221.639 99.5753 222.211ZM102.149 222.656C102.244 222.815 102.181 222.974 102.022 222.974C101.831 222.974 101.672 222.815 101.672 222.656C101.672 222.466 101.736 222.338 101.799 222.338C101.895 222.338 102.054 222.466 102.149 222.656ZM103.896 224.724C103.896 224.819 104.468 225.774 105.199 226.823C105.898 227.873 106.438 228.795 106.375 228.891C106.279 228.954 105.771 228.35 105.231 227.555C104.659 226.76 104.087 226.187 103.96 226.283C103.801 226.378 103.452 226.155 103.166 225.805C102.435 224.947 102.498 224.66 103.261 225.36C103.992 226.028 104.087 225.646 103.42 224.756C103.197 224.438 102.848 224.279 102.657 224.406C102.467 224.501 102.308 224.469 102.308 224.279C102.308 223.801 103.07 223.674 103.483 224.12C103.706 224.342 103.896 224.597 103.896 224.724ZM106.756 225.678C106.724 226.187 105.485 224.469 105.485 223.929C105.485 223.674 105.771 223.865 106.12 224.406C106.47 224.915 106.756 225.487 106.756 225.678ZM108.98 224.565C108.98 224.724 108.853 224.883 108.662 224.883C108.503 224.883 108.345 224.724 108.345 224.565C108.345 224.374 108.503 224.247 108.662 224.247C108.853 224.247 108.98 224.374 108.98 224.565ZM107.9 225.01C108.408 225.519 108.503 225.964 108.059 225.71C107.9 225.583 107.614 225.901 107.455 226.378C107.169 227.11 107.105 227.141 107.105 226.601C107.074 226.251 107.232 225.805 107.455 225.583C107.741 225.296 107.741 225.201 107.455 225.201C107.232 225.201 107.074 225.042 107.074 224.883C107.074 224.438 107.36 224.501 107.9 225.01ZM112.602 230.322C113.968 232.421 115.017 234.235 114.89 234.33C114.667 234.584 114.731 234.68 113.269 232.199C112.602 231.054 111.49 229.304 110.823 228.286C110.156 227.3 109.711 226.473 109.838 226.473C109.965 226.505 111.204 228.223 112.602 230.322ZM108.281 227.905C108.186 228 107.995 227.841 107.9 227.523C107.709 227.078 107.741 227.046 108.059 227.332C108.281 227.555 108.376 227.809 108.281 227.905ZM110.028 228.445C110.219 229.145 110.187 229.145 109.774 228.573C109.234 227.873 109.139 227.3 109.584 227.555C109.743 227.65 109.933 228.064 110.028 228.445ZM108.98 228.7C108.98 228.859 108.916 229.018 108.853 229.018C108.758 229.018 108.599 228.859 108.503 228.7C108.408 228.509 108.472 228.382 108.63 228.382C108.821 228.382 108.98 228.509 108.98 228.7ZM111.045 229.654C111.141 229.813 111.077 229.972 110.918 229.972C110.727 229.972 110.569 229.813 110.569 229.654C110.569 229.463 110.632 229.336 110.696 229.336C110.791 229.336 110.95 229.463 111.045 229.654ZM108.98 231.054C108.98 231.245 108.758 231.086 108.503 230.736C108.249 230.418 108.027 230.004 108.027 229.845C108.027 229.654 108.249 229.813 108.503 230.163C108.758 230.481 108.98 230.895 108.98 231.054ZM111.236 231.881C111.331 231.976 111.554 232.39 111.681 232.835C111.871 233.439 111.681 233.312 110.95 232.326C110.441 231.626 109.901 230.704 109.806 230.259C109.615 229.686 109.743 229.75 110.283 230.608C110.696 231.213 111.109 231.785 111.236 231.881ZM112.157 231.849C112.125 232.167 111.967 232.072 111.681 231.563C111.077 230.513 111.109 229.972 111.681 230.736C111.935 231.086 112.157 231.594 112.157 231.849ZM113.428 233.662C113.428 233.916 113.523 234.107 113.682 234.107C113.809 234.107 114.095 234.394 114.318 234.743C114.635 235.284 114.635 235.38 114.222 235.38C113.968 235.38 113.746 235.221 113.746 235.03C113.746 234.839 113.46 234.33 113.11 233.885C112.38 232.93 112.253 232.262 112.952 232.835C113.206 233.058 113.428 233.439 113.428 233.662ZM115.779 234.075C115.589 234.266 115.017 233.471 115.017 232.994C115.049 232.803 115.239 232.962 115.493 233.28C115.748 233.63 115.875 233.98 115.779 234.075ZM113.269 235.38C113.809 236.238 114.318 236.97 114.477 236.97C114.604 236.97 114.699 237.129 114.699 237.32C114.699 237.924 113.841 237.034 112.793 235.348C112.284 234.489 111.967 233.789 112.094 233.789C112.221 233.789 112.761 234.489 113.269 235.38ZM111.776 234.902C111.681 234.998 111.49 234.839 111.395 234.521C111.204 234.075 111.236 234.044 111.554 234.33C111.776 234.553 111.871 234.807 111.776 234.902ZM117.368 235.57C117.241 236.016 117.304 236.334 117.527 236.334C117.717 236.334 117.876 236.525 117.876 236.716C117.845 236.938 117.559 236.779 117.209 236.334C116.828 235.92 116.701 235.507 116.891 235.443C117.05 235.38 117.114 235.125 117.018 234.839C116.891 234.489 116.955 234.394 117.177 234.553C117.4 234.68 117.495 235.093 117.368 235.57ZM115.144 236.207C115.716 236.747 115.843 237.447 115.334 237.129C114.985 236.906 114.286 235.698 114.508 235.698C114.572 235.698 114.89 235.92 115.144 236.207ZM119.306 236.334C119.401 236.493 119.274 236.652 119.02 236.652C118.734 236.652 118.512 236.493 118.512 236.334C118.512 236.143 118.639 236.016 118.798 236.016C118.988 236.016 119.211 236.143 119.306 236.334ZM116.923 237.256C117.336 238.051 117.336 238.656 116.891 238.401C116.701 238.274 116.637 238.083 116.732 237.988C116.828 237.892 116.701 237.543 116.383 237.224C116.097 236.906 116.033 236.652 116.224 236.652C116.415 236.652 116.732 236.938 116.923 237.256ZM118.416 237.67C118.321 237.924 118.226 237.829 118.226 237.479C118.194 237.129 118.289 236.938 118.385 237.065C118.48 237.161 118.512 237.447 118.416 237.67ZM115.334 238.242C115.334 238.401 115.207 238.56 115.017 238.56C114.858 238.56 114.699 238.401 114.699 238.242C114.699 238.051 114.858 237.924 115.017 237.924C115.207 237.924 115.334 238.051 115.334 238.242ZM117.876 239.515C117.876 239.674 117.813 239.833 117.749 239.833C117.654 239.833 117.495 239.674 117.4 239.515C117.304 239.324 117.368 239.197 117.527 239.197C117.717 239.197 117.876 239.324 117.876 239.515ZM119.084 241.614C118.957 241.709 118.702 241.455 118.512 241.041C118.13 240.342 118.13 240.342 118.702 240.851C119.02 241.169 119.179 241.487 119.084 241.614Z" fill="#2563EB"/>
<path d="M286.398 53.5648C285.286 54.0737 284.778 54.6781 285.191 54.9962C285.35 55.0916 285.477 55.6005 285.477 56.1413C285.477 57.35 286.557 57.9543 288.463 57.7953C290.783 57.5408 292.371 55.8232 291.291 54.6781C291.069 54.4236 290.878 54.0101 290.878 53.7557C290.878 53.1195 287.732 52.9605 286.398 53.5648ZM290.878 55.5051C290.878 56.4275 290.242 56.3957 290.211 55.5051C290.179 54.9962 290.306 54.7417 290.528 54.8053C290.719 54.8689 290.878 55.187 290.878 55.5051ZM286.366 55.9822C286.271 56.3321 286.144 56.6184 286.08 56.6184C286.017 56.6184 285.953 56.3321 285.953 55.9822C285.953 55.6323 286.08 55.3461 286.239 55.3461C286.398 55.3461 286.462 55.6323 286.366 55.9822Z" fill="#2563EB"/>
<path d="M311.276 54.9326C311.212 55.0916 311.117 56.0141 311.117 57.0001C311.085 58.6541 311.149 58.845 311.721 58.845C312.07 58.845 312.452 58.5587 312.61 58.1134C312.769 57.7317 312.992 57.4772 313.151 57.5408C313.564 57.6999 314.199 56.3003 314.008 55.7596C313.881 55.4733 313.532 55.3461 313.055 55.4415C312.579 55.5369 312.197 55.4097 312.102 55.1552C311.911 54.6781 311.498 54.5827 311.276 54.9326Z" fill="#2563EB"/>
<path d="M294.754 55.8868C294.659 56.0458 294.532 57.0637 294.468 58.2087L294.373 60.2763L295.898 60.5625C297.105 60.817 297.487 60.7852 297.709 60.4353C298.09 59.831 297.868 59.6083 296.724 59.3538C295.803 59.163 295.739 59.0994 295.803 57.8271C295.866 57.0637 295.866 56.2685 295.834 56.0458C295.803 55.6323 294.977 55.5051 294.754 55.8868Z" fill="#2563EB"/>
<path d="M310.799 64.7931C310.418 66.8606 310.037 68.9918 309.91 69.5325L309.719 70.5186L312.547 70.3913C314.072 70.2959 315.533 70.2005 315.756 70.1369C316.01 70.0414 315.438 68.5783 313.913 65.5247C312.674 63.0755 311.625 61.0716 311.594 61.0716C311.53 61.0716 311.181 62.7574 310.799 64.7931Z" fill="#2563EB"/>
<path d="M299.298 63.4571C297.487 64.2204 295.93 64.9838 295.866 65.1429C295.739 65.5246 297.582 66.9559 298.599 67.274C299.552 67.5603 301.268 66.9559 302.157 66.0017C302.888 65.2065 303.492 61.9939 302.92 62.0575C302.761 62.0575 301.14 62.6937 299.298 63.4571ZM302.475 63.5207C302.443 64.5703 298.122 66.4152 297.105 65.8427C296.692 65.62 296.946 65.4292 298.186 64.9202C299.075 64.5385 300.219 64.0296 300.727 63.8069C301.808 63.2662 302.475 63.1708 302.475 63.5207Z" fill="#2563EB"/>
<path d="M285.508 68.6418C285.032 70.8684 284.555 72.9677 284.46 73.2858C284.301 73.8265 284.428 73.8583 285.667 73.6993C288.209 73.3494 290.401 72.7769 290.401 72.4906C290.401 72.0771 286.906 64.9203 286.589 64.7294C286.462 64.6658 285.985 66.4152 285.508 68.6418Z" fill="#2563EB"/>
<path d="M94.6188 85.9453C93.888 86.1998 93.7291 86.4543 93.7291 87.3131C93.7291 88.8399 94.6505 89.3806 97.2241 89.3806C99.5753 89.3806 100.274 89.0625 99.9566 88.2355C99.7659 87.7266 99.7024 87.7266 99.4482 88.1083C99.194 88.49 99.1305 88.4264 99.1305 87.8856C99.1305 87.3767 99.2576 87.2177 99.6388 87.3767C100.02 87.5039 100.115 87.4085 100.02 86.9632C99.8295 85.8499 96.5569 85.2138 94.6188 85.9453Z" fill="#2563EB"/>
<path d="M105.008 90.9711C104.85 91.2255 104.945 92.0525 105.358 93.5793C105.485 93.9928 105.263 94.1201 104.309 94.2155C103.356 94.2791 103.102 94.4381 103.102 94.9471C103.102 95.4878 103.293 95.5832 104.627 95.5514C106.724 95.5196 107.137 95.0425 106.692 93.0386C106.248 90.9711 105.549 90.0804 105.008 90.9711Z" fill="#2563EB"/>
<path d="M97.7643 96.9192C97.6372 97.0146 97.5419 97.7144 97.5419 98.4142C97.5419 102.295 102.181 104.489 105.421 102.104C107.995 100.259 107.932 100.164 102.848 98.3187C98.0185 96.5693 98.082 96.6011 97.7643 96.9192ZM102.022 98.9549C104.023 99.6547 105.771 100.354 105.93 100.513C106.565 101.15 105.072 101.181 103.642 100.577C102.816 100.195 101.355 99.8137 100.401 99.6865C99.4482 99.5592 98.5586 99.3048 98.4315 99.1139C98.1773 98.764 98.082 97.6508 98.2726 97.6508C98.3362 97.6508 100.02 98.2233 102.022 98.9549Z" fill="#2563EB"/>
<path d="M130.426 39.0921L128.52 39.2829L128.647 41.0324C128.965 45.899 132.396 50.2885 136.622 51.1792C138.783 51.6563 140.403 51.6245 143.612 51.0519C146.98 50.4476 147.87 50.4476 149.84 51.0519C152.636 51.8789 153.811 53.1831 156.162 58.1133C156.226 58.2405 160.293 56.9046 160.515 56.6819C160.642 56.5547 160.197 55.2824 159.498 53.8828C157.973 50.702 155.368 48.1256 152.604 47.0441C151.079 46.4398 150.157 46.2807 147.425 46.2807C145.582 46.2807 142.85 46.4079 141.356 46.567C138.115 46.8851 136.876 46.567 135.447 45.072C134.335 43.9269 133.445 41.6049 133.445 39.9191C133.445 39.0603 133.318 38.8058 132.905 38.8694C132.587 38.9012 131.475 38.9967 130.426 39.0921Z" fill="#2563EB"/>
<path d="M35.2676 112.759C29.072 118.962 24.0837 124.051 24.2107 124.051C24.6556 124.051 28.9131 122.111 30.8194 121.03C36.7291 117.69 40.9549 113.618 43.7827 108.593C45.1489 106.175 46.8011 102.231 46.6422 101.754C46.5786 101.595 41.4633 106.557 35.2676 112.759Z" fill="#2563EB"/>
<path d="M117.559 112.6C117.336 113.141 117.209 113.618 117.273 113.682C117.59 113.968 123.278 116.735 123.278 116.576C123.278 116.354 118.448 111.646 118.194 111.646C118.067 111.646 117.781 112.091 117.559 112.6Z" fill="#2563EB"/>
<path d="M331.61 118.867C331.293 119.376 333.04 127.232 333.485 127.232C334.438 127.232 334.502 126.119 333.803 122.461C333.199 119.217 333.04 118.803 332.436 118.708C332.087 118.644 331.706 118.708 331.61 118.867Z" fill="#2563EB"/>
<path d="M316.773 137.506C316.773 138.238 317.122 139.001 317.472 139.001C317.916 139.001 317.63 137.315 317.186 137.156C316.963 137.093 316.773 137.252 316.773 137.506Z" fill="#2563EB"/>
<path d="M297.391 140.083C297.391 140.528 297.518 140.941 297.677 141.069C298.059 141.291 298.472 140.083 298.186 139.637C297.836 139.065 297.391 139.319 297.391 140.083Z" fill="#2563EB"/>
<path d="M296.915 142.85C296.597 143.836 297.296 144.409 297.677 143.423C297.836 143.009 297.9 142.564 297.804 142.405C297.55 141.959 297.105 142.182 296.915 142.85Z" fill="#2563EB"/>
<path d="M296.057 145.522C295.676 146.349 295.93 146.985 296.406 146.444C296.565 146.285 296.788 145.84 296.915 145.426C297.201 144.44 296.533 144.504 296.057 145.522Z" fill="#2563EB"/>
<path d="M294.595 147.908C294.405 148.257 294.214 148.703 294.214 148.894C294.214 149.371 295.072 148.671 295.517 147.844C295.962 147.017 295.136 147.08 294.595 147.908Z" fill="#2563EB"/>
<path d="M292.467 150.134C292.149 150.484 291.99 150.866 292.085 150.961C292.34 151.216 293.896 150.229 293.896 149.816C293.896 149.275 293.07 149.466 292.467 150.134Z" fill="#2563EB"/>
<path d="M290.497 151.502C289.702 151.852 289.512 152.679 290.179 152.679C290.719 152.679 291.799 151.534 291.45 151.311C291.323 151.247 290.878 151.311 290.497 151.502Z" fill="#2563EB"/>
<path d="M54.9348 173.036C53.6639 177.076 53.6321 177.203 54.204 177.839C54.49 178.189 54.8712 178.348 54.9983 178.221C55.3796 177.775 57.8261 169.473 57.6355 169.187C57.5401 169.028 57.1906 168.901 56.8729 168.901C56.3646 168.901 56.0151 169.632 54.9348 173.036Z" fill="#2563EB"/>
<path d="M198.737 179.048C198.547 179.398 199.151 179.875 199.436 179.588C199.564 179.493 199.468 179.398 199.246 179.398C199.023 179.398 198.96 179.239 199.055 179.079C199.151 178.889 199.182 178.761 199.087 178.761C198.992 178.761 198.865 178.889 198.737 179.048Z" fill="#2563EB"/>
<path d="M188.729 229.527C180.659 230.195 172.557 232.517 161.881 237.224C157.401 239.197 146.281 244.699 145.741 245.208C145.614 245.336 146.885 247.498 148.537 250.043C152.032 255.291 155.59 261.335 158.799 267.506C160.038 269.86 161.246 272.022 161.468 272.309C161.85 272.818 162.167 272.786 165.853 272.245C171.064 271.418 179.483 269.541 188.634 267.124L196.037 265.184L208.269 253.033L220.502 240.882L218.691 239.165C213.957 234.712 208.809 232.072 201.756 230.513C198.166 229.718 192.033 229.272 188.729 229.527Z" fill="#2563EB"/>
<path d="M137.194 249.948C133.572 252.015 130.49 253.797 130.363 253.924C130.236 254.051 134.684 258.727 140.244 264.293C149.045 273.104 150.443 274.376 151.174 274.281C156.035 273.708 159.975 273.199 160.07 273.072C160.229 272.913 156.639 266.106 153.525 260.667C150.507 255.419 144.502 246.194 144.089 246.194C143.93 246.194 140.816 247.88 137.194 249.948Z" fill="#2563EB"/>
<mask id="mask0_1238_11864" style="mask-type:alpha" maskUnits="userSpaceOnUse" x="93" y="103" width="17" height="25">
<path d="M95.3607 103.85L110 105.904L107.903 120.796C107.334 124.84 103.596 127.659 99.5532 127.092C95.5109 126.525 92.6947 122.786 93.2644 118.742L95.3607 103.85Z" fill="white"/>
</mask>
<g mask="url(#mask0_1238_11864)">
<path d="M107.332 113.875C116.465 115.157 124.833 109.337 126.023 100.878C127.214 92.4178 120.776 84.521 111.643 83.2404C102.512 81.9579 94.1425 87.7772 92.9522 96.2366C91.7618 104.696 98.2 112.593 107.332 113.875Z" fill="#01133B"/>
</g>
<path fill-rule="evenodd" clip-rule="evenodd" d="M118.987 86.3151L117.582 96.292C116.516 103.869 109.512 109.149 101.939 108.087C94.3663 107.023 89.0916 100.02 90.157 92.4427L91.5615 82.4658C92.628 74.8887 99.6316 69.6088 107.205 70.6711C114.777 71.7344 120.053 78.738 118.987 86.3151Z" fill="white" stroke="#01133B" stroke-width="1.32" stroke-linecap="round" stroke-linejoin="round"/>
<path fill-rule="evenodd" clip-rule="evenodd" d="M98.0029 68.6024C94.3954 65.6668 91.3436 66.548 88.8455 71.245C87.0014 74.7112 86.0909 81.2365 88.8392 92.5404C88.9543 93.0093 90.3149 87.4447 90.7419 87.0428C93.9747 83.9942 96.5053 80.4181 98.3336 76.3135C100.404 71.6667 100.293 69.0974 98.0029 68.6024Z" fill="#01133B"/>
<path fill-rule="evenodd" clip-rule="evenodd" d="M90.8888 87.3193L89.3305 86.8504C88.8428 86.7039 88.3279 86.6713 87.8256 86.755C87.3233 86.8388 86.8469 87.0367 86.4332 87.3335C86.0194 87.6303 85.6792 88.0182 85.4389 88.4671C85.1985 88.9161 85.0644 89.4142 85.0469 89.9231C85.0021 91.194 85.3422 92.4487 86.0227 93.5229C86.7033 94.597 87.6924 95.4406 88.8606 95.943L89.6287 96.2726L90.8888 87.3193Z" fill="white" stroke="#01133B" stroke-width="1.32" stroke-linecap="round" stroke-linejoin="round"/>
<path d="M88.6407 89.7493L88.2482 92.5373M88.3937 91.5012L87.2383 90.2663M106.003 91.698L106.072 95.294L104.096 95.3536" stroke="#01133B" stroke-width="1.32" stroke-linecap="round" stroke-linejoin="round"/>
<path d="M96.7389 89.3232C98.2313 89.5325 99.5385 89.0072 99.6589 88.15C99.7792 87.2919 98.6678 86.4274 97.1764 86.2181C95.684 86.0088 94.3769 86.5341 94.2565 87.3913C94.1351 88.2495 95.2476 89.1129 96.7389 89.3232Z" stroke="#01133B" stroke-width="0.802" stroke-linecap="round" stroke-linejoin="round"/>
<path d="M96.7377 89.3238C97.6325 89.4493 98.4562 88.857 98.5765 87.9988C98.6979 87.1417 98.07 86.3452 97.1742 86.2196C96.2793 86.0941 95.4557 86.6875 95.3353 87.5446C95.215 88.4017 95.8429 89.1982 96.7377 89.3238Z" fill="#01133B"/>
<path d="M111.701 91.4257C113.193 91.635 114.501 91.1096 114.621 90.2535C114.742 89.3954 113.63 88.5309 112.138 88.3216C110.647 88.1123 109.339 88.6377 109.219 89.4937C109.098 90.3519 110.209 91.2164 111.701 91.4257Z" stroke="#01133B" stroke-width="0.802" stroke-linecap="round" stroke-linejoin="round"/>
<path d="M111.702 91.427C112.597 91.5526 113.421 90.9592 113.541 90.1021C113.661 89.2449 113.035 88.4485 112.139 88.3229C111.244 88.1973 110.42 88.7907 110.3 89.6479C110.18 90.505 110.808 91.3014 111.702 91.427Z" fill="#01133B"/>
<path fill-rule="evenodd" clip-rule="evenodd" d="M102.551 69.1801C113.543 68.1692 121.501 69.7599 126.424 73.9525C133.81 80.2423 124.646 93.4196 107.429 86.2757C95.9506 81.5139 94.3243 75.8143 102.551 69.1801Z" fill="#01133B"/>
<path fill-rule="evenodd" clip-rule="evenodd" d="M94.435 70.4525C96.0718 66.4734 109.308 61.3652 115.461 64.3782C119.563 66.3876 117.63 71.0888 109.66 78.4817C98.4192 75.7816 93.3444 73.1055 94.435 70.4525Z" fill="#01133B"/>
<mask id="mask1_1238_11864" style="mask-type:alpha" maskUnits="userSpaceOnUse" x="97" y="97" width="11" height="7">
<path d="M98.0585 97.1252L107.405 100.42C105.795 103.338 103.671 104.32 101.037 103.368C98.4018 102.417 97.4086 100.335 98.0585 97.1252Z" fill="white"/>
</mask>
<g mask="url(#mask1_1238_11864)">
<path d="M98.0572 97.1252L107.404 100.421C105.793 103.338 103.671 104.32 101.036 103.368C98.4004 102.417 97.4083 100.335 98.0572 97.1252Z" fill="white" stroke="#01133B" stroke-linecap="round" stroke-linejoin="round"/>
<path d="M100.761 105.265C103.531 105.653 105.935 104.845 106.13 103.459C106.325 102.073 104.238 100.634 101.468 100.246C98.6987 99.8574 96.2947 100.666 96.099 102.052C95.9043 103.438 97.9912 104.877 100.761 105.265Z" fill="#01133B"/>
</g>
<path fill-rule="evenodd" clip-rule="evenodd" d="M314.277 20.8081C310.782 17.7731 305.048 18.5931 302.207 23.0101C300.841 25.1321 300.466 27.3741 301.084 29.7341C298.954 28.9551 296.5 28.6621 293.598 28.8741C285.518 29.4631 278.421 35.7841 279.057 44.5181C279.693 53.2511 268.003 53.4191 264.076 62.0051C262.274 65.9481 263.676 70.0111 264.665 73.9391L264.794 74.4621C265.865 78.9001 266.198 83.1521 260.525 86.8471C253.257 91.5811 252.916 101.048 252.5 108L270 86.8471L275 84L277.5 83.5L294 80.5L294.5 76L306 72.5L306.5 78.5L307.5 79.5L331.5 80.5L350 96.5C349.404 88.916 347.454 78.6451 340.235 76.5071C334.51 74.8111 333.707 70.2111 332.838 65.1501L332.723 64.4881C331.973 60.1681 331.019 55.5931 326.822 52.2531C317.457 44.8041 313.909 45.2401 310.098 38.4231C309.31 37.0131 308.487 35.7531 307.607 34.6451L307.636 34.6441C311.609 34.4431 314.654 31.6611 315.477 30.5791C317.418 28.0291 317.772 23.8431 314.277 20.8081Z" fill="#01133B"/>
<mask id="mask2_1238_11864" style="mask-type:alpha" maskUnits="userSpaceOnUse" x="292" y="67" width="16" height="17">
<path d="M306.5 67.126L292.455 68.847L293.441 76.87C293.669 78.7326 294.628 80.4282 296.107 81.5838C297.585 82.7394 299.462 83.2604 301.325 83.032C303.188 82.8037 304.883 81.8447 306.039 80.3662C307.195 78.8877 307.715 77.0106 307.487 75.148L306.5 67.125V67.126Z" fill="white"/>
</mask>
<g mask="url(#mask2_1238_11864)">
<path d="M294.558 77.8971C284.323 79.1521 275.08 72.4841 273.915 63.0041C272.75 53.5241 280.103 44.8201 290.338 43.5651C300.574 42.3101 309.816 48.9771 310.981 58.4581C312.147 67.9381 304.794 76.6411 294.558 77.8971Z" fill="#01133B"/>
</g>
<path d="M281.51 48.8002C280.452 40.1872 286.573 32.3502 295.182 31.2942C303.792 30.2382 311.629 36.3642 312.687 44.9762L313.562 52.0892C314.621 60.7012 308.499 68.5392 299.889 69.5952C291.28 70.6512 283.443 64.5252 282.384 55.9132L281.51 48.8002Z" fill="#01133B"/>
<path fill-rule="evenodd" clip-rule="evenodd" d="M282.932 50.5773L284.107 60.1313C284.999 67.3873 291.602 72.5483 298.856 71.6583C306.109 70.7683 311.266 64.1653 310.374 56.9103L309.2 47.3553C308.308 40.0993 301.705 34.9383 294.451 35.8283C287.198 36.7183 282.041 43.3223 282.932 50.5773Z" fill="white" stroke="#01133B" stroke-width="1.32" stroke-linecap="round" stroke-linejoin="round"/>
<mask id="mask3_1238_11864" style="mask-type:alpha" maskUnits="userSpaceOnUse" x="282" y="35" width="29" height="36">
<path d="M282.934 50.5769L283.963 58.9379C284.855 66.1949 291.458 71.3559 298.711 70.4679C305.964 69.5779 311.12 62.9749 310.228 55.7179L309.199 47.3579C308.307 40.1009 301.704 34.9399 294.451 35.8279C287.198 36.7179 282.042 43.3199 282.934 50.5769Z" fill="white"/>
</mask>
<g mask="url(#mask3_1238_11864)">
<path fill-rule="evenodd" clip-rule="evenodd" d="M285.418 30.0358L285.311 30.0308C282.267 29.9228 271.203 34.1338 267.243 42.7498C263.274 51.3858 265.907 61.3538 269.962 60.8268C272.354 60.5143 274.675 59.7935 276.822 58.6958C282.609 55.7458 286.455 50.4958 287.813 44.6258C292.235 48.8798 299.532 51.3188 306.216 51.6458C309.871 51.8238 312.082 51.9768 314.417 51.6938C319.137 51.1208 311.282 34.4678 303.996 26.3108C298.912 20.6198 289.121 25.2838 285.418 30.0358Z" fill="#01133B"/>
</g>
<mask id="mask4_1238_11864" style="mask-type:alpha" maskUnits="userSpaceOnUse" x="295" y="62" width="8" height="6">
<path d="M302.125 62.1973L295.182 64.5093C296.333 66.6843 297.888 67.4363 299.845 66.7673C301.803 66.0993 302.563 64.5753 302.125 62.1973Z" fill="white"/>
</mask>
<g mask="url(#mask4_1238_11864)">
<path d="M302.125 62.1973L295.181 64.5093C296.333 66.6843 297.888 67.4363 299.845 66.7673C301.803 66.0993 302.562 64.5753 302.125 62.1973Z" fill="white" stroke="#01133B" stroke-linecap="round" stroke-linejoin="round"/>
<path d="M300.063 68.9394C298.375 69.1464 296.887 68.3354 296.738 67.1294C296.59 65.9224 297.838 64.7774 299.526 64.5694C301.214 64.3634 302.703 65.1734 302.851 66.3794C303 67.5864 301.751 68.7324 300.063 68.9394Z" fill="#01133B"/>
</g>
<path d="M294.752 56.4023L294.625 59.8363L296.512 59.9263" stroke="#01133B" stroke-width="1.32" stroke-linecap="round" stroke-linejoin="round"/>
<path d="M302.338 55.6057C300.799 55.7937 299.45 55.1157 299.324 54.0887C299.197 53.0627 300.343 52.0787 301.881 51.8887C303.42 51.7007 304.77 52.3787 304.896 53.4057C305.022 54.4317 303.877 55.4167 302.338 55.6057Z" stroke="#01133B" stroke-width="0.802" stroke-linecap="round" stroke-linejoin="round"/>
<path d="M302.34 55.6065C301.417 55.7195 300.566 54.9795 300.44 53.9525C300.314 52.9265 300.96 52.0025 301.883 51.8905C302.807 51.7765 303.657 52.5165 303.783 53.5435C303.91 54.5695 303.263 55.4935 302.34 55.6065Z" fill="#01133B"/>
<path d="M288.009 57.3655C286.47 57.5535 285.12 56.8755 284.994 55.8485C284.868 54.8225 286.013 53.8375 287.552 53.6485C289.09 53.4605 290.44 54.1385 290.566 55.1655C290.692 56.1915 289.547 57.1765 288.009 57.3655Z" stroke="#01133B" stroke-width="0.802" stroke-linecap="round" stroke-linejoin="round"/>
<path d="M288.009 57.3661C287.086 57.4791 286.235 56.7391 286.109 55.7131C285.983 54.6871 286.629 53.7631 287.552 53.6501C288.475 53.5371 289.326 54.2771 289.452 55.3031C289.578 56.3301 288.932 57.2531 288.009 57.3661Z" fill="#01133B"/>
<path fill-rule="evenodd" clip-rule="evenodd" d="M308.903 53.4766L311.023 53.3066L310.334 61.2876L308.693 61.6816L308.903 53.4766Z" fill="white"/>
<path fill-rule="evenodd" clip-rule="evenodd" d="M309.471 53.0489L310.998 52.7589C311.476 52.6681 311.969 52.6884 312.438 52.818C312.907 52.9477 313.34 53.1833 313.704 53.5068C314.067 53.8302 314.352 54.2329 314.536 54.6836C314.719 55.1344 314.797 55.6213 314.763 56.1069C314.678 57.3192 314.229 58.4778 313.475 59.4306C312.721 60.3835 311.696 61.0863 310.536 61.4469L309.774 61.6829" fill="white"/>
<path d="M309.471 53.0489L310.998 52.7589C311.476 52.6681 311.969 52.6884 312.438 52.818C312.907 52.9477 313.34 53.1833 313.704 53.5068C314.067 53.8302 314.352 54.2329 314.536 54.6836C314.719 55.1344 314.797 55.6213 314.763 56.1069C314.678 57.3192 314.229 58.4778 313.475 59.4306C312.721 60.3835 311.696 61.0863 310.536 61.4469L309.774 61.6829M311.365 55.5829L311.459 58.2709M311.424 57.2729L312.644 56.2149" stroke="#01133B" stroke-width="1.32" stroke-linecap="round" stroke-linejoin="round"/>
<path d="M311.013 59.8379L308.59 70.7759L316.013 69.8659L311.013 59.8379ZM285.933 62.9189L283.51 73.8559L290.933 72.9459L285.933 62.9179V62.9189Z" stroke="white" stroke-width="0.88" stroke-linejoin="round"/>
</svg>
