<svg width="400" height="300" viewBox="0 0 400 300" fill="none" xmlns="http://www.w3.org/2000/svg">
<g clip-path="url(#clip0_296_11527)">
<mask id="mask0_296_11527" style="mask-type:luminance" maskUnits="userSpaceOnUse" x="0" y="0" width="400" height="300">
<path d="M0 0H400V300H0V0Z" fill="white"/>
</mask>
<g mask="url(#mask0_296_11527)">
<path fill-rule="evenodd" clip-rule="evenodd" d="M212.791 55.198C276.324 87.734 314.46 93.508 331.23 136.829C348.001 180.15 332.147 234.067 272.105 247.349C212.062 260.632 213.435 278.755 122.815 282.259C32.195 285.764 -3.007 132.51 57.924 80.891C118.854 29.271 149.258 22.661 212.791 55.198Z" fill="#F2F5FF"/>
<mask id="mask1_296_11527" style="mask-type:alpha" maskUnits="userSpaceOnUse" x="16" y="21" width="369" height="260">
<path d="M213.124 43.424C250.941 64.858 335.966 16.684 356.632 32.142C363.679 37.413 390.303 74.852 383.368 109.994C373.729 158.832 330.408 232.593 270.383 247.289C247.612 252.865 225.94 262.96 203.411 269.657C167.392 280.366 128.998 287.434 80.426 267.271C2.164 234.782 -2.61 128.964 58.303 71.851C119.215 14.74 149.61 7.42501 213.124 43.424Z" fill="white"/>
</mask>
<g mask="url(#mask1_296_11527)">
<mask id="mask2_296_11527" style="mask-type:alpha" maskUnits="userSpaceOnUse" x="20" y="25" width="363" height="273">
<path d="M382.201 89.701L174.369 297.534L110.276 233.442L110.436 233.281L20.05 142.897L84.142 78.805L174.528 169.189L318.109 25.609L382.201 89.701Z" fill="white"/>
</mask>
<g mask="url(#mask2_296_11527)">
<path d="M382.201 89.701L174.369 297.534L110.276 233.442L110.436 233.281L20.05 142.897L84.142 78.805L174.528 169.189L318.109 25.609L382.201 89.701Z" fill="#436FFF"/>
<path d="M161.472 -47.473C164.224 18.1 186.273 58.509 227.62 73.75C268.967 88.991 326.493 71.181 400.199 20.32" stroke="white" stroke-width="1.32"/>
<path d="M186.223 -46.61C194.686 30.665 168.262 69.514 106.95 69.937C14.982 70.571 83.764 3.14701 114.123 32.042C144.482 60.937 139.829 121.045 89.505 160.597C55.955 186.965 18.345 199.421 -23.327 197.966M368.085 171.203C232.677 157.695 123.339 202.262 40.07 304.905" stroke="white" stroke-width="1.32"/>
<path d="M11.938 157.754C100.126 184.726 155.818 235.393 179.014 309.756" stroke="white" stroke-width="1.32"/>
<path d="M371.068 85.792C308.908 143.654 266.37 159.623 243.454 133.698C209.08 94.812 278.284 67.552 287.164 101.544C296.045 135.535 241.355 160.355 169.37 169.73C121.379 175.98 63.71 208.639 -3.63904 267.706M230.35 311.549C223.352 258.834 235.879 231.126 267.929 228.426C299.979 225.726 334.976 241.02 372.919 274.31" stroke="white" stroke-width="1.32"/>
<path d="M369.708 124.752C310.913 178.199 284.167 244.552 289.47 323.811" stroke="white" stroke-width="1.32"/>
<path d="M14.535 83.396C153.978 116.674 261.494 197.367 337.082 325.473" stroke="white" stroke-width="1.32"/>
<path d="M70.865 -50.638C27.635 -43.354 11.125 -25.593 21.335 2.647C36.652 45.007 95.712 126.16 12.664 136.977M9.38898 230.749C41.074 281.738 76.057 295.43 114.338 271.826C171.759 236.419 191.057 229.327 214.175 237.9C229.587 243.616 242.916 268.443 254.162 312.381" stroke="white" stroke-width="1.32"/>
</g>
</g>
<mask id="mask3_296_11527" style="mask-type:alpha" maskUnits="userSpaceOnUse" x="30" y="-25" width="347" height="323">
<path d="M376.352 95.782L175.483 297.482L118.765 242.515L118.934 242.346L30.52 153.933L77.801 67.795L173.563 -24.154L331.95 29.331L376.352 95.782Z" fill="white"/>
</mask>
<g mask="url(#mask3_296_11527)">
<path fill-rule="evenodd" clip-rule="evenodd" d="M331.988 139.996L289.336 145.16L275.871 271.986L302.834 268.578L312.983 164.069L333.654 260.314L361.051 255.47L331.988 139.996Z" fill="white" stroke="#01133B" stroke-width="1.32" stroke-linecap="round" stroke-linejoin="round"/>
<path d="M299.797 144.766C299.871 148.051 298.848 151.267 296.89 153.906C294.932 156.545 292.151 158.456 288.986 159.338L288.068 159.594" stroke="#01133B" stroke-width="1.32" stroke-linecap="round" stroke-linejoin="round"/>
<path d="M302.128 144.361C302.218 148.227 301.018 152.014 298.719 155.123C296.42 158.233 293.151 160.49 289.428 161.537L288.523 161.792" stroke="#01133B" stroke-width="0.521" stroke-linecap="round" stroke-linejoin="round" stroke-dasharray="1.56 1.56"/>
<path d="M322.355 142.135C323.03 145.381 324.766 148.31 327.289 150.459C329.813 152.609 332.98 153.858 336.292 154.008L337.252 154.051" stroke="#01133B" stroke-width="1.32" stroke-linecap="round" stroke-linejoin="round"/>
<path d="M319.971 142.266C320.763 146.087 322.802 149.536 325.768 152.071C328.734 154.606 332.459 156.082 336.356 156.269L337.304 156.314" stroke="#01133B" stroke-width="0.521" stroke-linecap="round" stroke-linejoin="round" stroke-dasharray="1.56 1.56"/>
<path d="M310.884 143.484L312.994 164.068M306.864 143.624L308.289 159.602C308.387 160.699 308.843 161.732 309.587 162.544C310.332 163.355 311.323 163.898 312.407 164.089" stroke="#01133B" stroke-width="1.32" stroke-linecap="round" stroke-linejoin="round"/>
<path fill-rule="evenodd" clip-rule="evenodd" d="M320.648 32.37C317.153 29.335 311.419 30.155 308.578 34.572C307.212 36.694 306.837 38.936 307.455 41.296C305.325 40.517 302.871 40.224 299.969 40.436C291.889 41.025 284.792 47.346 285.428 56.08C286.064 64.813 274.374 64.981 270.447 73.567C268.645 77.51 270.047 81.573 271.036 85.501L271.165 86.024C272.236 90.462 272.569 94.714 266.896 98.409C259.628 103.143 255.787 108.986 255.371 115.938L358.328 102.652C357.732 95.068 353.825 90.207 346.606 88.069C340.881 86.373 340.078 81.773 339.209 76.712L339.094 76.05C338.344 71.73 337.39 67.155 333.193 63.815C323.828 56.366 320.28 56.802 316.469 49.985C315.681 48.575 314.858 47.315 313.978 46.207L314.007 46.206C317.98 46.005 321.025 43.223 321.848 42.141C323.789 39.591 324.143 35.405 320.648 32.37Z" fill="#01133B"/>
<path fill-rule="evenodd" clip-rule="evenodd" d="M336.172 90.828L371.082 122.293L374.702 191.238L353.235 192.361L344.787 136.369L332.121 121.831L333.878 139.981L288.956 144.843L284.479 123.095L269.149 141.973C263.393 149.061 252.979 150.141 245.889 144.384C245.046 143.7 244.273 142.934 243.58 142.098L195.368 83.926L226.888 70.442L260.456 111.952L275.628 95.017C277.78 92.6146 280.662 90.9869 283.831 90.385L304.061 86.543L326.659 87.05C330.18 87.13 333.556 88.47 336.172 90.828Z" fill="white" stroke="#01133B" stroke-width="1.32" stroke-linecap="round" stroke-linejoin="round"/>
<path fill-rule="evenodd" clip-rule="evenodd" d="M213.264 105.678L192.941 78.708C192.294 77.8495 192.014 76.7691 192.164 75.7044C192.313 74.6398 192.88 73.6781 193.738 73.031C194.597 72.3839 195.677 72.1043 196.742 72.2537C197.806 72.4032 198.768 72.9695 199.415 73.828L209.577 87.314" fill="white"/>
<path d="M213.264 105.678L192.941 78.708C192.294 77.8495 192.014 76.7691 192.164 75.7044C192.313 74.6398 192.88 73.6781 193.738 73.031C194.597 72.3839 195.677 72.1043 196.742 72.2537C197.806 72.4032 198.768 72.9695 199.415 73.828L209.577 87.314" stroke="#01133B" stroke-width="1.32" stroke-linecap="round" stroke-linejoin="round"/>
<path fill-rule="evenodd" clip-rule="evenodd" d="M209.575 87.314L199.414 73.83C198.767 72.9715 198.488 71.8912 198.638 70.8268C198.787 69.7623 199.354 68.8009 200.212 68.154C201.071 67.5072 202.151 67.2278 203.215 67.3775C204.28 67.5272 205.241 68.0935 205.888 68.952L216.049 82.437" fill="white"/>
<path d="M209.575 87.314L199.414 73.83C198.767 72.9715 198.488 71.8912 198.638 70.8268C198.787 69.7623 199.354 68.8009 200.212 68.154C201.071 67.5072 202.151 67.2278 203.215 67.3775C204.28 67.5272 205.241 68.0935 205.888 68.952L216.049 82.437" stroke="#01133B" stroke-width="1.32" stroke-linecap="round" stroke-linejoin="round"/>
<path fill-rule="evenodd" clip-rule="evenodd" d="M216.048 82.437L205.887 68.952C205.24 68.0935 204.961 67.0131 205.11 65.9486C205.26 64.884 205.826 63.9225 206.685 63.2755C207.543 62.6285 208.623 62.349 209.688 62.4986C210.752 62.6482 211.714 63.2145 212.361 64.073L222.522 77.558" fill="white"/>
<path d="M216.048 82.437L205.887 68.952C205.24 68.0935 204.961 67.0131 205.11 65.9486C205.26 64.884 205.826 63.9225 206.685 63.2755C207.543 62.6285 208.623 62.349 209.688 62.4986C210.752 62.6482 211.714 63.2145 212.361 64.073L222.522 77.558" stroke="#01133B" stroke-width="1.32" stroke-linecap="round" stroke-linejoin="round"/>
<path fill-rule="evenodd" clip-rule="evenodd" d="M222.522 77.56L212.36 64.074C212.04 63.6488 211.806 63.1648 211.673 62.6494C211.54 62.1341 211.51 61.5976 211.584 61.0705C211.658 60.5434 211.835 60.0361 212.106 59.5776C212.376 59.119 212.734 58.7182 213.159 58.398C214.021 57.7488 215.103 57.4658 216.172 57.6103C217.241 57.7549 218.21 58.3153 218.868 59.17L240.8 87.65" fill="white"/>
<path d="M222.522 77.56L212.36 64.074C212.04 63.6488 211.806 63.1648 211.673 62.6494C211.54 62.1341 211.51 61.5976 211.584 61.0705C211.658 60.5434 211.835 60.0361 212.106 59.5776C212.376 59.119 212.734 58.7182 213.159 58.398C214.021 57.7488 215.103 57.4658 216.172 57.6103C217.241 57.7549 218.21 58.3153 218.868 59.17L240.8 87.65" stroke="#01133B" stroke-width="1.32" stroke-linecap="round" stroke-linejoin="round"/>
<path fill-rule="evenodd" clip-rule="evenodd" d="M229.361 76.123L228.627 70.137C228.496 69.0715 228.795 67.9978 229.456 67.1521C230.117 66.3063 231.087 65.7577 232.152 65.627C233.225 65.4951 234.306 65.789 235.165 66.4456C236.023 67.1022 236.59 68.0692 236.744 69.139L239.232 86.502" fill="white"/>
<path d="M229.361 76.123L228.627 70.137C228.496 69.0715 228.795 67.9978 229.456 67.1521C230.117 66.3063 231.087 65.7577 232.152 65.627C233.225 65.4951 234.306 65.789 235.165 66.4456C236.023 67.1022 236.59 68.0692 236.744 69.139L239.232 86.502" stroke="#01133B" stroke-width="1.32" stroke-linecap="round" stroke-linejoin="round"/>
<path fill-rule="evenodd" clip-rule="evenodd" d="M311.431 87.36L309.873 74.688L295.827 76.41L297.338 88.751" fill="white"/>
<path d="M311.431 87.36L309.873 74.688L295.827 76.41L297.338 88.751" stroke="#01133B" stroke-width="1.32" stroke-linecap="round" stroke-linejoin="round"/>
<mask id="mask4_296_11527" style="mask-type:alpha" maskUnits="userSpaceOnUse" x="295" y="74" width="16" height="17">
<path d="M309.872 74.688L295.827 76.409L296.813 84.432C297.041 86.2946 298 87.9902 299.479 89.1458C300.957 90.3014 302.834 90.8224 304.697 90.594C306.56 90.3657 308.255 89.4067 309.411 87.9282C310.566 86.4497 311.087 84.5726 310.859 82.71L309.872 74.687V74.688Z" fill="white"/>
</mask>
<g mask="url(#mask4_296_11527)">
<path d="M297.93 85.459C287.695 86.714 278.452 80.046 277.287 70.566C276.122 61.086 283.475 52.382 293.71 51.127C303.946 49.872 313.188 56.539 314.353 66.02C315.519 75.5 308.166 84.203 297.93 85.459Z" fill="#01133B"/>
</g>
<path d="M285.881 57.362C284.823 48.749 290.944 40.912 299.553 39.856C308.163 38.8 316.001 44.926 317.059 53.538L317.933 60.651C318.992 69.263 312.871 77.101 304.261 78.157C295.652 79.213 287.814 73.087 286.755 64.475L285.881 57.362Z" fill="#01133B"/>
<path fill-rule="evenodd" clip-rule="evenodd" d="M287.304 59.14L288.479 68.694C289.371 75.95 295.974 81.111 303.228 80.221C310.481 79.331 315.638 72.728 314.746 65.473L313.572 55.918C312.68 48.662 306.077 43.501 298.823 44.391C291.57 45.281 286.413 51.885 287.304 59.14Z" fill="white" stroke="#01133B" stroke-width="1.32" stroke-linecap="round" stroke-linejoin="round"/>
<mask id="mask5_296_11527" style="mask-type:alpha" maskUnits="userSpaceOnUse" x="287" y="44" width="28" height="36">
<path d="M287.305 59.138L288.334 67.499C289.226 74.756 295.829 79.917 303.082 79.029C310.335 78.139 315.491 71.536 314.599 64.279L313.57 55.919C312.678 48.662 306.075 43.501 298.822 44.389C291.569 45.279 286.413 51.881 287.305 59.138Z" fill="white"/>
</mask>
<g mask="url(#mask5_296_11527)">
<path fill-rule="evenodd" clip-rule="evenodd" d="M289.789 38.597L289.682 38.592C286.638 38.484 275.574 42.695 271.614 51.311C267.645 59.947 270.278 69.915 274.333 69.388C276.725 69.0755 279.045 68.3547 281.193 67.257C286.98 64.307 290.826 59.057 292.184 53.187C296.606 57.441 303.903 59.88 310.587 60.207C314.242 60.385 316.453 60.538 318.788 60.255C323.508 59.682 315.653 43.029 308.367 34.872C303.283 29.181 293.492 33.845 289.789 38.597Z" fill="#01133B"/>
</g>
<mask id="mask6_296_11527" style="mask-type:alpha" maskUnits="userSpaceOnUse" x="299" y="70" width="8" height="6">
<path d="M306.496 70.76L299.553 73.072C300.704 75.247 302.259 75.999 304.216 75.33C306.174 74.662 306.934 73.138 306.496 70.76Z" fill="white"/>
</mask>
<g mask="url(#mask6_296_11527)">
<path d="M306.496 70.76L299.552 73.072C300.704 75.247 302.259 75.999 304.216 75.33C306.174 74.662 306.933 73.138 306.496 70.76Z" fill="white" stroke="#01133B" stroke-linecap="round" stroke-linejoin="round"/>
<path d="M304.434 77.502C302.746 77.709 301.258 76.898 301.109 75.692C300.961 74.485 302.209 73.34 303.897 73.132C305.585 72.926 307.074 73.736 307.222 74.942C307.371 76.149 306.122 77.295 304.434 77.502Z" fill="#01133B"/>
</g>
<path d="M299.123 64.964L298.996 68.398L300.883 68.488" stroke="#01133B" stroke-width="1.32" stroke-linecap="round" stroke-linejoin="round"/>
<path d="M306.71 64.168C305.171 64.356 303.822 63.678 303.696 62.651C303.569 61.625 304.715 60.641 306.253 60.451C307.792 60.263 309.142 60.941 309.268 61.968C309.394 62.994 308.249 63.979 306.71 64.168Z" stroke="#01133B" stroke-width="0.802" stroke-linecap="round" stroke-linejoin="round"/>
<path d="M306.71 64.168C305.787 64.281 304.936 63.541 304.81 62.514C304.684 61.488 305.33 60.564 306.253 60.452C307.177 60.338 308.027 61.078 308.153 62.105C308.28 63.131 307.633 64.055 306.71 64.168Z" fill="#01133B"/>
<path d="M292.38 65.928C290.841 66.116 289.491 65.438 289.365 64.411C289.239 63.385 290.384 62.4 291.923 62.211C293.461 62.023 294.811 62.701 294.937 63.728C295.063 64.754 293.918 65.739 292.38 65.928Z" stroke="#01133B" stroke-width="0.802" stroke-linecap="round" stroke-linejoin="round"/>
<path d="M292.38 65.927C291.457 66.04 290.606 65.3 290.48 64.274C290.354 63.248 291 62.324 291.923 62.211C292.846 62.098 293.697 62.838 293.823 63.864C293.949 64.891 293.303 65.814 292.38 65.927Z" fill="#01133B"/>
<path fill-rule="evenodd" clip-rule="evenodd" d="M313.275 62.039L315.395 61.869L314.706 69.85L313.065 70.244L313.275 62.039Z" fill="white"/>
<path fill-rule="evenodd" clip-rule="evenodd" d="M313.841 61.61L315.368 61.32C315.846 61.2293 316.339 61.2495 316.808 61.3792C317.277 61.5089 317.71 61.7445 318.074 62.0679C318.438 62.3914 318.722 62.794 318.906 63.2448C319.09 63.6956 319.167 64.1825 319.133 64.668C319.049 65.8804 318.6 67.0389 317.845 67.9918C317.091 68.9447 316.067 69.6475 314.906 70.008L314.144 70.244" fill="white"/>
<path d="M313.841 61.61L315.368 61.32C315.846 61.2293 316.339 61.2495 316.808 61.3792C317.277 61.5089 317.71 61.7445 318.074 62.0679C318.438 62.3914 318.722 62.794 318.906 63.2448C319.09 63.6956 319.167 64.1825 319.133 64.668C319.049 65.8804 318.6 67.0389 317.845 67.9918C317.091 68.9447 316.067 69.6475 314.906 70.008L314.144 70.244M315.735 64.144L315.829 66.832M315.794 65.834L317.014 64.776" stroke="#01133B" stroke-width="1.32" stroke-linecap="round" stroke-linejoin="round"/>
<path d="M315.384 68.399L312.961 79.337L320.384 78.427L315.384 68.399ZM290.304 71.48L287.881 82.417L295.304 81.507L290.304 71.479V71.48Z" stroke="white" stroke-width="0.88" stroke-linejoin="round"/>
<path fill-rule="evenodd" clip-rule="evenodd" d="M317.015 86.495L326.319 180.639L341.185 178.309L345.573 139.397L366.298 115.94L340.056 90.68C337.27 87.9972 333.553 86.498 329.685 86.497L317.015 86.495Z" fill="#EDEEF2" stroke="#01133B" stroke-width="1.32" stroke-linejoin="round"/>
<path fill-rule="evenodd" clip-rule="evenodd" d="M324.093 87.313L321.382 103.178L328.981 108.978C330.456 110.104 331.577 111.63 332.21 113.375C332.843 115.119 332.961 117.009 332.551 118.819L324.104 156.058" fill="#EDEEF2"/>
<path d="M324.093 87.313L321.382 103.178L328.981 108.978C330.456 110.104 331.577 111.63 332.21 113.375C332.843 115.119 332.961 117.009 332.551 118.819L324.104 156.058M335.617 126.524L337.503 135.787" stroke="#01133B" stroke-width="1.32" stroke-linecap="round" stroke-linejoin="round"/>
<path fill-rule="evenodd" clip-rule="evenodd" d="M290.235 89.086L293.563 190.737L272.482 206.534L275.173 144.77L269.935 148.979C261.668 155.623 249.672 154.753 242.445 146.984L209.989 112.093L240.792 80.966L261.37 108.483L269.618 98.234C272.707 94.3967 277.04 91.7605 281.868 90.782L290.235 89.086Z" fill="#EDEEF2" stroke="#01133B" stroke-width="1.32" stroke-linejoin="round"/>
<path fill-rule="evenodd" clip-rule="evenodd" d="M281.276 90.79L287.969 106.278L280.501 112.104C278.919 113.339 277.76 115.035 277.184 116.957C276.608 118.88 276.644 120.934 277.286 122.835L292.835 168.868" fill="#EDEEF2"/>
<path d="M281.276 90.79L287.969 106.278L280.501 112.104C278.919 113.339 277.76 115.035 277.184 116.957C276.608 118.88 276.644 120.934 277.286 122.835L292.835 168.868" stroke="#01133B" stroke-width="1.32" stroke-linecap="round" stroke-linejoin="round"/>
<path fill-rule="evenodd" clip-rule="evenodd" d="M207.045 112.98L240.793 79.335L246.885 85.561L226.833 135.79L207.045 112.98Z" fill="#EDEEF2" stroke="#01133B" stroke-width="1.32" stroke-linejoin="round"/>
<path fill-rule="evenodd" clip-rule="evenodd" d="M230.481 134.339L229.82 133.719L228.076 132.087L245.803 88.135L246.415 88.672L230.481 134.339Z" fill="#01133B"/>
<path d="M275.652 136.385L275.178 144.766M290.463 94.947C293.89 104.512 298.707 109.096 304.915 108.7C311.123 108.303 315.259 102.387 317.324 90.95" stroke="#01133B" stroke-width="1.32" stroke-linecap="round" stroke-linejoin="round"/>
<path fill-rule="evenodd" clip-rule="evenodd" d="M130.673 208.286L66.805 200.13L58.261 248.624L124.916 259.486L130.673 208.286Z" fill="white" stroke="#01133B" stroke-width="1.32" stroke-linecap="round" stroke-linejoin="round"/>
<path d="M94.789 205.364L93.629 218.005M115.598 209.762C115.002 213.826 115.773 217.972 117.791 221.55C119.81 225.127 122.96 227.932 126.746 229.523L127.588 229.876" stroke="#01133B" stroke-width="1.32" stroke-linecap="round" stroke-linejoin="round"/>
<path d="M112.209 209.109C110.786 218.795 116.085 228.213 125.097 232.017L125.925 232.367" stroke="#01133B" stroke-width="0.753" stroke-linecap="round" stroke-linejoin="round" stroke-dasharray="2.26 2.26"/>
<path d="M99.1531 206.082L97.6901 223.901" stroke="#01133B" stroke-width="1.32" stroke-linejoin="round"/>
<path fill-rule="evenodd" clip-rule="evenodd" d="M8.992 210.647L44.946 217.871L61.828 199.801L131.141 210.611L137.084 175.195L171.498 179.167C186.461 180.894 199.998 170.159 201.733 155.189L201.74 155.127L210.475 78.243L170.67 76.486L162.603 135.996L107.399 125.942L74.331 124.272C71.6831 124.139 69.0465 124.702 66.6843 125.906C64.322 127.11 62.3166 128.912 60.868 131.132L8.992 210.647Z" fill="white" stroke="#01133B" stroke-width="1.32" stroke-linecap="round" stroke-linejoin="round"/>
<path fill-rule="evenodd" clip-rule="evenodd" d="M167.408 100.472L172.318 59.632C172.476 58.3151 173.15 57.1147 174.192 56.2947C175.235 55.4747 176.56 55.1022 177.877 55.259L177.89 55.261C178.543 55.3413 179.173 55.5494 179.746 55.8735C180.318 56.1975 180.821 56.6312 181.226 57.1496C181.63 57.6681 181.929 58.2612 182.104 58.8951C182.28 59.529 182.329 60.1912 182.248 60.844L182.247 60.849L179.696 81.445" fill="white"/>
<path d="M167.408 100.472L172.318 59.632C172.476 58.3151 173.15 57.1147 174.192 56.2947C175.235 55.4747 176.56 55.1022 177.877 55.259L177.89 55.261C178.543 55.3413 179.173 55.5494 179.746 55.8735C180.318 56.1975 180.821 56.6312 181.226 57.1496C181.63 57.6681 181.929 58.2612 182.104 58.8951C182.28 59.529 182.329 60.1912 182.248 60.844L182.247 60.849L179.696 81.445" stroke="#01133B" stroke-width="1.32" stroke-linecap="round" stroke-linejoin="round"/>
<path fill-rule="evenodd" clip-rule="evenodd" d="M205.798 87.681L210.279 81.709C211.069 80.6552 212.245 79.9583 213.549 79.7717C214.853 79.5851 216.177 79.9241 217.231 80.714L217.248 80.727C218.304 81.5269 219 82.7126 219.184 84.0245C219.368 85.3363 219.024 86.6676 218.229 87.727L206.696 103.1" fill="white"/>
<path d="M205.798 87.681L210.279 81.709C211.069 80.6552 212.245 79.9583 213.549 79.7717C214.853 79.5851 216.177 79.9241 217.231 80.714L217.248 80.727C218.304 81.5269 219 82.7126 219.184 84.0245C219.368 85.3363 219.024 86.6676 218.229 87.727L206.696 103.1" stroke="#01133B" stroke-width="1.32" stroke-linecap="round" stroke-linejoin="round"/>
<path fill-rule="evenodd" clip-rule="evenodd" d="M179.701 81.45L182.237 60.687C182.315 60.0509 182.517 59.4364 182.834 58.8791C183.15 58.3217 183.573 57.8325 184.08 57.4397C184.586 57.0469 185.165 56.7583 185.784 56.5905C186.402 56.4227 187.048 56.379 187.683 56.462C188.974 56.6319 190.146 57.305 190.943 58.3348C191.74 59.3646 192.097 60.6676 191.938 61.96L189.386 82.705" fill="white"/>
<path d="M179.701 81.45L182.237 60.687C182.315 60.0509 182.517 59.4364 182.834 58.8791C183.15 58.3217 183.573 57.8325 184.08 57.4397C184.586 57.0469 185.165 56.7583 185.784 56.5905C186.402 56.4227 187.048 56.379 187.683 56.462C188.974 56.6319 190.146 57.305 190.943 58.3348C191.74 59.3646 192.097 60.6676 191.938 61.96L189.386 82.705" stroke="#01133B" stroke-width="1.32" stroke-linecap="round" stroke-linejoin="round"/>
<path fill-rule="evenodd" clip-rule="evenodd" d="M189.392 82.708L191.935 62.039C192.014 61.3936 192.221 60.7703 192.543 60.2052C192.865 59.6402 193.295 59.1446 193.81 58.7472C194.325 58.3497 194.913 58.0584 195.541 57.89C196.169 57.7215 196.825 57.6794 197.469 57.766C198.781 57.9437 199.971 58.6316 200.779 59.6804C201.588 60.7293 201.95 62.0547 201.788 63.369L199.24 84.08" fill="white"/>
<path d="M189.392 82.708L191.935 62.039C192.014 61.3936 192.221 60.7703 192.543 60.2052C192.865 59.6402 193.295 59.1446 193.81 58.7472C194.325 58.3497 194.913 58.0584 195.541 57.89C196.169 57.7215 196.825 57.6794 197.469 57.766C198.781 57.9437 199.971 58.6316 200.779 59.6804C201.588 60.7293 201.95 62.0547 201.788 63.369L199.24 84.08" stroke="#01133B" stroke-width="1.32" stroke-linecap="round" stroke-linejoin="round"/>
<path fill-rule="evenodd" clip-rule="evenodd" d="M199.251 84.083L201.772 63.583C201.939 62.2231 202.639 60.985 203.718 60.1408C204.798 59.2967 206.168 58.9155 207.528 59.081L207.547 59.084C208.917 59.2577 210.163 59.9641 211.016 61.0503C211.869 62.1365 212.259 63.515 212.103 64.887L207.154 108.485" fill="white"/>
<path d="M199.251 84.083L201.772 63.583C201.939 62.2231 202.639 60.985 203.718 60.1408C204.798 59.2967 206.168 58.9155 207.528 59.081L207.547 59.084C208.917 59.2577 210.163 59.9641 211.016 61.0503C211.869 62.1365 212.259 63.515 212.103 64.887L207.154 108.485" stroke="#01133B" stroke-width="1.32" stroke-linecap="round" stroke-linejoin="round"/>
<path fill-rule="evenodd" clip-rule="evenodd" d="M90.869 125.065L70.852 239.802L3.00403 202.152L57.21 130.135C58.7252 128.121 60.7114 126.51 62.9943 125.442C65.2772 124.375 67.7871 123.884 70.304 124.012L90.869 125.065Z" fill="#EDEEF2" stroke="#01133B" stroke-width="1.32" stroke-linejoin="round"/>
<path fill-rule="evenodd" clip-rule="evenodd" d="M80.1721 124.584L82.1561 143.884L75.7221 147.492C73.8455 148.544 72.3185 150.124 71.3296 152.035C70.3408 153.945 69.9335 156.104 70.1581 158.244L74.8981 203.417" fill="#EDEEF2"/>
<path d="M80.1721 124.584L82.1561 143.884L75.7221 147.492C73.8455 148.544 72.3185 150.124 71.3296 152.035C70.3408 153.945 69.9335 156.104 70.1581 158.244L74.8981 203.417" stroke="#01133B" stroke-width="1.32" stroke-linejoin="round"/>
<path d="M64.098 176.052L60.143 188.325" stroke="#01133B" stroke-width="1.32" stroke-linecap="round" stroke-linejoin="round"/>
<path fill-rule="evenodd" clip-rule="evenodd" d="M120.542 127.865L115.336 220.029C115.103 224.141 115.944 228.243 117.775 231.932C119.606 235.621 122.365 238.77 125.781 241.071L136.002 247.952L138.691 176.058L173.675 180.65C187.595 182.477 200.45 172.896 202.687 159.027L211.504 104.361L163.804 96.737L159.601 134.591L120.542 127.865Z" fill="#EDEEF2" stroke="#01133B" stroke-width="1.32" stroke-linejoin="round"/>
<path d="M138.634 163.511L138.629 177.275M131.172 129.798L124.053 146.966L131.984 156.585C133.161 158.013 133.924 159.737 134.19 161.569C134.456 163.4 134.214 165.27 133.492 166.974L115.784 208.764" stroke="#01133B" stroke-width="1.32" stroke-linecap="round" stroke-linejoin="round"/>
<path fill-rule="evenodd" clip-rule="evenodd" d="M161.998 95.739L159.258 112.28L211.756 126.525L213.148 104.375L161.998 95.739Z" fill="#EDEEF2" stroke="#01133B" stroke-width="1.32" stroke-linejoin="round"/>
<path fill-rule="evenodd" clip-rule="evenodd" d="M161.871 114.292L207.482 128.135L208.119 125.809L161.871 113.079V114.292Z" fill="#01133B"/>
<path d="M89.908 131.118L104.859 148.813L120.102 134.36" stroke="#01133B" stroke-width="1.32" stroke-linecap="round" stroke-linejoin="round"/>
<path fill-rule="evenodd" clip-rule="evenodd" d="M98.1 126.717L100.615 108.849L116.985 111.147L114.471 129.015" fill="white"/>
<path d="M98.1 126.717L100.615 108.849L116.985 111.147L114.471 129.015" stroke="#01133B" stroke-width="1.378" stroke-linecap="round" stroke-linejoin="round"/>
<mask id="mask7_296_11527" style="mask-type:alpha" maskUnits="userSpaceOnUse" x="98" y="108" width="19" height="27">
<path d="M100.617 108.849L116.986 111.146L114.642 127.798C114.005 132.32 109.825 135.472 105.305 134.838C100.785 134.204 97.636 130.023 98.273 125.501L100.617 108.849Z" fill="white"/>
</mask>
<g mask="url(#mask7_296_11527)">
<path d="M114.002 120.059C124.214 121.492 133.571 114.985 134.902 105.526C136.234 96.066 129.035 87.236 118.823 85.804C108.612 84.37 99.254 90.877 97.923 100.336C96.592 109.795 103.791 118.625 114.002 120.059Z" fill="#01133B"/>
</g>
<path fill-rule="evenodd" clip-rule="evenodd" d="M113.915 74.993C121.904 76.113 127.468 83.502 126.344 91.494C126.318 91.678 126.288 91.862 126.255 92.045L125.185 97.995C123.751 105.963 116.279 111.376 108.265 110.252C100.338 109.139 94.816 101.808 95.932 93.878L96.772 87.918C97.94 79.615 105.615 73.828 113.915 74.993Z" fill="#01133B"/>
<path fill-rule="evenodd" clip-rule="evenodd" d="M124.477 94.298L123.135 103.831C122.116 111.071 115.424 116.116 108.188 115.101C100.952 114.085 95.912 107.393 96.93 100.153L98.272 90.62C99.291 83.38 105.983 78.335 113.219 79.35C120.455 80.366 125.496 87.058 124.477 94.298Z" fill="white" stroke="#01133B" stroke-width="1.32" stroke-linecap="round" stroke-linejoin="round"/>
<path fill-rule="evenodd" clip-rule="evenodd" d="M104.427 77.373C100.98 74.568 98.064 75.41 95.677 79.898C93.915 83.21 93.045 89.445 95.671 100.246C95.781 100.694 97.081 95.377 97.489 94.993C100.578 92.08 102.996 88.663 104.743 84.741C106.721 80.301 106.615 77.846 104.427 77.373Z" fill="#01133B"/>
<path fill-rule="evenodd" clip-rule="evenodd" d="M97.628 95.258L96.139 94.81C95.673 94.67 95.1811 94.6388 94.7012 94.7188C94.2212 94.7989 93.766 94.988 93.3706 95.2716C92.9752 95.5552 92.6502 95.9258 92.4206 96.3547C92.1909 96.7837 92.0628 97.2597 92.046 97.746C92.0032 98.9603 92.3282 100.159 92.9785 101.186C93.6287 102.212 94.5739 103.018 95.69 103.498L96.4241 103.813L97.628 95.258Z" fill="white" stroke="#01133B" stroke-width="1.32" stroke-linecap="round" stroke-linejoin="round"/>
<path d="M95.48 97.58L95.105 100.244M95.244 99.254L94.14 98.074M112.07 99.442L112.136 102.878L110.248 102.935" stroke="#01133B" stroke-width="1.32" stroke-linecap="round" stroke-linejoin="round"/>
<path d="M103.218 97.173C104.644 97.373 105.893 96.871 106.008 96.052C106.123 95.232 105.061 94.406 103.636 94.206C102.21 94.006 100.961 94.508 100.846 95.327C100.73 96.147 101.793 96.972 103.218 97.173Z" stroke="#01133B" stroke-width="0.802" stroke-linecap="round" stroke-linejoin="round"/>
<path d="M103.218 97.172C104.073 97.292 104.86 96.726 104.975 95.906C105.091 95.087 104.491 94.326 103.635 94.206C102.78 94.086 101.993 94.653 101.878 95.472C101.763 96.291 102.363 97.052 103.218 97.172Z" fill="#01133B"/>
<path d="M117.516 99.182C118.941 99.382 120.191 98.88 120.306 98.062C120.421 97.242 119.359 96.416 117.933 96.216C116.508 96.016 115.259 96.518 115.144 97.336C115.028 98.156 116.09 98.982 117.516 99.182Z" stroke="#01133B" stroke-width="0.802" stroke-linecap="round" stroke-linejoin="round"/>
<path d="M117.516 99.182C118.371 99.302 119.158 98.735 119.273 97.916C119.388 97.097 118.789 96.336 117.933 96.216C117.078 96.096 116.291 96.663 116.176 97.482C116.061 98.301 116.661 99.062 117.516 99.182Z" fill="#01133B"/>
<path fill-rule="evenodd" clip-rule="evenodd" d="M108.772 77.926C119.275 76.96 126.879 78.48 131.583 82.486C138.64 88.496 129.884 101.087 113.433 94.261C102.465 89.711 100.911 84.265 108.772 77.926Z" fill="#01133B"/>
<path fill-rule="evenodd" clip-rule="evenodd" d="M101.017 79.142C102.581 75.34 115.228 70.459 121.108 73.338C125.027 75.258 123.18 79.75 115.565 86.814C104.824 84.234 99.975 81.677 101.017 79.142Z" fill="#01133B"/>
<mask id="mask8_296_11527" style="mask-type:alpha" maskUnits="userSpaceOnUse" x="104" y="104" width="10" height="7">
<path d="M104.48 104.629L113.411 107.777C111.872 110.565 109.843 111.504 107.326 110.594C104.808 109.685 103.859 107.696 104.48 104.629Z" fill="white"/>
</mask>
<g mask="url(#mask8_296_11527)">
<path d="M104.48 104.629L113.411 107.778C111.872 110.565 109.844 111.504 107.326 110.594C104.808 109.685 103.86 107.696 104.48 104.629Z" fill="white" stroke="#01133B" stroke-linecap="round" stroke-linejoin="round"/>
<path d="M107.064 112.407C109.71 112.778 112.007 112.006 112.194 110.681C112.38 109.357 110.386 107.982 107.739 107.611C105.093 107.24 102.796 108.013 102.609 109.337C102.423 110.661 104.417 112.036 107.064 112.407Z" fill="#01133B"/>
</g>
</g>
<path d="M226.512 53.318C230.38 46.811 234.593 43.893 239.15 44.563C245.986 45.569 238.749 54.42 235.399 50.571C232.049 46.722 235.148 38.982 240.579 36.127C246.01 33.271 249.512 31.544 249.512 27.318M196.512 46.318C196.975 37.937 200.975 31.604 208.512 27.318M137 48C137.153 55.671 141.192 58.8 149.118 57.386C157.043 55.972 162.004 58.843 164 66" stroke="#01133B" stroke-width="4.4" stroke-linejoin="round"/>
</g>
</g>
<defs>
<clipPath id="clip0_296_11527">
<rect width="400" height="300" fill="white"/>
</clipPath>
</defs>
</svg>
