<svg width="51" height="73" viewBox="0 0 51 73" fill="none" xmlns="http://www.w3.org/2000/svg">
<path d="M35.0795 65.2558C35.8724 60.0028 36.3764 56.5936 36.5906 55.0291C36.9482 52.4194 37.463 48.5922 40.7289 45.3994C46.4077 39.8475 49.4476 33.6387 49.7109 26.067C50.1825 12.5177 39.5882 1.14936 26.0484 0.675391C12.5075 0.200441 1.14885 10.8008 0.677254 24.3491C0.383487 32.793 3.86643 39.2516 9.74178 44.9972C12.9713 48.1547 13.0008 52.6278 13.3014 55.2612C13.4478 56.5454 13.7248 59.639 14.1326 64.5429C14.2919 66.4601 15.1485 68.2522 16.5399 69.5794C17.9314 70.9066 19.7611 71.6768 21.6821 71.7438L27.0436 71.9317C28.9681 71.9994 30.8503 71.3566 32.3321 70.1257C33.8138 68.8947 34.7916 67.1615 35.0795 65.2558Z" stroke="#01133B" stroke-width="1.32" stroke-linecap="round" stroke-linejoin="round"/>
<path d="M13.7528 53.8885L36.2658 54.6751M14.6744 31.2266L21.5735 54.1618M37.04 32.0093L28.564 54.4047" stroke="#01133B" stroke-width="1.32" stroke-linecap="round" stroke-linejoin="round"/>
<path d="M14.6766 31.2256C17.8796 31.7605 22.4099 30.141 22.5828 25.1741C22.7557 20.2073 20.2376 18.2357 18.2706 18.7589C16.3036 19.283 13.9525 21.94 17.0956 26.6796C20.2386 31.4193 28.9808 32.6603 33.4188 25.5537C37.8567 18.4472 31.5904 13.5757 27.8745 18.0971C24.1587 22.6185 24.5508 32.8628 37.0423 32.0083" stroke="#436FFF" stroke-width="2.64" stroke-linecap="round" stroke-linejoin="round"/>
<path d="M35.6755 58.7688L14.371 61.2026M35.0231 63.7307L14.6392 66.0592" stroke="#01133B" stroke-width="1.32" stroke-linecap="round" stroke-linejoin="round"/>
</svg>
