<svg width="64" height="57" viewBox="0 0 64 57" fill="none" xmlns="http://www.w3.org/2000/svg">
<path d="M32.8245 3.25051C46.3612 5.21402 55.8283 17.7131 54.0095 31.3052C52.1782 44.9904 39.5997 54.5998 25.9146 52.7686C14.3476 51.2208 5.69315 41.9951 4.39663 30.9129C7.12557 33.0771 10.4546 34.5572 14.1574 35.0527C25.1055 36.5177 35.1684 28.8301 36.6334 17.882C37.3562 12.4803 35.8501 7.29484 32.8245 3.25051Z" fill="#C2D6DD"/>
<path d="M51.8906 32.0306C51.7441 33.1254 51.1816 33.9536 50.6342 33.8803C50.0868 33.8071 49.7618 32.8602 49.9083 31.7653C50.0548 30.6705 50.6173 29.8424 51.1647 29.9156C51.7121 29.9889 52.0371 30.9358 51.8906 32.0306Z" fill="#0F285E" fill-opacity="0.1"/>
<path d="M33.997 32.1664C34.6863 33.656 34.8387 35.0516 34.3375 35.2835C33.8363 35.5155 32.8712 34.4959 32.1819 33.0063C31.4926 31.5167 31.3401 30.1211 31.8414 29.8892C32.3426 29.6572 33.3077 30.6768 33.997 32.1664Z" fill="#0F285E" fill-opacity="0.1"/>
<path d="M39.9651 8.27665C40.3654 8.65712 40.5358 9.12782 40.3455 9.32798C40.1553 9.52814 39.6765 9.38198 39.2762 9.0015C38.8759 8.62103 38.7056 8.15034 38.8958 7.95017C39.086 7.75001 39.5648 7.89618 39.9651 8.27665Z" fill="#0F285E" fill-opacity="0.1"/>
<ellipse cx="36.7226" cy="6.28714" rx="0.25" ry="0.5" transform="rotate(-46.4566 36.7226 6.28714)" fill="#0F285E" fill-opacity="0.02"/>
<ellipse cx="43.3418" cy="9.59927" rx="0.25" ry="0.5" transform="rotate(-46.4566 43.3418 9.59927)" fill="#0F285E" fill-opacity="0.02"/>
<path d="M33.5631 38.4513C33.5631 33.2556 37.775 29.0437 42.9707 29.0437C48.1664 29.0437 52.3783 33.2556 52.3783 38.4513C52.3783 43.647 48.1664 47.8589 42.9707 47.8589C37.775 47.8589 33.5631 43.647 33.5631 38.4513Z" fill="#F2F5FA"/>
<path d="M18.9337 41.0434C18.9337 35.8478 23.1456 31.6359 28.3413 31.6359C33.537 31.6359 37.7489 35.8478 37.7489 41.0434C37.7489 46.2391 33.537 50.451 28.3413 50.451C23.1456 50.451 18.9337 46.2391 18.9337 41.0434Z" fill="#F2F5FA"/>
<path d="M6.93359 46.0435C6.93359 41.0729 10.963 37.0435 15.9336 37.0435H32.9336C37.9042 37.0435 41.9336 41.0729 41.9336 46.0435C41.9336 51.014 37.9042 55.0435 32.9336 55.0435H15.9336C10.963 55.0435 6.93359 51.014 6.93359 46.0435Z" fill="#F2F5FA"/>
<path d="M0 44.6439C0 40.0047 3.76081 36.2439 8.4 36.2439H55.5999C60.2391 36.2439 63.9999 40.0047 63.9999 44.6439C63.9999 49.2831 60.2391 53.0439 55.5999 53.0439H8.39999C3.7608 53.0439 0 49.2831 0 44.6439Z" fill="#F2F5FA"/>
<path d="M1.82898 43.8439C1.82898 39.6465 5.23162 36.2439 9.42898 36.2439H56.4003C60.5976 36.2439 64.0003 39.6465 64.0003 43.8439C64.0003 48.0413 60.5976 51.4439 56.4003 51.4439H9.42898C5.23162 51.4439 1.82898 48.0413 1.82898 43.8439Z" fill="#E6F0FA"/>
<path d="M37.4434 37.8435C37.4434 33.3563 41.0809 29.7188 45.5681 29.7188C50.0553 29.7188 53.6928 33.3563 53.6928 37.8435C53.6928 42.3306 50.0553 45.9682 45.5681 45.9682C41.0809 45.9682 37.4434 42.3306 37.4434 37.8435Z" fill="#E6F0FA"/>
<path d="M36.2147 37.1684C36.2147 32.6813 39.8523 29.0437 44.3395 29.0437C48.8266 29.0437 52.4642 32.6813 52.4642 37.1684C52.4642 41.6556 48.8266 45.2932 44.3395 45.2932C39.8523 45.2932 36.2147 41.6556 36.2147 37.1684Z" fill="#E6F0FA"/>
<path d="M21.5875 40.6437C21.5875 36.1565 25.2251 32.5189 29.7123 32.5189C34.1994 32.5189 37.837 36.1565 37.837 40.6437C37.837 45.1308 34.1994 48.7684 29.7123 48.7684C25.2251 48.7684 21.5875 45.1308 21.5875 40.6437Z" fill="#E6F0FA"/>
<path d="M10.9336 45.5435C10.9336 41.4013 14.2915 38.0435 18.4336 38.0435H34.4336C38.5757 38.0435 41.9336 41.4013 41.9336 45.5435C41.9336 49.6856 38.5757 53.0435 34.4336 53.0435H18.4336C14.2915 53.0435 10.9336 49.6856 10.9336 45.5435Z" fill="#E6F0FA"/>
<path d="M33.5631 38.4513C33.5631 33.2556 37.775 29.0437 42.9707 29.0437C48.1664 29.0437 52.3783 33.2556 52.3783 38.4513C52.3783 43.647 48.1664 47.8589 42.9707 47.8589C37.775 47.8589 33.5631 43.647 33.5631 38.4513Z" fill="#F2F5FA"/>
<path d="M18.9337 41.0434C18.9337 35.8478 23.1456 31.6359 28.3413 31.6359C33.537 31.6359 37.7489 35.8478 37.7489 41.0434C37.7489 46.2391 33.537 50.451 28.3413 50.451C23.1456 50.451 18.9337 46.2391 18.9337 41.0434Z" fill="#F2F5FA"/>
<path d="M6.93359 46.0435C6.93359 41.0729 10.963 37.0435 15.9336 37.0435H32.9336C37.9042 37.0435 41.9336 41.0729 41.9336 46.0435C41.9336 51.014 37.9042 55.0435 32.9336 55.0435H15.9336C10.963 55.0435 6.93359 51.014 6.93359 46.0435Z" fill="#F2F5FA"/>
<path d="M0 44.6439C0 40.0047 3.76081 36.2439 8.4 36.2439H55.5999C60.2391 36.2439 63.9999 40.0047 63.9999 44.6439C63.9999 49.2831 60.2391 53.0439 55.5999 53.0439H8.39999C3.7608 53.0439 0 49.2831 0 44.6439Z" fill="#F2F5FA"/>
<path d="M1.82898 43.8439C1.82898 39.6465 5.23162 36.2439 9.42898 36.2439H56.4003C60.5976 36.2439 64.0003 39.6465 64.0003 43.8439C64.0003 48.0413 60.5976 51.4439 56.4003 51.4439H9.42898C5.23162 51.4439 1.82898 48.0413 1.82898 43.8439Z" fill="#E6F0FA"/>
<path d="M37.4434 37.8435C37.4434 33.3563 41.0809 29.7188 45.5681 29.7188C50.0553 29.7188 53.6928 33.3563 53.6928 37.8435C53.6928 42.3306 50.0553 45.9682 45.5681 45.9682C41.0809 45.9682 37.4434 42.3306 37.4434 37.8435Z" fill="#E6F0FA"/>
<path d="M36.2147 37.1684C36.2147 32.6813 39.8523 29.0437 44.3395 29.0437C48.8266 29.0437 52.4642 32.6813 52.4642 37.1684C52.4642 41.6556 48.8266 45.2932 44.3395 45.2932C39.8523 45.2932 36.2147 41.6556 36.2147 37.1684Z" fill="#E6F0FA"/>
<path d="M21.5875 40.6437C21.5875 36.1565 25.2251 32.5189 29.7123 32.5189C34.1994 32.5189 37.837 36.1565 37.837 40.6437C37.837 45.1308 34.1994 48.7684 29.7123 48.7684C25.2251 48.7684 21.5875 45.1308 21.5875 40.6437Z" fill="#E6F0FA"/>
<path d="M10.9336 45.5435C10.9336 41.4013 14.2915 38.0435 18.4336 38.0435H34.4336C38.5757 38.0435 41.9336 41.4013 41.9336 45.5435C41.9336 49.6856 38.5757 53.0435 34.4336 53.0435H18.4336C14.2915 53.0435 10.9336 49.6856 10.9336 45.5435Z" fill="#E6F0FA"/>
<ellipse cx="8" cy="37.0437" rx="1" ry="2" fill="#0F285E" fill-opacity="0.1"/>
<ellipse cx="47.4386" cy="13.0882" rx="1" ry="2.97196" transform="rotate(-32.453 47.4386 13.0882)" fill="#0F285E" fill-opacity="0.1"/>
<ellipse cx="47.4386" cy="21.0882" rx="1" ry="2.97196" transform="rotate(-32.453 47.4386 21.0882)" fill="#0F285E" fill-opacity="0.1"/>
<ellipse cx="40.736" cy="7.48621" rx="0.5" ry="1" transform="rotate(-54.0783 40.736 7.48621)" fill="#0F285E" fill-opacity="0.1"/>
<ellipse cx="37.5516" cy="5.53937" rx="0.25" ry="0.5" transform="rotate(-54.0783 37.5516 5.53937)" fill="#0F285E" fill-opacity="0.02"/>
<ellipse cx="44.5516" cy="7.9444" rx="0.25" ry="0.5" transform="rotate(-54.0783 44.5516 7.9444)" fill="#0F285E" fill-opacity="0.02"/>
</svg>
