<svg width="245" height="184" viewBox="0 0 245 184" fill="none" xmlns="http://www.w3.org/2000/svg">
<path d="M184.212 13.4934H43.7699V114.873H184.212V13.4934Z" stroke="#DEDFEA" stroke-width="0.882" stroke-miterlimit="10"/>
<path d="M198.845 37.3914H108.564V126.335H198.845V37.3914Z" stroke="#DEDFEA" stroke-width="0.882" stroke-miterlimit="10"/>
<path d="M136.966 161.534L140.313 145.26H126.761L123.359 161.534H136.966Z" fill="white" stroke="black" stroke-width="0.882" stroke-miterlimit="10"/>
<path d="M154.028 94.0559L140.637 158.669H123.196L134.535 94.0559H154.028Z" fill="#DEDFEA" stroke="black" stroke-width="0.882" stroke-miterlimit="10" stroke-linecap="round" stroke-linejoin="round"/>
<path d="M123.359 161.534L112.775 167.103C112.073 167.482 111.588 168.239 111.588 169.049V169.428C111.588 169.752 111.857 170.023 112.181 170.023H137.613C137.937 170.023 138.207 169.698 138.153 169.374L136.965 161.588H123.359V161.534Z" fill="#011819" stroke="black" stroke-width="0.882" stroke-miterlimit="10"/>
<path d="M111.641 169.05H138.099" stroke="black" stroke-width="0.441" stroke-miterlimit="10"/>
<path d="M137.451 160.236L123.952 159.047V158.669L137.613 158.777L137.451 160.236Z" fill="black"/>
<path d="M178.056 149.909L166.123 139.474L157.646 148.558L167.797 158.885L178.056 149.909Z" fill="white" stroke="black" stroke-width="0.882" stroke-miterlimit="10"/>
<path d="M148.358 122.929L146.091 120.928L150.951 92.4342L137.883 88.8113L132.754 122.01C132.106 125.578 133.294 129.255 135.886 131.796L144.417 140.015" fill="black"/>
<path d="M137.936 85.9998L132.807 119.198C132.159 122.767 133.347 126.443 135.938 128.985L161.1 153.208L171.899 141.096L150.355 119.955L155.215 91.4609" fill="#DEDFEA"/>
<path d="M137.936 85.9998L132.807 119.198C132.159 122.767 133.347 126.443 135.938 128.985L161.1 153.208L171.899 141.096L150.355 119.955L155.215 91.4609" stroke="black" stroke-width="0.882" stroke-miterlimit="10" stroke-linecap="round" stroke-linejoin="round"/>
<path d="M165.799 157.1L164.664 165.103L162.775 166.454C161.911 167.103 161.371 168.077 161.371 169.158V169.429C161.371 169.492 161.383 169.556 161.408 169.615C161.432 169.674 161.468 169.728 161.513 169.773C161.558 169.818 161.612 169.854 161.671 169.878C161.73 169.903 161.793 169.915 161.857 169.915H166.231C166.555 169.915 166.879 169.753 167.094 169.536L181.619 153.154C181.781 152.937 181.781 152.613 181.565 152.451L174.6 146.773L165.799 157.1Z" fill="#011819" stroke="black" stroke-width="0.882" stroke-miterlimit="10"/>
<path d="M161.426 169.212H165.962C166.34 169.212 166.664 169.05 166.934 168.78L181.404 152.342" stroke="black" stroke-width="0.441" stroke-miterlimit="10"/>
<path d="M108.617 92.812L116.231 87.5674C116.231 87.5674 117.365 85.6207 118.013 85.2969C118.769 84.9178 121.306 84.9724 121.306 84.9724L137.505 72.5904C138.477 71.9415 139.989 84.648 139.017 85.2969C139.017 85.2969 123.088 100.436 115.799 101.301C114.179 101.517 113.369 100.544 113.639 99.4084C113.639 99.4084 111.911 99.8954 110.831 98.7595C110.075 97.9487 110.453 96.5429 110.453 96.5429C110.075 96.5969 108.726 96.5429 108.293 95.4616C107.753 94.0019 108.617 92.812 108.617 92.812Z" fill="white" stroke="black" stroke-width="0.882" stroke-miterlimit="10" stroke-linecap="round" stroke-linejoin="round"/>
<path d="M113.154 83.0797L116.232 83.6746C117.258 83.8912 118.284 84.3775 118.877 85.189L121.685 88.9193C122.387 89.8926 122.171 91.2444 121.145 91.8933C118.337 93.2451 115.854 88.5408 115.854 88.5408L108.564 92.8121L88.3696 73.1854L91.9338 56.2617L113.154 83.0797ZM171.575 86.2703L174.599 90.325C174.599 90.325 177.623 94.3804 178.811 96.3811C179.837 98.0567 178.163 98.5977 177.623 98.2192C177.623 98.2192 178.811 99.7869 177.839 100.706C177.137 101.355 176.165 101.193 175.625 100.544C175.625 100.544 176.219 101.572 175.139 102.275C174.383 102.761 173.519 102.383 172.925 101.734C171.792 100.436 169.146 97.1379 169.146 97.1379C169.146 97.1379 169.254 99.4625 169.308 100.706C169.362 102.49 167.31 102.815 166.824 101.193C166.338 99.7329 165.744 94.4883 165.744 94.4883L163.962 92.3257L171.575 86.2703Z" fill="white" stroke="black" stroke-width="0.882" stroke-miterlimit="10" stroke-linecap="round" stroke-linejoin="round"/>
<path d="M177.678 98.2192L173.952 93.2451M175.679 100.544L171.899 95.7322M169.201 97.0839C169.201 97.0839 171.523 96.0566 170.605 92.9746" stroke="black" stroke-width="0.882" stroke-miterlimit="10" stroke-linecap="round" stroke-linejoin="round"/>
<path d="M168.503 113.438L188.653 102.668L180.948 88.2151L160.798 98.9852L168.503 113.438Z" fill="white" stroke="black" stroke-width="0.882" stroke-miterlimit="10"/>
<path d="M168.755 110.682L185.665 101.643L180.097 91.1965L163.187 100.235L168.755 110.682Z" fill="#DEDFEA"/>
<path d="M165.103 111.164L168.676 109.254L164.353 101.146L160.781 103.055L165.103 111.164Z" fill="#011819" stroke="black" stroke-width="0.882" stroke-miterlimit="10"/>
<path d="M171.577 86.2703L175.14 91.0279L170.713 93.515C171.091 96.0026 169.201 97.0839 169.201 97.0839C169.201 97.0839 169.309 99.4085 169.363 100.652C169.417 102.436 167.365 102.761 166.879 101.139C166.393 99.679 165.799 94.4343 165.799 94.4343L164.017 92.2717L171.577 86.2703Z" fill="white" stroke="black" stroke-width="0.882" stroke-miterlimit="10" stroke-linecap="round" stroke-linejoin="round"/>
<path d="M169.201 97.0839C169.201 97.0839 171.523 96.0566 170.605 92.9746" stroke="black" stroke-width="0.882" stroke-miterlimit="10" stroke-linecap="round" stroke-linejoin="round"/>
<path d="M71.5234 161.534L73.6298 145.8H87.2365L85.1846 161.534H71.5234ZM49.1151 149.909L61.0478 139.474L71.2527 148.449L59.3739 158.885L49.1145 149.909H49.1151Z" fill="white" stroke="black" stroke-width="0.882" stroke-miterlimit="10"/>
<path d="M140.691 64.048L163.315 93.8394L173.196 86.1617L150.194 55.1804L140.691 64.048Z" fill="#2563EB" stroke="black" stroke-width="0.882" stroke-miterlimit="10" stroke-linecap="round" stroke-linejoin="round"/>
<path d="M142.418 64.3718L156.025 81.4041L155.269 61.5063L150.194 55.1804L142.418 64.3718Z" fill="black"/>
<path d="M91.3942 85.9998L97.0635 119.198C97.7116 122.767 96.5239 126.443 93.9318 128.985L66.61 155.37L55.5955 143.908L76.4915 122.118L74.6013 96.0026" fill="#DEDFEA"/>
<path d="M91.3942 85.9998L97.0635 119.198C97.7116 122.767 96.5239 126.443 93.9318 128.985L66.61 155.37L55.5955 143.908L76.4915 122.118L74.6013 96.0026" stroke="black" stroke-width="0.882" stroke-miterlimit="10" stroke-linecap="round" stroke-linejoin="round"/>
<path d="M72.8722 96.8135L76.3818 122.713L71.1982 158.668H87.0191L93.0663 125.849C93.3903 123.74 93.4988 121.631 93.3364 119.523L92.3644 96.8135H72.8722Z" fill="#DEDFEA" stroke="black" stroke-width="0.882" stroke-miterlimit="10" stroke-linecap="round" stroke-linejoin="round"/>
<path d="M142.311 48.5299C146.694 48.5299 150.248 44.9714 150.248 40.5817C150.248 36.1921 146.694 32.6335 142.311 32.6335C137.927 32.6335 134.373 36.1921 134.373 40.5817C134.373 44.9714 137.927 48.5299 142.311 48.5299Z" fill="white" stroke="black" stroke-width="0.882" stroke-miterlimit="10"/>
<path d="M145.388 33.1747C146.792 33.6611 151.381 36.5805 149.977 42.6906C149.384 45.2322 147.386 46.4754 147.386 46.4754C144.362 45.4481 144.362 41.0683 144.092 41.0683C142.418 41.3388 140.798 39.9336 139.773 37.7704C138.639 35.4459 139.232 33.1207 139.232 33.1207C140.097 32.9042 141.986 32.0388 145.388 33.1747Z" fill="black"/>
<path d="M144.956 43.9881C145.558 43.9881 146.135 43.7489 146.56 43.3229C146.985 42.897 147.224 42.3193 147.224 41.717C147.224 41.1146 146.985 40.5369 146.56 40.111C146.135 39.6851 145.558 39.4458 144.956 39.4458C144.355 39.4458 143.778 39.6851 143.352 40.111C142.927 40.5369 142.688 41.1146 142.688 41.717C142.688 42.3193 142.927 42.897 143.352 43.3229C143.778 43.7489 144.355 43.9881 144.956 43.9881Z" fill="white"/>
<path d="M136.371 35.4997C136.371 35.4997 139.287 34.9587 140.367 33.9854L139.448 33.1746C139.448 33.2285 137.127 34.2025 136.371 35.4997Z" fill="black"/>
<path d="M146.037 41.3926L144.201 41.7176" stroke="black" stroke-width="0.882" stroke-miterlimit="10" stroke-linecap="round" stroke-linejoin="round"/>
<path d="M93.1747 77.5107L102.894 69.4006C102.894 69.4006 94.7408 58.9653 89.719 53.828C87.7216 51.774 84.3198 51.2876 82.6997 51.2876C82.6997 51.2876 83.186 57.5056 81.89 58.0999C77.4083 60.0466 93.1747 77.5107 93.1747 77.5107ZM134.427 94.1639H157.645C157.645 94.1639 154.783 73.7798 154.081 66.643C153.703 62.9121 153.001 59.7761 151.597 57.2891C149.168 52.8553 144.362 49.9352 139.611 51.6115C135.345 53.1258 132.591 57.2351 132.807 61.7229L134.427 94.1639Z" fill="#2563EB" stroke="black" stroke-width="0.882" stroke-miterlimit="10" stroke-linecap="round" stroke-linejoin="round"/>
<path d="M85.1841 161.534L95.7675 167.103C96.4694 167.482 96.9551 168.239 96.9551 169.05V169.428C96.9537 169.586 96.8906 169.736 96.7795 169.847C96.6683 169.958 96.5181 170.021 96.361 170.023H70.9294C70.6054 170.023 70.3352 169.698 70.3891 169.374L71.5774 161.588H85.1841V161.534ZM61.3725 157.1L62.5063 165.103L64.3964 166.454C65.2601 167.103 65.8003 168.077 65.8003 169.158V169.428C65.8006 169.492 65.7883 169.555 65.7639 169.615C65.7396 169.674 65.7038 169.728 65.6586 169.773C65.6134 169.818 65.5596 169.854 65.5005 169.878C65.4413 169.903 65.3779 169.915 65.314 169.915H60.9407C60.6161 169.915 60.2927 169.752 60.0771 169.536L45.5517 153.153C45.39 152.937 45.39 152.613 45.6056 152.45L53.0572 146.557L61.3725 157.1Z" fill="#011819" stroke="black" stroke-width="0.882" stroke-miterlimit="10"/>
<path d="M152.354 44.7451L168.229 50.5847C171.199 51.666 172.333 55.2343 170.551 57.8839C168.715 60.5875 164.72 60.7494 162.722 58.1538L152.354 44.7451ZM73.0884 97.6782L74.7084 98.0567L93.1208 99.1926L93.3909 97.7868L73.0884 97.6782Z" fill="black"/>
<path d="M96.8999 169.049H70.3885M65.7445 169.212H61.209C60.831 169.212 60.507 169.05 60.2369 168.78L45.7666 152.342" stroke="black" stroke-width="0.441" stroke-miterlimit="10"/>
<path d="M71.9008 159.426L85.5613 159.047V158.669H72.0086L71.9008 159.426ZM164.503 92.7041L172.548 87.6754L172.062 87.135L164.503 92.7041Z" fill="black"/>
<path d="M42.1498 169.969H193.013M204.514 169.969H208.617" stroke="black" stroke-width="0.882" stroke-miterlimit="10" stroke-linecap="round" stroke-linejoin="round"/>
<path d="M82.7531 51.2869C76.6519 51.2869 71.684 56.261 71.684 62.371V97.7321H93.7683V62.317C93.8222 56.2616 88.8548 51.2869 82.7531 51.2869Z" fill="#2563EB" stroke="black" stroke-width="0.882" stroke-miterlimit="10" stroke-linecap="round" stroke-linejoin="round"/>
<path d="M76.2201 93.2444L77.2461 78.8078L83.5634 64.0473L71.8463 61.4517L67.2029 73.1847C66.3926 75.1314 65.9608 77.2401 65.7991 79.3487L64.8809 95.353C64.8809 95.353 64.6108 101.355 64.9348 104.058C65.2588 106.654 67.0406 105.734 67.3107 105.031C67.3107 105.031 67.3107 107.519 68.8769 107.681C70.0106 107.789 70.7125 106.87 70.8203 105.897C70.8203 105.897 70.9288 107.411 72.4404 107.357C73.4663 107.303 74.1683 106.167 74.2222 105.356C74.3839 103.355 74.7079 98.1646 74.7079 98.1646C74.7079 98.1646 75.626 99.9488 76.4357 101.193C77.5701 102.923 79.7837 101.895 79.298 99.9494C78.7577 97.8401 76.2201 93.2444 76.2201 93.2444Z" fill="white" stroke="black" stroke-width="0.882" stroke-miterlimit="10" stroke-linecap="round" stroke-linejoin="round"/>
<path d="M67.3107 104.924L67.2568 98.7056M70.821 105.843L70.6587 98.8135" stroke="black" stroke-width="0.882" stroke-miterlimit="10" stroke-linecap="round" stroke-linejoin="round"/>
<path d="M85.8315 63.9934L79.8376 77.6725L66.3926 71.9416L72.8722 57.397" fill="#2563EB"/>
<path d="M85.8315 63.9934L79.8376 77.6725L66.3926 71.9416L72.8722 57.397" stroke="black" stroke-width="0.882" stroke-miterlimit="10" stroke-linecap="round" stroke-linejoin="round"/>
<path d="M67.473 72.6445L77.5701 77.8891L78.0564 77.0783L67.473 72.6445Z" fill="black"/>
<path d="M133.996 61.074L134.428 73.5099L121.739 84.3236L128.812 94.7589L144.849 81.674C146.471 80.1519 147.439 78.0583 147.549 75.8351L147.333 60.3171" fill="#2563EB"/>
<path d="M133.996 61.074L134.428 73.5099L121.739 84.3236L128.812 94.7589L144.849 81.674C146.471 80.1519 147.439 78.0583 147.549 75.8351L147.333 60.3171" stroke="black" stroke-width="0.882" stroke-miterlimit="10" stroke-linecap="round" stroke-linejoin="round"/>
<path d="M49.6554 46.4753H36.75V52.4767H49.6554V46.4753ZM207.7 70.7522H189.342V76.7537H207.7V70.7522ZM58.5109 35.3911H52.0858V41.3926H58.5109V35.3911Z" stroke="black" stroke-width="0.882" stroke-miterlimit="10"/>
<path d="M86.9126 48.0976C91.6539 48.0976 95.4974 44.2484 95.4974 39.4999C95.4974 34.7521 91.6539 30.9028 86.9126 30.9028C82.1706 30.9028 78.3271 34.7521 78.3271 39.4999C78.3271 44.2484 82.1706 48.0976 86.9126 48.0976Z" fill="white" stroke="black" stroke-width="0.882" stroke-miterlimit="10"/>
<path d="M86.9671 31.0113C92.3663 31.0113 94.2564 35.1207 94.2564 35.1207C94.2564 35.1207 92.2585 35.4991 89.2891 35.661C87.1827 35.8235 89.5047 38.3646 87.9391 39.7703C87.7768 39.9329 86.3729 39.7703 85.5093 40.8516C85.2931 41.1221 85.8872 41.9875 85.671 42.3114C84.5912 43.7711 82.8094 44.961 80.6497 45.3934C79.9478 45.5019 79.4076 43.6638 79.2998 43.5552C78.0576 41.5545 78.2739 38.689 78.5434 37.9861C80.5413 30.5789 86.8587 31.0113 86.8587 31.0113H86.9671Z" fill="black"/>
<path d="M87.993 39.7703C87.8307 38.7429 86.967 37.9861 85.8872 37.9861C85.3149 37.9877 84.7664 38.216 84.3617 38.6212C83.9569 39.0264 83.7287 39.5756 83.7269 40.1487C83.7269 41.23 84.5912 42.1494 85.6171 42.2573" fill="white"/>
<path d="M87.993 39.7703C87.8307 38.7429 86.967 37.9861 85.8872 37.9861C85.3149 37.9877 84.7664 38.216 84.3617 38.6212C83.9569 39.0264 83.7287 39.5756 83.7269 40.1487C83.7269 41.23 84.5912 42.1494 85.6171 42.2573" stroke="black" stroke-width="0.882" stroke-miterlimit="10"/>
<path d="M76.3818 122.713L73.5202 124.929L71.1443 150.721L72.5481 149.477L76.3818 122.713Z" fill="black"/>
</svg>
