<svg width="369" height="296" viewBox="0 0 369 296" fill="none" xmlns="http://www.w3.org/2000/svg">
<path d="M90.4104 265.566C15.2549 227.054 20.6074 234.067 20.6074 166.768C-13.1952 115.457 9.83611 19.5643 80.8633 3.84225C151.891 -11.8797 164.624 26.8314 261.017 10.0384C357.41 -6.75458 406.305 139.772 334.227 200.869C262.149 261.967 165.566 304.078 90.4104 265.566Z" fill="#F2F5FF"/>
<mask id="mask0_1238_11838" style="mask-type:alpha" maskUnits="userSpaceOnUse" x="95" y="49" width="183" height="183">
<path d="M186.703 231.435C236.96 231.435 277.703 190.721 277.703 140.5C277.703 90.2771 236.96 49.5647 186.703 49.5647C136.445 49.5647 95.7034 90.2771 95.7034 140.5C95.7034 190.721 136.445 231.435 186.703 231.435Z" fill="white"/>
</mask>
<g mask="url(#mask0_1238_11838)">
<path d="M186.704 231.436C236.96 231.436 277.704 190.722 277.704 140.501C277.704 90.2783 236.96 49.5659 186.704 49.5659C136.445 49.5659 95.7036 90.2783 95.7036 140.501C95.7036 190.722 136.445 231.436 186.704 231.436Z" fill="#2563EB"/>
<mask id="mask1_1238_11838" style="mask-type:alpha" maskUnits="userSpaceOnUse" x="-90" y="-98" width="480" height="479">
<path d="M389.046 -97.8987H-89.2683V380.074H389.046V-97.8987Z" fill="white"/>
</mask>
<g mask="url(#mask1_1238_11838)">
<path d="M389.045 -97.8987H-89.2693V380.074H389.045V-97.8987Z" fill="#2563EB"/>
<path d="M101.682 -97.8987C108.444 -10.1388 139.911 42.9874 196.08 61.4802C252.251 79.9729 328.574 53.4098 425.05 -18.2092" stroke="white" stroke-width="1.32"/>
<path d="M134.921 -97.8987C149.891 5.27605 116.268 58.5817 34.0538 62.0182C-89.268 67.173 -0.172049 -26.4146 41.8992 10.892C83.9722 48.1986 80.5469 128.979 14.9035 184.345C-28.86 221.257 -78.7219 239.712 -134.682 239.712M389.046 185.522C206.797 173.754 62.2341 238.605 -44.6431 380.074" stroke="white" stroke-width="1.32"/>
<path d="M-89.2693 184.165C30.2785 216.187 107.348 281.49 141.943 380.073" stroke="white" stroke-width="1.32"/>
<path d="M389.046 70.9065C308.383 151.368 252.077 174.761 220.127 141.087C172.201 90.5778 263.745 50.8031 277.248 95.9461C290.751 141.087 218.561 176.915 122.449 192.849C58.3743 203.471 -17.4459 249.943 -105.01 332.263" stroke="white" stroke-width="1.32"/>
<path d="M-89.2693 84.3831C99.3181 122.458 247.303 225.578 354.687 393.742" stroke="white" stroke-width="1.32"/>
</g>
</g>
<path d="M150.159 88.536L130.153 85.127L363.595 40.8806L365.734 67.8793L150.159 88.536Z" fill="#2563EB"/>
<path d="M199.167 111.519L218.045 113.209L3.99425 171.716L-2.72498e-05 146.739L199.167 111.519Z" fill="#2563EB"/>
<path fill-rule="evenodd" clip-rule="evenodd" d="M201.536 217.195L125.615 199.125C123.63 198.653 121.754 197.738 120.103 196.437C118.453 195.136 117.063 193.478 116.019 191.564C114.976 189.649 114.301 187.52 114.036 185.308C113.772 183.096 113.923 180.848 114.481 178.703L147.86 50.3966C148.897 46.4132 151.275 43.0122 154.512 40.8839C157.748 38.7555 161.6 38.0591 165.287 38.9362L241.205 57.0095C243.19 57.4822 245.066 58.3971 246.716 59.6977C248.367 60.9984 249.757 62.657 250.8 64.5712C251.844 66.4854 252.519 68.6143 252.783 70.8264C253.048 73.0385 252.897 75.2867 252.338 77.4319L218.963 205.738C217.926 209.722 215.548 213.123 212.312 215.251C209.075 217.379 205.222 218.074 201.536 217.195Z" fill="#01133B"/>
<path fill-rule="evenodd" clip-rule="evenodd" d="M199.113 206.282L129.67 189.865C128.187 189.515 126.787 188.848 125.555 187.905C124.322 186.962 123.284 185.763 122.503 184.381C121.722 182.999 121.214 181.462 121.011 179.865C120.807 178.268 120.913 176.644 121.32 175.092L151.491 60.251C152.261 57.3216 154.061 54.8171 156.52 53.2541C158.979 51.6912 161.911 51.1891 164.709 51.8513L175.092 54.3054C175.589 54.4222 176.033 54.7154 176.352 55.1365C176.671 55.5576 176.845 56.0813 176.845 56.6213V59.1887C176.844 60.4573 177.251 61.6884 177.997 62.6799C178.743 63.6715 179.785 64.3646 180.951 64.6456L212.722 72.3088C214.01 72.6193 215.356 72.506 216.582 71.984C217.808 71.4621 218.854 70.5563 219.582 69.3873L221.212 66.7739C221.461 66.3725 221.82 66.061 222.24 65.8808C222.661 65.7005 223.123 65.66 223.565 65.7646L234.152 68.2647C235.635 68.6156 237.035 69.2829 238.267 70.2262C239.499 71.1695 240.538 72.369 241.318 73.7515C242.099 75.1341 242.607 76.6708 242.81 78.268C243.013 79.8653 242.907 81.4896 242.499 83.0421L212.331 197.879C211.562 200.809 209.762 203.314 207.302 204.877C204.843 206.441 201.912 206.944 199.113 206.282Z" fill="white"/>
<path fill-rule="evenodd" clip-rule="evenodd" d="M175.079 84.0285C173.707 89.9621 168.074 93.6745 162.498 92.3255C161.177 92.0071 159.929 91.4105 158.827 90.571C157.725 89.7315 156.793 88.666 156.084 87.4371C155.375 86.2083 154.905 84.8409 154.7 83.4156C154.495 81.9903 154.56 80.5358 154.892 79.1378C156.267 73.2078 161.9 69.4917 167.476 70.8443C168.797 71.1623 170.045 71.7585 171.147 72.5977C172.248 73.4369 173.181 74.5022 173.889 75.7309C174.598 76.9595 175.068 78.3266 175.272 79.7517C175.477 81.1767 175.411 82.6309 175.079 84.0285ZM228.649 101.868L181.618 90.8412L183.883 81.3553L230.91 92.3825L228.649 101.868ZM166.108 115.06C164.736 120.99 159.103 124.706 153.527 123.353C152.206 123.035 150.958 122.439 149.856 121.6C148.754 120.761 147.822 119.695 147.113 118.467C146.404 117.238 145.933 115.871 145.729 114.446C145.524 113.021 145.589 111.567 145.921 110.169C147.295 104.235 152.928 100.523 158.504 101.872C159.826 102.19 161.074 102.787 162.176 103.626C163.277 104.466 164.21 105.532 164.918 106.761C165.627 107.99 166.097 109.357 166.301 110.782C166.505 112.207 166.44 113.662 166.108 115.06ZM219.674 132.896L172.647 121.869L174.912 112.383L221.939 123.414L219.674 132.896ZM159.381 143.699C158.006 149.632 152.373 153.345 146.797 151.996C145.476 151.678 144.227 151.081 143.126 150.241C142.024 149.402 141.092 148.336 140.383 147.107C139.675 145.878 139.205 144.511 139 143.086C138.796 141.66 138.862 140.206 139.194 138.808C140.565 132.875 146.198 129.162 151.774 130.511C153.096 130.83 154.344 131.426 155.446 132.266C156.547 133.105 157.48 134.171 158.189 135.4C158.898 136.628 159.368 137.996 159.573 139.421C159.778 140.846 159.712 142.301 159.381 143.699ZM212.947 161.539L165.917 150.508L168.182 141.022L215.209 152.053L212.947 161.539ZM150.406 174.726C149.035 180.66 143.402 184.373 137.826 183.024C136.504 182.706 135.255 182.109 134.154 181.27C133.052 180.43 132.119 179.365 131.41 178.136C130.701 176.907 130.231 175.539 130.026 174.114C129.822 172.689 129.887 171.234 130.219 169.836C131.594 163.906 137.227 160.19 142.8 161.542C144.122 161.859 145.37 162.455 146.472 163.294C147.575 164.133 148.508 165.198 149.217 166.427C149.925 167.656 150.396 169.023 150.6 170.449C150.805 171.874 150.739 173.329 150.406 174.726ZM203.973 192.566L156.946 181.536L159.21 172.053L206.237 183.08L203.973 192.566Z" fill="#C7CAD5"/>
<path d="M305.616 237.966C306.628 237.966 307.63 237.767 308.565 237.38C309.5 236.993 310.349 236.426 311.065 235.711C311.78 234.996 312.348 234.147 312.735 233.213C313.122 232.279 313.321 231.278 313.321 230.266C313.321 229.255 313.122 228.254 312.735 227.32C312.348 226.386 311.78 225.537 311.065 224.822C310.349 224.107 309.5 223.539 308.565 223.153C307.63 222.766 306.628 222.566 305.616 222.566C303.572 222.566 301.612 223.378 300.167 224.822C298.722 226.266 297.91 228.224 297.91 230.266C297.91 232.309 298.722 234.267 300.167 235.711C301.612 237.155 303.572 237.966 305.616 237.966Z" fill="#2563EB"/>
<path d="M287.91 222.566C289.224 222.566 290.524 222.308 291.737 221.805C292.951 221.303 294.053 220.566 294.981 219.637C295.91 218.709 296.647 217.606 297.149 216.393C297.652 215.18 297.91 213.88 297.91 212.566C297.91 211.253 297.652 209.953 297.149 208.74C296.647 207.526 295.91 206.424 294.981 205.495C294.053 204.567 292.951 203.83 291.737 203.328C290.524 202.825 289.224 202.566 287.91 202.566C285.258 202.566 282.715 203.62 280.839 205.495C278.964 207.371 277.91 209.914 277.91 212.566C277.91 215.219 278.964 217.762 280.839 219.637C282.715 221.513 285.258 222.566 287.91 222.566Z" fill="#2563EB"/>
<path d="M320.43 248.153C321.384 248.153 322.298 247.775 322.973 247.101C323.647 246.427 324.026 245.513 324.026 244.56C324.026 243.607 323.647 242.693 322.973 242.019C322.298 241.345 321.384 240.967 320.43 240.967C319.476 240.967 318.562 241.345 317.887 242.019C317.213 242.693 316.834 243.607 316.834 244.56C316.834 245.513 317.213 246.427 317.887 247.101C318.562 247.775 319.476 248.153 320.43 248.153Z" fill="#2563EB"/>
</svg>
