<svg width="393" height="300" viewBox="0 0 393 300" fill="none" xmlns="http://www.w3.org/2000/svg">
<mask id="mask0_505_3034" style="mask-type:alpha" maskUnits="userSpaceOnUse" x="40" y="30" width="317" height="233">
<path d="M229.352 51.6262C293.944 86.5012 332.715 92.6902 349.766 139.123C366.816 185.556 350.697 243.347 289.653 257.584C228.61 271.822 226.953 248.217 134.821 251.973C42.6903 255.73 9.95535 134.493 71.902 79.1652C133.849 23.8372 164.759 16.7522 229.352 51.6262Z" fill="white"/>
</mask>
<g mask="url(#mask0_505_3034)">
<path d="M229.352 51.6262C293.944 86.5012 332.715 92.6902 349.766 139.123C366.816 185.556 350.697 243.347 289.653 257.584C228.61 271.822 226.953 248.217 134.821 251.973C42.6903 255.73 9.95535 134.493 71.902 79.1652C133.849 23.8372 164.759 16.7522 229.352 51.6262Z" fill="#F2F5FF"/>
<path d="M169.121 -1.80176C174.267 66.2222 198.213 107.4 240.959 121.734C283.704 136.068 341.786 115.478 415.204 59.9662" stroke="white" stroke-width="1.32"/>
<path d="M194.416 -1.80176C205.808 78.1702 180.221 119.487 117.656 122.151C23.8075 126.146 91.6098 53.6062 123.627 82.5232C155.643 111.439 153.037 174.053 103.081 216.968C69.7777 245.578 31.8326 259.883 -10.7529 259.883M387.804 217.879C249.113 208.758 139.101 259.024 57.7676 368.678" stroke="white" stroke-width="1.32"/>
<path d="M23.8076 216.829C114.782 241.649 173.433 292.265 199.759 368.678" stroke="white" stroke-width="1.32"/>
<path d="M387.804 129.041C326.421 191.406 283.572 209.539 259.257 183.438C222.787 144.287 292.451 113.458 302.726 148.448C313.002 183.438 258.065 211.208 184.924 223.559C136.164 231.792 78.4652 267.813 11.8281 331.619M87.8039 -1.80176C145.966 26.9502 221.033 39.9412 313.002 37.1712C404.972 34.4012 470.001 23.1602 508.092 3.44624" stroke="white" stroke-width="1.32"/>
<path d="M387.804 169.563C329.699 227.222 304.764 297.125 313.001 379.272M297.64 65.4963C322.353 65.4963 342.388 36.8883 342.388 1.59727C342.388 -33.6927 322.353 -62.3027 297.64 -62.3027C272.926 -62.3027 252.891 -33.6927 252.891 1.59727C252.891 36.8873 272.926 65.4963 297.64 65.4963Z" stroke="white" stroke-width="1.32"/>
<path d="M23.8076 139.486C167.322 168.999 279.938 248.928 361.658 379.272" stroke="white" stroke-width="1.32"/>
<path d="M76.5266 -1.80176C32.6599 7.33324 16.4418 26.3842 27.8703 55.3512C45.0129 98.8012 108.188 180.967 23.8066 195.217" stroke="white" stroke-width="1.32"/>
</g>
<mask id="mask1_505_3034" style="mask-type:alpha" maskUnits="userSpaceOnUse" x="40" y="30" width="317" height="233">
<path d="M229.352 51.6262C293.944 86.5012 332.715 92.6902 349.766 139.123C366.816 185.556 350.697 243.347 289.653 257.584C228.61 271.822 226.953 248.217 134.821 251.973C42.6903 255.73 9.95535 134.493 71.902 79.1652C133.849 23.8372 164.759 16.7522 229.352 51.6262Z" fill="white"/>
</mask>
<g mask="url(#mask1_505_3034)">
<path fill-rule="evenodd" clip-rule="evenodd" d="M199.015 89.1152C208.997 89.1152 219.401 91.2512 230.341 93.4042C236.146 94.5462 254.558 98.0792 285.578 104.002C297.311 106.242 305.039 117.739 302.838 129.681C302.554 131.221 302.109 132.725 301.511 134.168L300.513 136.581L227.892 130.005L219.262 180.11H178.768L169.758 130.759L108.613 142.832L104.631 130.357C102.111 122.462 106.354 113.983 114.11 111.415C145.181 101.128 163.366 95.3442 168.668 94.0632C177.75 91.8682 189.033 89.1152 199.015 89.1152Z" fill="#EDEEF2" stroke="#01133B" stroke-width="1.32" stroke-linecap="round" stroke-linejoin="round"/>
<path d="M214.511 90.6035C221.66 91.8855 226.836 98.7995 230.042 111.344L223.435 124.657M183.787 91.0435C176.639 92.3255 171.461 99.2385 168.255 111.784L174.863 125.097" stroke="#01133B" stroke-width="1.32" stroke-linecap="round" stroke-linejoin="round"/>
<path d="M285.752 134.485H110.738V239.723H285.752V134.485Z" fill="#DBE3FF"/>
<path d="M304.552 124.918H94.1777V156.353H304.552V124.918Z" fill="#2563EB"/>
<path d="M126.504 138.131H120.347V143.598H126.504V138.131ZM141.897 138.131H135.74V143.598H141.897V138.131ZM268.121 138.131H164.474V143.598H268.121V138.131Z" fill="#DBE3FF"/>
<path d="M304.552 124.918H277.87V156.353H304.552V124.918Z" fill="#2563EB"/>
<path fill-rule="evenodd" clip-rule="evenodd" d="M94.1777 124.918H110.597V156.353H94.1777V124.918Z" fill="#2563EB"/>
<path d="M304.552 159.998H94.1777V191.433H304.552V159.998Z" fill="#2563EB"/>
<path d="M126.504 173.21H120.347V178.677H126.504V173.21ZM141.897 173.21H135.74V178.677H141.897V173.21ZM268.121 173.21H164.474V178.677H268.121V173.21Z" fill="#DBE3FF"/>
<path d="M304.552 159.998H277.87V191.433H304.552V159.998Z" fill="#2563EB"/>
<path fill-rule="evenodd" clip-rule="evenodd" d="M94.1777 159.998H110.597V191.433H94.1777V159.998Z" fill="#2563EB"/>
<path d="M304.552 195.077H94.1777V226.512H304.552V195.077Z" fill="#2563EB"/>
<path d="M126.504 208.289H120.347V213.756H126.504V208.289ZM141.897 208.289H135.74V213.756H141.897V208.289ZM268.121 208.289H164.474V213.756H268.121V208.289Z" fill="#DBE3FF"/>
<path d="M304.552 195.077H277.87V226.512H304.552V195.077Z" fill="#2563EB"/>
<path fill-rule="evenodd" clip-rule="evenodd" d="M94.1777 195.077H110.597V226.512H94.1777V195.077Z" fill="#2563EB"/>
<path d="M304.552 230.157H94.1777V261.591H304.552V230.157Z" fill="#2563EB"/>
<path d="M126.504 243.369H120.347V248.836H126.504V243.369ZM141.897 243.369H135.74V248.836H141.897V243.369ZM268.121 243.369H164.474V248.836H268.121V243.369Z" fill="#DBE3FF"/>
<path d="M304.552 230.157H277.87V261.591H304.552V230.157Z" fill="#2563EB"/>
<path fill-rule="evenodd" clip-rule="evenodd" d="M94.1777 230.157H110.597V261.591H94.1777V230.157Z" fill="#2563EB"/>
<mask id="mask2_505_3034" style="mask-type:alpha" maskUnits="userSpaceOnUse" x="126" y="90" width="141" height="122">
<path d="M196.42 90.6343C207.639 89.9413 211.723 100.646 212.324 115.81C212.925 130.975 230.516 129.649 237.371 143.597C244.225 157.545 234.506 169.931 249.242 181.944C259.066 189.952 264.729 199.819 266.233 211.544L126.631 210.037C126.17 196.858 130.725 187.666 140.297 182.462C154.655 174.656 143.028 152.686 154.655 137.888C166.281 123.09 171.238 123.09 175.329 110.554C179.421 98.0173 185.202 91.3283 196.42 90.6343Z" fill="white"/>
</mask>
<g mask="url(#mask2_505_3034)">
<path d="M196.42 90.6343C207.639 89.9413 211.723 100.646 212.324 115.81C212.925 130.975 230.516 129.649 237.371 143.597C244.225 157.545 234.506 169.931 249.242 181.944C259.066 189.952 264.729 199.819 266.233 211.544L126.631 210.037C126.17 196.858 130.725 187.666 140.297 182.462C154.655 174.656 143.028 152.686 154.655 137.888C166.281 123.09 171.238 123.09 175.329 110.554C179.421 98.0173 185.202 91.3283 196.42 90.6343Z" fill="#01133B"/>
<path d="M181.718 149.999C182.004 149.999 182.279 149.883 182.482 149.677C182.685 149.47 182.799 149.19 182.799 148.899C182.799 148.607 182.685 148.327 182.482 148.121C182.279 147.915 182.004 147.799 181.718 147.799C181.431 147.799 181.156 147.915 180.954 148.121C180.751 148.327 180.637 148.607 180.637 148.899C180.637 149.19 180.751 149.47 180.954 149.677C181.156 149.883 181.431 149.999 181.718 149.999ZM174.369 167.159C174.511 167.159 174.651 167.13 174.782 167.075C174.913 167.02 175.033 166.939 175.133 166.837C175.233 166.734 175.313 166.613 175.367 166.48C175.422 166.346 175.449 166.203 175.449 166.059C175.449 165.914 175.422 165.771 175.367 165.638C175.313 165.504 175.233 165.383 175.133 165.281C175.033 165.179 174.913 165.098 174.782 165.042C174.651 164.987 174.511 164.959 174.369 164.959C174.082 164.959 173.807 165.075 173.605 165.281C173.402 165.487 173.288 165.767 173.288 166.059C173.288 166.35 173.402 166.63 173.605 166.837C173.807 167.043 174.082 167.159 174.369 167.159ZM211.114 156.159C211.256 156.159 211.397 156.13 211.528 156.075C211.659 156.02 211.778 155.939 211.878 155.837C211.979 155.734 212.058 155.613 212.113 155.48C212.167 155.346 212.195 155.203 212.195 155.059C212.195 154.914 212.167 154.771 212.113 154.638C212.058 154.504 211.979 154.383 211.878 154.281C211.778 154.179 211.659 154.098 211.528 154.042C211.397 153.987 211.256 153.959 211.114 153.959C210.828 153.959 210.553 154.075 210.35 154.281C210.147 154.487 210.033 154.767 210.033 155.059C210.033 155.35 210.147 155.63 210.35 155.837C210.553 156.043 210.828 156.159 211.114 156.159ZM206.791 191.359C207.078 191.359 207.353 191.243 207.555 191.037C207.758 190.83 207.872 190.55 207.872 190.259C207.872 189.967 207.758 189.687 207.555 189.481C207.353 189.275 207.078 189.159 206.791 189.159C206.505 189.159 206.23 189.275 206.027 189.481C205.824 189.687 205.71 189.967 205.71 190.259C205.71 190.55 205.824 190.83 206.027 191.037C206.23 191.243 206.505 191.359 206.791 191.359ZM166.371 165.52C166.632 165.52 166.882 165.414 167.066 165.227C167.25 165.039 167.354 164.785 167.354 164.52C167.354 164.255 167.25 164 167.066 163.813C166.882 163.625 166.632 163.52 166.371 163.52C166.111 163.52 165.861 163.625 165.676 163.813C165.492 164 165.389 164.255 165.389 164.52C165.389 164.785 165.492 165.039 165.676 165.227C165.861 165.414 166.111 165.52 166.371 165.52ZM200.523 135.6C200.783 135.6 201.033 135.494 201.218 135.307C201.402 135.119 201.505 134.865 201.505 134.6C201.505 134.335 201.402 134.08 201.218 133.893C201.033 133.705 200.783 133.6 200.523 133.6C200.262 133.6 200.012 133.705 199.828 133.893C199.644 134.08 199.54 134.335 199.54 134.6C199.54 134.865 199.644 135.119 199.828 135.307C200.012 135.494 200.262 135.6 200.523 135.6ZM189.283 180.919C189.544 180.919 189.794 180.813 189.978 180.626C190.162 180.438 190.266 180.184 190.266 179.919C190.266 179.654 190.162 179.399 189.978 179.212C189.794 179.024 189.544 178.919 189.283 178.919C189.023 178.919 188.773 179.024 188.588 179.212C188.404 179.399 188.301 179.654 188.301 179.919C188.301 180.184 188.404 180.438 188.588 180.626C188.773 180.813 189.023 180.919 189.283 180.919ZM223.867 185.319C224.128 185.319 224.378 185.213 224.562 185.026C224.746 184.838 224.85 184.584 224.85 184.319C224.85 184.054 224.746 183.799 224.562 183.612C224.378 183.424 224.128 183.319 223.867 183.319C223.606 183.319 223.357 183.424 223.172 183.612C222.988 183.799 222.885 184.054 222.885 184.319C222.885 184.584 222.988 184.838 223.172 185.026C223.357 185.213 223.606 185.319 223.867 185.319ZM166.803 194.119C167.064 194.119 167.314 194.013 167.498 193.826C167.682 193.638 167.786 193.384 167.786 193.119C167.786 192.854 167.682 192.599 167.498 192.412C167.314 192.224 167.064 192.119 166.803 192.119C166.543 192.119 166.293 192.224 166.109 192.412C165.924 192.599 165.821 192.854 165.821 193.119C165.821 193.384 165.924 193.638 166.109 193.826C166.293 194.013 166.543 194.119 166.803 194.119ZM184.095 123.719C184.356 123.719 184.606 123.613 184.79 123.426C184.974 123.238 185.078 122.984 185.078 122.719C185.078 122.454 184.974 122.199 184.79 122.012C184.606 121.824 184.356 121.719 184.095 121.719C183.835 121.719 183.585 121.824 183.401 122.012C183.216 122.199 183.113 122.454 183.113 122.719C183.113 122.984 183.216 123.238 183.401 123.426C183.585 123.613 183.835 123.719 184.095 123.719ZM166.803 146.6C167.064 146.6 167.314 146.494 167.498 146.307C167.682 146.119 167.786 145.865 167.786 145.6C167.786 145.335 167.682 145.08 167.498 144.893C167.314 144.705 167.064 144.6 166.803 144.6C166.543 144.6 166.293 144.705 166.109 144.893C165.924 145.08 165.821 145.335 165.821 145.6C165.821 145.865 165.924 146.119 166.109 146.307C166.293 146.494 166.543 146.6 166.803 146.6ZM187.986 183.56C188.247 183.56 188.497 183.454 188.681 183.267C188.865 183.079 188.969 182.825 188.969 182.56C188.969 182.295 188.865 182.04 188.681 181.853C188.497 181.665 188.247 181.56 187.986 181.56C187.726 181.56 187.476 181.665 187.291 181.853C187.107 182.04 187.004 182.295 187.004 182.56C187.004 182.825 187.107 183.079 187.291 183.267C187.476 183.454 187.726 183.56 187.986 183.56ZM209.601 193.679C209.862 193.679 210.112 193.573 210.296 193.386C210.48 193.198 210.584 192.944 210.584 192.679C210.584 192.414 210.48 192.159 210.296 191.972C210.112 191.784 209.862 191.679 209.601 191.679C209.341 191.679 209.091 191.784 208.906 191.972C208.722 192.159 208.619 192.414 208.619 192.679C208.619 192.944 208.722 193.198 208.906 193.386C209.091 193.573 209.341 193.679 209.601 193.679ZM210.25 172.339C210.51 172.339 210.76 172.233 210.944 172.046C211.129 171.858 211.232 171.604 211.232 171.339C211.232 171.074 211.129 170.819 210.944 170.632C210.76 170.444 210.51 170.339 210.25 170.339C209.989 170.339 209.739 170.444 209.555 170.632C209.371 170.819 209.267 171.074 209.267 171.339C209.267 171.604 209.371 171.858 209.555 172.046C209.739 172.233 209.989 172.339 210.25 172.339ZM209.817 148.139C210.078 148.139 210.328 148.033 210.512 147.846C210.696 147.658 210.8 147.404 210.8 147.139C210.8 146.874 210.696 146.619 210.512 146.432C210.328 146.244 210.078 146.139 209.817 146.139C209.557 146.139 209.307 146.244 209.123 146.432C208.938 146.619 208.835 146.874 208.835 147.139C208.835 147.404 208.938 147.658 209.123 147.846C209.307 148.033 209.557 148.139 209.817 148.139ZM190.364 160.02C190.624 160.02 190.874 159.914 191.059 159.727C191.243 159.539 191.346 159.285 191.346 159.02C191.346 158.755 191.243 158.5 191.059 158.313C190.874 158.125 190.624 158.02 190.364 158.02C190.103 158.02 189.853 158.125 189.669 158.313C189.485 158.5 189.381 158.755 189.381 159.02C189.381 159.285 189.485 159.539 189.669 159.727C189.853 159.914 190.103 160.02 190.364 160.02ZM223.867 160.239C224.128 160.239 224.378 160.133 224.562 159.946C224.746 159.758 224.85 159.504 224.85 159.239C224.85 158.974 224.746 158.719 224.562 158.532C224.378 158.344 224.128 158.239 223.867 158.239C223.606 158.239 223.357 158.344 223.172 158.532C222.988 158.719 222.885 158.974 222.885 159.239C222.885 159.504 222.988 159.758 223.172 159.946C223.357 160.133 223.606 160.239 223.867 160.239ZM204.651 142.006C205.004 144.042 203.981 146.132 202.055 147.005C201.474 147.268 200.845 147.402 200.209 147.399C199.574 147.396 198.946 147.255 198.368 146.986C198.173 146.896 198.19 146.634 198.365 146.522C199.29 145.928 200.291 145.168 201.442 144.245C202.534 143.37 203.494 142.568 204.212 141.882C204.385 141.716 204.614 141.79 204.651 142.006ZM198.361 138.564C199.172 138.198 200.071 138.083 200.945 138.235C201.819 138.387 202.63 138.797 203.276 139.416C203.306 139.442 203.336 139.47 203.364 139.496C205.254 138.092 206.595 137.268 206.752 137.465C206.994 137.77 204.314 140.4 200.767 143.339C197.219 146.279 194.146 148.414 193.904 148.11C193.75 147.917 194.761 146.8 196.416 145.264C196.385 145.212 196.343 145.146 196.3 145.07C196.224 144.933 196.154 144.793 196.091 144.65C195.071 142.319 196.088 139.594 198.361 138.564Z" fill="white"/>
</g>
<path fill-rule="evenodd" clip-rule="evenodd" d="M182.235 102.9C183.898 98.8794 183.48 95.3694 180.983 92.3704C177.237 87.8724 170.778 87.7424 167.321 91.5734C163.866 95.4044 164.826 99.9854 167.321 102.542C168.434 103.681 172.522 106.566 177.241 105.9C178.575 105.711 180.239 104.711 182.235 102.9Z" fill="#01133B"/>
<path d="M216.778 107.508C216.778 97.9483 209.163 90.1963 199.769 90.1963C190.375 90.1963 182.761 97.9473 182.761 107.508C182.761 117.069 190.375 124.82 199.769 124.82C209.163 124.82 216.778 117.069 216.778 107.508Z" fill="white" stroke="#01133B" stroke-width="1.32" stroke-linecap="round" stroke-linejoin="round"/>
<mask id="mask3_505_3034" style="mask-type:alpha" maskUnits="userSpaceOnUse" x="182" y="90" width="35" height="35">
<path d="M216.778 107.508C216.778 97.9483 209.163 90.1963 199.769 90.1963C190.375 90.1963 182.761 97.9473 182.761 107.508C182.761 117.069 190.375 124.82 199.769 124.82C209.163 124.82 216.778 117.069 216.778 107.508Z" fill="white"/>
</mask>
<g mask="url(#mask3_505_3034)">
<path d="M188.378 111.344C201.604 111.344 212.325 100.432 212.325 86.9697C212.325 73.5097 201.604 62.5967 188.378 62.5967C175.153 62.5967 164.431 73.5107 164.431 86.9707C164.431 100.433 175.153 111.344 188.378 111.344Z" fill="#01133B"/>
<path d="M191.617 134.983C203.854 134.983 213.774 124.886 213.774 112.432C213.774 99.9769 203.854 89.8809 191.617 89.8809C179.381 89.8809 169.461 99.9769 169.461 112.432C169.461 124.886 179.381 134.983 191.617 134.983Z" fill="#01133B"/>
</g>
<mask id="mask4_505_3034" style="mask-type:alpha" maskUnits="userSpaceOnUse" x="238" y="101" width="68" height="110">
<path d="M274.442 101.858L245.808 168.101L248.562 173.211L238.561 196.496L269.816 210.917L282.611 185.715L291.208 173.207L304.688 131.444C308.189 120.593 302.387 108.908 291.727 105.345C290.88 105.062 290.016 104.837 289.14 104.669L274.442 101.858Z" fill="white"/>
</mask>
<g mask="url(#mask4_505_3034)">
<path d="M274.442 101.858L245.808 168.101L248.562 173.211L238.561 196.496L269.816 210.917L282.611 185.715L291.208 173.207L304.688 131.444C308.189 120.593 302.387 108.908 291.727 105.345C290.88 105.062 290.016 104.837 289.14 104.669L274.442 101.858Z" fill="white"/>
<path fill-rule="evenodd" clip-rule="evenodd" d="M242.808 174.066L280.605 191.677L291.207 173.208L313.785 118.975L302.197 97.621L285.755 94.21L262.588 94.212L242.808 174.066Z" fill="#EDEEF2"/>
</g>
<path d="M265.661 123.986L245.413 168.54L249.504 170.034L241.7 189.697M279.351 192.522L286.057 176.267L291.207 173.208L304.395 131.87C307.934 120.775 301.969 108.862 291.069 105.261C290.225 104.982 289.364 104.758 288.492 104.592L244.591 96.2021" stroke="#01133B" stroke-width="1.32" stroke-linecap="round" stroke-linejoin="round"/>
<path fill-rule="evenodd" clip-rule="evenodd" d="M280.181 190.637L265.693 225.373C265.471 225.929 265.142 226.436 264.726 226.862C264.31 227.288 263.815 227.626 263.27 227.856C262.724 228.085 262.139 228.202 261.549 228.199C260.959 228.196 260.375 228.074 259.832 227.839C259.288 227.604 258.796 227.262 258.384 226.832C257.972 226.402 257.648 225.892 257.432 225.333C257.215 224.774 257.11 224.177 257.122 223.577C257.134 222.976 257.264 222.384 257.503 221.835L264.747 204.467" fill="white"/>
<path d="M280.18 190.637L265.693 225.373C265.471 225.929 265.142 226.436 264.726 226.862C264.31 227.288 263.815 227.626 263.27 227.856C262.724 228.085 262.139 228.202 261.549 228.199C260.959 228.196 260.375 228.074 259.832 227.839C259.288 227.604 258.796 227.262 258.384 226.832C257.972 226.402 257.648 225.892 257.432 225.333C257.215 224.774 257.11 224.177 257.122 223.577C257.134 222.976 257.264 222.384 257.503 221.835L264.747 204.467" stroke="#01133B" stroke-width="1.32" stroke-linecap="round" stroke-linejoin="round"/>
<path fill-rule="evenodd" clip-rule="evenodd" d="M243.793 192.541L238.506 196.596C238.041 196.965 237.508 197.235 236.939 197.393C236.37 197.55 235.776 197.59 235.192 197.512C234.608 197.433 234.044 197.237 233.535 196.934C233.026 196.632 232.581 196.229 232.227 195.75C231.872 195.271 231.614 194.725 231.469 194.143C231.324 193.562 231.294 192.957 231.38 192.363C231.467 191.77 231.669 191.2 231.974 190.687C232.28 190.173 232.682 189.727 233.159 189.374L246.784 178.923" fill="white"/>
<path d="M243.793 192.541L238.506 196.596C238.041 196.965 237.508 197.235 236.939 197.393C236.37 197.55 235.776 197.59 235.192 197.512C234.608 197.433 234.044 197.237 233.535 196.934C233.026 196.632 232.581 196.229 232.227 195.75C231.872 195.271 231.614 194.725 231.469 194.143C231.324 193.562 231.294 192.957 231.38 192.363C231.467 191.77 231.669 191.2 231.974 190.687C232.28 190.173 232.682 189.727 233.159 189.374L246.784 178.923" stroke="#01133B" stroke-width="1.32" stroke-linecap="round" stroke-linejoin="round"/>
<path fill-rule="evenodd" clip-rule="evenodd" d="M264.747 204.466L257.503 221.834C257.281 222.39 256.953 222.897 256.537 223.323C256.121 223.749 255.626 224.087 255.08 224.317C254.535 224.546 253.95 224.663 253.36 224.66C252.769 224.657 252.185 224.535 251.642 224.3C251.099 224.065 250.607 223.723 250.195 223.293C249.783 222.863 249.459 222.353 249.242 221.794C249.026 221.236 248.92 220.638 248.933 220.038C248.945 219.437 249.075 218.845 249.314 218.296L256.557 200.928" fill="white"/>
<path d="M264.747 204.466L257.503 221.834C257.281 222.39 256.953 222.897 256.537 223.323C256.121 223.749 255.626 224.087 255.08 224.317C254.535 224.546 253.95 224.663 253.36 224.66C252.769 224.657 252.185 224.535 251.642 224.3C251.099 224.065 250.607 223.723 250.195 223.293C249.783 222.863 249.459 222.353 249.242 221.794C249.026 221.236 248.92 220.638 248.933 220.038C248.945 219.437 249.075 218.845 249.314 218.296L256.557 200.928" stroke="#01133B" stroke-width="1.32" stroke-linecap="round" stroke-linejoin="round"/>
<path fill-rule="evenodd" clip-rule="evenodd" d="M256.556 200.927L249.312 218.295C249.093 218.855 248.766 219.365 248.35 219.795C247.934 220.225 247.438 220.567 246.891 220.799C246.344 221.031 245.757 221.15 245.164 221.148C244.572 221.146 243.985 221.024 243.44 220.788C242.894 220.552 242.4 220.208 241.987 219.775C241.574 219.343 241.25 218.83 241.034 218.269C240.818 217.707 240.715 217.107 240.73 216.504C240.745 215.901 240.878 215.307 241.122 214.757L248.366 197.389" fill="white"/>
<path d="M256.556 200.927L249.312 218.295C249.093 218.855 248.766 219.365 248.35 219.795C247.934 220.225 247.438 220.567 246.891 220.799C246.344 221.031 245.757 221.15 245.164 221.148C244.572 221.146 243.985 221.024 243.44 220.788C242.894 220.552 242.4 220.208 241.987 219.775C241.574 219.343 241.25 218.83 241.034 218.269C240.818 217.707 240.715 217.107 240.73 216.504C240.745 215.901 240.878 215.307 241.122 214.757L248.366 197.389" stroke="#01133B" stroke-width="1.32" stroke-linecap="round" stroke-linejoin="round"/>
<path fill-rule="evenodd" clip-rule="evenodd" d="M248.365 197.388L241.121 214.756C240.66 215.862 239.787 216.736 238.693 217.186C237.599 217.635 236.374 217.625 235.288 217.155C234.198 216.685 233.335 215.795 232.886 214.68C232.437 213.565 232.438 212.315 232.889 211.2L247.93 174.063" fill="white"/>
<path d="M248.365 197.388L241.121 214.756C240.66 215.862 239.787 216.736 238.693 217.186C237.599 217.635 236.374 217.625 235.288 217.155C234.198 216.685 233.335 215.795 232.886 214.68C232.437 213.565 232.438 212.315 232.889 211.2L247.93 174.063" stroke="#01133B" stroke-width="1.32" stroke-linecap="round" stroke-linejoin="round"/>
<path fill-rule="evenodd" clip-rule="evenodd" d="M241.766 167.923L295.358 173.543L286.346 194.179L239.099 175.054L241.766 167.923Z" fill="#EDEEF2" stroke="#01133B" stroke-width="1.32" stroke-linecap="round" stroke-linejoin="round"/>
<mask id="mask5_505_3034" style="mask-type:alpha" maskUnits="userSpaceOnUse" x="98" y="106" width="59" height="111">
<path d="M129.296 106.724L115.289 110.556C103.574 113.761 96.2281 125.567 98.3847 137.72L105.653 178.675L111.874 180.731L121.438 216.385L156.821 210.129L148.471 178.759L150.725 175.949L129.296 106.724Z" fill="white"/>
</mask>
<g mask="url(#mask5_505_3034)">
<path d="M129.296 106.723L115.289 110.556C103.574 113.76 96.2281 125.567 98.3847 137.72L105.653 178.675L111.874 180.731L121.439 216.385L156.821 210.129L148.471 178.759L150.725 175.948L129.296 106.723Z" fill="white"/>
<path fill-rule="evenodd" clip-rule="evenodd" d="M113.797 197.392L152.15 184.879L129.985 99.6426L86.2638 103.936L85.9209 157.779L113.797 197.392Z" fill="#EDEEF2"/>
</g>
<path d="M134.587 125.374L150.727 175.947L149.217 180.208L151.883 190.195M120.069 210.937L112.505 182.214L105.653 178.673L98.7696 137.534C96.8046 125.794 103.681 114.389 114.852 110.859L137.885 103.58" stroke="#01133B" stroke-width="1.32" stroke-linecap="round" stroke-linejoin="round"/>
<path fill-rule="evenodd" clip-rule="evenodd" d="M116.331 197.317L126.554 233.591C126.715 234.163 126.985 234.696 127.348 235.162C127.712 235.627 128.162 236.015 128.672 236.303C129.183 236.591 129.745 236.774 130.325 236.841C130.905 236.909 131.493 236.859 132.054 236.695C132.615 236.532 133.14 236.257 133.597 235.887C134.054 235.517 134.435 235.059 134.718 234.539C135.001 234.019 135.181 233.448 135.247 232.857C135.313 232.267 135.265 231.669 135.104 231.097L129.993 212.959" fill="white"/>
<path d="M116.331 197.317L126.554 233.591C126.715 234.163 126.985 234.696 127.348 235.162C127.712 235.627 128.162 236.015 128.672 236.303C129.183 236.591 129.745 236.774 130.325 236.841C130.905 236.909 131.493 236.859 132.054 236.695C132.615 236.532 133.14 236.257 133.597 235.887C134.054 235.517 134.435 235.059 134.718 234.539C135.001 234.019 135.181 233.448 135.247 232.857C135.313 232.267 135.265 231.669 135.104 231.097L129.993 212.959" stroke="#01133B" stroke-width="1.32" stroke-linecap="round" stroke-linejoin="round"/>
<path fill-rule="evenodd" clip-rule="evenodd" d="M152.22 203.72L156.983 208.402C157.402 208.82 157.897 209.149 158.441 209.371C158.986 209.593 159.568 209.703 160.154 209.695C160.74 209.686 161.318 209.56 161.857 209.324C162.395 209.087 162.881 208.744 163.288 208.315C163.696 207.885 164.015 207.378 164.229 206.823C164.443 206.267 164.547 205.674 164.534 205.078C164.522 204.481 164.393 203.893 164.156 203.348C163.92 202.802 163.579 202.309 163.154 201.898L150.881 189.834" fill="white"/>
<path d="M152.22 203.72L156.983 208.402C157.402 208.82 157.897 209.149 158.441 209.371C158.986 209.593 159.568 209.703 160.154 209.695C160.74 209.686 161.318 209.56 161.857 209.324C162.395 209.087 162.881 208.744 163.288 208.315C163.696 207.885 164.015 207.378 164.229 206.823C164.443 206.267 164.547 205.674 164.534 205.078C164.522 204.481 164.393 203.893 164.156 203.348C163.92 202.802 163.579 202.309 163.154 201.898L150.881 189.834" stroke="#01133B" stroke-width="1.32" stroke-linecap="round" stroke-linejoin="round"/>
<path fill-rule="evenodd" clip-rule="evenodd" d="M129.995 212.958L135.106 231.096C135.259 231.677 135.523 232.221 135.885 232.697C136.247 233.173 136.698 233.57 137.212 233.867C137.726 234.163 138.293 234.352 138.88 234.423C139.467 234.494 140.062 234.445 140.63 234.279C141.198 234.114 141.728 233.834 142.189 233.458C142.65 233.081 143.032 232.615 143.314 232.087C143.596 231.558 143.771 230.977 143.83 230.379C143.889 229.78 143.831 229.176 143.658 228.601L138.546 210.463" fill="white"/>
<path d="M129.995 212.958L135.106 231.096C135.259 231.677 135.523 232.221 135.885 232.697C136.247 233.173 136.698 233.57 137.212 233.867C137.726 234.163 138.293 234.352 138.88 234.423C139.467 234.494 140.062 234.445 140.63 234.279C141.198 234.114 141.728 233.834 142.189 233.458C142.65 233.081 143.032 232.615 143.314 232.087C143.596 231.558 143.771 230.977 143.83 230.379C143.889 229.78 143.831 229.176 143.658 228.601L138.546 210.463" stroke="#01133B" stroke-width="1.32" stroke-linecap="round" stroke-linejoin="round"/>
<path fill-rule="evenodd" clip-rule="evenodd" d="M138.548 210.462L143.66 228.6C143.821 229.171 144.091 229.705 144.454 230.17C144.818 230.635 145.268 231.023 145.779 231.311C146.29 231.6 146.851 231.783 147.431 231.85C148.012 231.917 148.599 231.868 149.161 231.704C149.722 231.54 150.247 231.265 150.704 230.895C151.161 230.525 151.542 230.067 151.825 229.547C152.108 229.027 152.288 228.456 152.354 227.865C152.42 227.274 152.371 226.676 152.21 226.105L147.1 207.967" fill="white"/>
<path d="M138.548 210.462L143.66 228.6C143.821 229.171 144.091 229.705 144.454 230.17C144.818 230.635 145.268 231.023 145.779 231.311C146.29 231.6 146.851 231.783 147.431 231.85C148.012 231.917 148.599 231.868 149.161 231.704C149.722 231.54 150.247 231.265 150.704 230.895C151.161 230.525 151.542 230.067 151.825 229.547C152.108 229.027 152.288 228.456 152.354 227.865C152.42 227.274 152.371 226.676 152.21 226.105L147.1 207.967" stroke="#01133B" stroke-width="1.32" stroke-linecap="round" stroke-linejoin="round"/>
<path fill-rule="evenodd" clip-rule="evenodd" d="M147.104 207.965L152.214 226.102C152.375 226.674 152.645 227.208 153.009 227.673C153.372 228.138 153.822 228.526 154.333 228.815C154.844 229.103 155.405 229.287 155.986 229.354C156.566 229.421 157.154 229.372 157.715 229.208C158.854 228.876 159.817 228.1 160.396 227.049C160.975 225.998 161.124 224.757 160.809 223.595L150.324 184.869" fill="white"/>
<path d="M147.104 207.965L152.214 226.102C152.375 226.674 152.645 227.208 153.009 227.673C153.372 228.138 153.822 228.526 154.333 228.815C154.844 229.103 155.405 229.287 155.986 229.354C156.566 229.421 157.154 229.372 157.715 229.208C158.854 228.876 159.817 228.1 160.396 227.049C160.975 225.998 161.124 224.757 160.809 223.595L150.324 184.869" stroke="#01133B" stroke-width="1.32" stroke-linecap="round" stroke-linejoin="round"/>
<path fill-rule="evenodd" clip-rule="evenodd" d="M97.7422 177.499L153.809 175.772L155.749 184.731L105.804 198.818L97.7422 177.499Z" fill="#EDEEF2" stroke="#01133B" stroke-width="1.32" stroke-linecap="round" stroke-linejoin="round"/>
<path fill-rule="evenodd" clip-rule="evenodd" d="M116.331 197.316L151.522 188.689L150.72 186.13L116.331 195.986V197.316ZM245.978 178.919L278.53 194.334L279.598 191.435L245.978 177.904V178.919Z" fill="#01133B"/>
</g>
</svg>
