<svg width="467" height="350" viewBox="0 0 467 350" fill="none" xmlns="http://www.w3.org/2000/svg">
<path fill-rule="evenodd" clip-rule="evenodd" d="M275.821 90.4902C350.976 129.002 372.439 103.69 406.241 155.002C440.044 206.313 417.012 302.206 345.985 317.928C274.958 333.65 262.224 294.939 165.832 311.732C69.4382 328.525 20.5433 181.999 92.6212 120.9C164.698 59.8021 200.665 51.9785 275.821 90.4902Z" fill="#F2F5FF"/>
<mask id="mask0_296_11658" style="mask-type:alpha" maskUnits="userSpaceOnUse" x="58" y="27" width="364" height="295">
<path d="M286.055 39.5033C361.21 78.015 372.439 103.69 406.241 155.002C440.044 206.313 417.012 302.206 345.985 317.928C274.958 333.65 262.224 294.939 165.832 311.732C69.4382 328.525 20.5433 181.999 92.6212 120.902C164.699 59.8033 210.9 0.99168 286.055 39.5033Z" fill="white"/>
</mask>
<g mask="url(#mask0_296_11658)">
<path fill-rule="evenodd" clip-rule="evenodd" d="M194.605 44.7557C199.201 39.7122 207.789 39.8837 212.771 45.8045C214.506 47.8648 215.485 50.1095 215.711 52.5373C218.745 51.0335 222.339 50.1713 226.669 49.959C238.999 49.3512 250.907 57.5727 251.568 70.8633C252.229 84.154 269.941 82.243 277.475 94.4673C280.187 98.868 279.933 103.745 279.328 108.589L279.224 109.396C279.135 110.068 279.043 110.739 278.954 111.407L278.849 112.209C277.906 119.538 277.669 126.497 287.463 131.278C299.334 137.074 306.229 145.176 308.15 155.584L149.965 154.602C149.458 143.052 154.464 134.996 164.984 130.436C180.765 123.594 167.987 104.34 180.765 91.371C193.543 78.4023 198.991 78.4023 203.488 67.4158C203.998 66.1611 204.56 64.9284 205.174 63.721C200.051 63.455 195.874 60.4777 194.605 59.192C191.286 55.8273 190.009 49.798 194.605 44.7557Z" fill="#2563EB"/>
<path fill-rule="evenodd" clip-rule="evenodd" d="M294.967 136.264L341.826 177.218C353.019 186.999 355.627 203.372 348.028 216.144L331.336 244.197L282.333 229.284L300.172 208.02L279.691 187.712V237.591H210.388L203.089 193.338L185.97 224.506C181.196 233.2 170.374 236.531 161.532 232.029C152.663 227.514 148.938 216.812 153.087 207.772L181.742 145.338C183.465 141.585 186.076 138.308 189.35 135.789C192.624 133.271 196.462 131.587 200.533 130.884L240.447 123.984L282.019 130.264C286.819 130.989 291.312 133.071 294.967 136.264Z" fill="white" stroke="#01133B" stroke-width="1.32" stroke-linecap="round" stroke-linejoin="round"/>
<path d="M267.04 127.719C263.993 150.305 255.393 161.599 241.239 161.599C227.087 161.599 217.193 150.674 211.56 128.826" stroke="#01133B" stroke-width="1.32" stroke-linecap="round" stroke-linejoin="round"/>
<path d="M447.491 220.731H44.7001V353.985H447.491V220.731Z" fill="#F2F5FF"/>
<path d="M44.8566 220.275H446.747" stroke="#01133B" stroke-width="1.32" stroke-linecap="round" stroke-linejoin="round"/>
<path fill-rule="evenodd" clip-rule="evenodd" d="M231.168 242.761L259.184 248.828C259.916 248.987 260.609 249.294 261.218 249.73C261.827 250.167 262.34 250.724 262.725 251.367C263.11 252.009 263.359 252.724 263.456 253.467C263.554 254.209 263.498 254.964 263.292 255.684L250.975 298.761C250.592 300.099 249.715 301.24 248.521 301.955C247.326 302.669 245.905 302.903 244.545 302.609L216.53 296.541C215.798 296.382 215.106 296.075 214.497 295.638C213.887 295.202 213.375 294.645 212.989 294.002C212.604 293.36 212.355 292.645 212.258 291.902C212.16 291.16 212.216 290.405 212.422 289.684L224.738 246.608C225.12 245.27 225.998 244.128 227.192 243.414C228.386 242.699 229.808 242.466 231.168 242.761Z" fill="#01133B"/>
<path fill-rule="evenodd" clip-rule="evenodd" d="M231.828 247.309L256.112 252.717C256.631 252.833 257.12 253.053 257.551 253.363C257.982 253.674 258.345 254.069 258.618 254.524C258.892 254.98 259.069 255.486 259.14 256.012C259.211 256.538 259.175 257.073 259.032 257.585L248.481 295.42C248.212 296.385 247.583 297.21 246.723 297.725C245.863 298.24 244.838 298.405 243.859 298.187L240.228 297.379C240.055 297.34 239.899 297.244 239.788 297.105C239.676 296.966 239.615 296.794 239.615 296.616V295.77C239.615 295.352 239.473 294.946 239.212 294.62C238.951 294.293 238.587 294.065 238.179 293.972L227.069 291.447C226.619 291.345 226.148 291.382 225.719 291.554C225.291 291.726 224.925 292.025 224.67 292.41L224.1 293.271C224.013 293.403 223.888 293.506 223.741 293.565C223.594 293.624 223.432 293.638 223.277 293.603L219.575 292.78C219.057 292.664 218.567 292.444 218.136 292.133C217.705 291.823 217.342 291.427 217.069 290.972C216.796 290.516 216.619 290.01 216.548 289.484C216.477 288.958 216.514 288.423 216.656 287.911L227.206 250.077C227.475 249.112 228.104 248.287 228.964 247.772C229.824 247.257 230.849 247.091 231.828 247.309Z" fill="white"/>
<path fill-rule="evenodd" clip-rule="evenodd" d="M240.684 287.145C241.162 285.2 243.128 283.983 245.075 284.425C245.536 284.529 245.972 284.725 246.356 285C246.741 285.275 247.066 285.625 247.313 286.027C247.561 286.43 247.725 286.878 247.797 287.345C247.868 287.813 247.845 288.289 247.73 288.748C247.25 290.691 245.284 291.909 243.337 291.466C242.876 291.362 242.441 291.166 242.056 290.891C241.672 290.616 241.346 290.267 241.099 289.864C240.852 289.462 240.687 289.013 240.616 288.546C240.545 288.079 240.568 287.603 240.684 287.145ZM221.986 281.297L238.401 284.912L237.611 288.021L221.197 284.406L221.986 281.297ZM243.815 276.974C244.294 275.03 246.26 273.812 248.206 274.255C248.667 274.36 249.103 274.555 249.487 274.83C249.872 275.105 250.197 275.454 250.445 275.857C250.692 276.26 250.856 276.708 250.928 277.175C250.999 277.642 250.976 278.118 250.861 278.577C250.381 280.521 248.415 281.738 246.469 281.296C246.007 281.192 245.572 280.996 245.187 280.721C244.803 280.446 244.477 280.097 244.23 279.694C243.983 279.291 243.819 278.843 243.747 278.376C243.676 277.908 243.699 277.432 243.815 276.974ZM225.119 271.127L241.532 274.742L240.742 277.851L224.328 274.235L225.119 271.127ZM246.163 267.587C246.643 265.642 248.609 264.425 250.555 264.867C251.016 264.971 251.452 265.167 251.836 265.442C252.221 265.717 252.546 266.067 252.793 266.469C253.041 266.872 253.205 267.32 253.276 267.788C253.347 268.255 253.324 268.731 253.209 269.19C252.73 271.134 250.764 272.351 248.818 271.909C248.356 271.805 247.921 271.609 247.536 271.334C247.152 271.059 246.826 270.71 246.579 270.307C246.331 269.904 246.167 269.456 246.096 268.989C246.024 268.522 246.047 268.045 246.163 267.587ZM227.466 261.739L243.881 265.355L243.091 268.464L226.677 264.848L227.466 261.739ZM249.295 257.417C249.774 255.472 251.74 254.255 253.686 254.697C254.147 254.802 254.583 254.997 254.968 255.272C255.352 255.547 255.678 255.896 255.925 256.299C256.173 256.702 256.337 257.15 256.408 257.618C256.48 258.085 256.457 258.562 256.341 259.02C255.861 260.963 253.895 262.181 251.95 261.738C251.489 261.634 251.053 261.439 250.668 261.164C250.283 260.889 249.958 260.54 249.71 260.137C249.463 259.734 249.299 259.286 249.227 258.819C249.156 258.352 249.179 257.875 249.295 257.417ZM230.599 251.569L247.013 255.185L246.222 258.293L229.808 254.679L230.599 251.569Z" fill="#C7CAD5"/>
<path fill-rule="evenodd" clip-rule="evenodd" d="M303.279 204.933L349.031 214.268L321.666 260.168L295.856 272.516L274.187 269.878L275.198 238.314L303.279 204.933Z" fill="white"/>
<path fill-rule="evenodd" clip-rule="evenodd" d="M349.03 214.265L324.103 256.08C322.484 258.793 320.515 261.282 318.247 263.481L307.734 273.668C306.63 274.739 305.795 276.055 305.297 277.509C304.798 278.964 304.651 280.515 304.867 282.037L305.72 288.058C305.939 289.599 305.54 291.165 304.609 292.413C303.678 293.661 302.291 294.49 300.75 294.721C299.178 294.957 297.574 294.588 296.263 293.688C294.952 292.789 294.032 291.426 293.687 289.875L292.709 285.477C291.641 280.676 292.136 275.659 294.12 271.158L296.011 266.867" fill="white"/>
<path d="M349.03 214.265L324.103 256.08C322.484 258.793 320.515 261.282 318.247 263.481L307.734 273.668C306.63 274.739 305.795 276.055 305.297 277.509C304.798 278.964 304.651 280.515 304.867 282.037L305.72 288.058C305.939 289.599 305.54 291.165 304.609 292.413C303.678 293.661 302.291 294.49 300.75 294.721C299.178 294.957 297.574 294.588 296.263 293.688C294.952 292.789 294.032 291.426 293.687 289.875L292.709 285.477C291.641 280.676 292.136 275.659 294.12 271.158L296.011 266.867" stroke="#01133B" stroke-width="1.32" stroke-linecap="round" stroke-linejoin="round"/>
<path fill-rule="evenodd" clip-rule="evenodd" d="M266.866 244.643L254.323 246.885C252.84 247.151 251.311 246.822 250.068 245.97C248.824 245.118 247.966 243.812 247.679 242.333C247.539 241.612 247.544 240.869 247.695 240.15C247.846 239.43 248.14 238.748 248.559 238.144C248.978 237.54 249.514 237.026 250.135 236.632C250.756 236.238 251.45 235.973 252.175 235.851L280.349 231.13" fill="white"/>
<path d="M266.866 244.643L254.323 246.885C252.84 247.151 251.311 246.822 250.068 245.97C248.824 245.118 247.966 243.812 247.679 242.333C247.539 241.612 247.544 240.869 247.695 240.15C247.846 239.43 248.14 238.748 248.559 238.144C248.978 237.54 249.514 237.026 250.135 236.632C250.756 236.238 251.45 235.973 252.175 235.851L280.349 231.13" stroke="#01133B" stroke-width="1.32" stroke-linecap="round" stroke-linejoin="round"/>
<path fill-rule="evenodd" clip-rule="evenodd" d="M296.011 266.87L293.338 272.2C291.407 276.049 290.591 280.361 290.982 284.649L291.429 289.541C291.5 290.313 291.417 291.09 291.187 291.83C290.956 292.57 290.582 293.257 290.086 293.853C289.59 294.448 288.981 294.94 288.295 295.3C287.608 295.66 286.858 295.882 286.085 295.952L285.96 295.962C284.324 296.076 282.704 295.569 281.425 294.542C280.146 293.514 279.302 292.043 279.062 290.421L278.132 284.16C277.369 279.01 278.369 273.752 280.972 269.241L283.359 265.1" fill="white"/>
<path d="M296.011 266.87L293.338 272.2C291.407 276.049 290.591 280.361 290.982 284.649L291.429 289.541C291.5 290.313 291.417 291.09 291.187 291.83C290.956 292.57 290.582 293.257 290.086 293.853C289.59 294.448 288.981 294.94 288.295 295.3C287.608 295.66 286.858 295.882 286.085 295.952L285.96 295.962C284.324 296.076 282.704 295.569 281.425 294.542C280.146 293.514 279.302 292.043 279.062 290.421L278.132 284.16C277.369 279.01 278.369 273.752 280.972 269.241L283.359 265.1" stroke="#01133B" stroke-width="1.32" stroke-linecap="round" stroke-linejoin="round"/>
<path fill-rule="evenodd" clip-rule="evenodd" d="M283.362 265.102L279.641 270.991C277.435 274.482 276.207 278.5 276.083 282.626L275.944 287.238C275.898 288.788 275.245 290.259 274.124 291.333C273.004 292.406 271.507 292.998 269.955 292.98C268.381 292.962 266.873 292.345 265.738 291.254C264.603 290.164 263.928 288.682 263.848 287.111L263.356 277.372C263.239 275.023 263.821 272.693 265.031 270.676L273.26 256.955" fill="white"/>
<path d="M283.362 265.102L279.641 270.991C277.435 274.482 276.207 278.5 276.083 282.626L275.944 287.238C275.898 288.788 275.245 290.259 274.124 291.333C273.004 292.406 271.507 292.998 269.955 292.98C268.381 292.962 266.873 292.345 265.738 291.254C264.603 290.164 263.928 288.682 263.848 287.111L263.356 277.371C263.239 275.023 263.821 272.693 265.031 270.676L273.26 256.955" stroke="#01133B" stroke-width="1.32" stroke-linecap="round" stroke-linejoin="round"/>
<path fill-rule="evenodd" clip-rule="evenodd" d="M273.264 256.955L260.106 266.372L253.007 280.666C252.285 282.117 251.054 283.252 249.549 283.854C248.043 284.456 246.369 284.484 244.845 283.93C244.139 283.674 243.494 283.275 242.95 282.758C242.407 282.24 241.977 281.616 241.687 280.924C241.397 280.232 241.253 279.487 241.265 278.737C241.278 277.987 241.445 277.247 241.758 276.565L249.149 260.436C249.851 258.905 250.905 257.561 252.227 256.515L275.201 238.317L302.154 205.872" fill="white"/>
<path d="M273.264 256.955L260.106 266.372L253.007 280.666C252.285 282.117 251.054 283.252 249.549 283.854C248.043 284.456 246.369 284.484 244.845 283.93C244.139 283.674 243.494 283.275 242.95 282.758C242.407 282.24 241.977 281.616 241.687 280.924C241.397 280.232 241.253 279.487 241.265 278.737C241.278 277.987 241.445 277.247 241.758 276.565L249.149 260.436C249.851 258.905 250.905 257.561 252.227 256.515L275.201 238.317L302.154 205.872" stroke="#01133B" stroke-width="1.32" stroke-linecap="round" stroke-linejoin="round"/>
<path fill-rule="evenodd" clip-rule="evenodd" d="M265.295 127.719L260.594 220.275L287.001 220.62L291.792 216.038V201.287L300.172 208.02L280.383 226.953L334.153 258.217L353.983 221.103C361.558 206.924 358.465 189.406 346.488 178.675L299.967 136.987C294.755 132.317 288.15 129.493 281.171 128.951L265.295 127.719Z" fill="#EDEEF2" stroke="#01133B" stroke-width="1.32" stroke-linecap="round" stroke-linejoin="round"/>
<path d="M279.356 128.611L270.277 161.597L281.885 168.506C284.665 170.162 286.75 172.77 287.751 175.846C288.752 178.922 288.601 182.256 287.326 185.229L272.396 220.052M291.792 203.082V192.968" stroke="#01133B" stroke-width="1.32" stroke-linecap="round" stroke-linejoin="round"/>
<path fill-rule="evenodd" clip-rule="evenodd" d="M216.557 127.719L220.564 220.731L163.327 217.964L183.093 131.369L216.557 127.719ZM278.85 221.925L361.144 231.835L334.286 264.217L273.528 230.265L278.85 221.925Z" fill="#EDEEF2" stroke="#01133B" stroke-width="1.32" stroke-linecap="round" stroke-linejoin="round"/>
<path fill-rule="evenodd" clip-rule="evenodd" d="M277.967 234.163L320.253 261.696L323.045 258.217L277.967 232.808V234.163Z" fill="#1E4FBC"/>
<path fill-rule="evenodd" clip-rule="evenodd" d="M229.595 128.612L229.562 107.555L253.049 104.297V128.612" fill="white"/>
<path d="M229.595 128.612L229.562 107.555L253.049 104.297V128.612" stroke="#01133B" stroke-width="1.674" stroke-linecap="round" stroke-linejoin="round"/>
<mask id="mask1_296_11658" style="mask-type:alpha" maskUnits="userSpaceOnUse" x="229" y="104" width="25" height="37">
<path d="M229.562 107.555L253.049 104.297L253.026 128.695C253.021 135.168 247.768 140.413 241.29 140.413C234.812 140.413 229.562 135.167 229.562 128.695V107.555Z" fill="white"/>
</mask>
<g mask="url(#mask1_296_11658)">
<path d="M251.387 122.843C268.478 122.843 282.333 110.024 282.333 94.2095C282.333 78.3965 268.478 65.576 251.387 65.576C234.296 65.576 220.442 78.3965 220.442 94.2095C220.442 110.024 234.296 122.843 251.387 122.843Z" fill="#002628"/>
</g>
<path d="M252.425 64.1888C246.805 50.9623 231.525 44.7895 218.293 50.4C205.062 56.0117 198.892 71.281 204.511 84.5075L208.438 93.751C214.058 106.976 229.339 113.15 242.57 107.539C255.8 101.928 261.972 86.6577 256.352 73.4312L252.425 64.1888Z" fill="#2563EB"/>
<path d="M257.555 91.798L269.434 105.39L257.831 109.84L257.555 91.798Z" stroke="white" stroke-width="1.32" stroke-linejoin="round"/>
<path fill-rule="evenodd" clip-rule="evenodd" d="M252.028 68.3247L257.375 80.9083C262.11 92.0523 256.911 104.917 245.763 109.643C234.616 114.372 221.742 109.171 217.008 98.0268L211.661 85.4432C206.927 74.3003 212.125 61.4343 223.273 56.7082C234.42 51.9797 247.294 57.1818 252.028 68.3247Z" fill="white" stroke="#01133B" stroke-width="1.32" stroke-linecap="round" stroke-linejoin="round"/>
<mask id="mask2_296_11658" style="mask-type:alpha" maskUnits="userSpaceOnUse" x="208" y="54" width="52" height="59">
<path d="M251.908 67.8556L257.531 81.0891C262.355 92.4431 257.059 105.552 245.702 110.368C234.345 115.184 221.227 109.884 216.403 98.5285L210.779 85.2961C205.955 73.941 211.251 60.8323 222.608 56.0175C233.965 51.2015 247.083 56.5016 251.908 67.8556Z" fill="white"/>
</mask>
<g mask="url(#mask2_296_11658)">
<path fill-rule="evenodd" clip-rule="evenodd" d="M209.921 46.0471C211.604 47.5073 213.149 49.1182 214.537 50.8596C224.974 45.3425 241.836 39.1008 252.81 42.1038C268.002 46.2606 279.497 55.9556 274.507 60.5371C271.641 63.1691 268.114 66.6808 264.326 68.2873C253.129 73.0356 235.609 74.6491 222.271 70.7653C222.869 79.6285 220.132 88.6573 213.902 95.8206C211.284 98.838 208.158 101.374 204.665 103.315C197.779 107.141 190.013 76.2195 191.833 58.205C193.344 43.26 203.179 40.1881 209.921 46.0471Z" fill="#2563EB"/>
</g>
<path d="M245.273 100.666L243.424 101.5L242.467 101.838H240.505H239.307M240.358 87.8803L243.386 92.6998L240.754 94.3915" stroke="#01133B" stroke-width="1.32" stroke-linecap="round" stroke-linejoin="round"/>
<path d="M228.811 93.0195C231.175 92.0162 232.55 89.9267 231.88 88.3505C231.211 86.7755 228.751 86.3088 226.386 87.3122C224.021 88.3155 222.647 90.4062 223.317 91.9812C223.986 93.5574 226.446 94.0229 228.811 93.0195Z" stroke="#01133B" stroke-width="1.138" stroke-linecap="round" stroke-linejoin="round"/>
<path d="M227.898 93.933C229.317 93.331 229.924 91.5647 229.254 89.9897C228.585 88.4147 226.892 87.6237 225.473 88.2257C224.054 88.8277 223.447 90.5928 224.117 92.169C224.786 93.744 226.479 94.5338 227.898 93.933Z" fill="#01133B"/>
<path d="M250.834 83.6792C253.199 82.6758 254.573 80.5852 253.903 79.009C253.233 77.434 250.773 76.9685 248.409 77.9707C246.045 78.974 244.671 81.0647 245.34 82.6408C246.01 84.2158 248.47 84.6813 250.834 83.6792Z" stroke="#01133B" stroke-width="1.138" stroke-linecap="round" stroke-linejoin="round"/>
<path d="M249.921 84.5915C251.339 83.9895 251.947 82.2243 251.278 80.6481C250.607 79.0731 248.915 78.2833 247.496 78.8841C246.077 79.4861 245.47 81.2513 246.139 82.8275C246.81 84.4025 248.502 85.1923 249.921 84.5915Z" fill="#01133B"/>
<path fill-rule="evenodd" clip-rule="evenodd" d="M216.53 93.1315L214.034 93.765C213.253 93.963 212.527 94.3377 211.913 94.8603C211.3 95.3829 210.814 96.0394 210.494 96.7791C210.175 97.5188 210.029 98.322 210.069 99.1267C210.109 99.9315 210.334 100.716 210.726 101.421C211.702 103.181 213.188 104.606 214.988 105.508C216.788 106.41 218.819 106.749 220.815 106.478L222.126 106.3" fill="white"/>
<path d="M216.53 93.1315L214.034 93.765C213.253 93.963 212.527 94.3377 211.913 94.8603C211.3 95.3829 210.814 96.0394 210.494 96.7791C210.175 97.5188 210.029 98.322 210.069 99.1267C210.109 99.9315 210.334 100.716 210.726 101.421C211.702 103.181 213.188 104.606 214.988 105.508C216.788 106.41 218.819 106.749 220.815 106.478L222.126 106.3M215.462 98.2578L217.204 102.359M216.557 100.835L213.982 100.101" stroke="#01133B" stroke-width="1.708" stroke-linecap="round" stroke-linejoin="round"/>
<path d="M220.398 102.464L221.934 120.443L233.198 115.195L220.398 102.464Z" stroke="white" stroke-width="1.32" stroke-linejoin="round"/>
<path fill-rule="evenodd" clip-rule="evenodd" d="M210.744 129.399L188.209 120.752L200.571 95.781L208.884 102.097L210.744 129.399Z" fill="white" stroke="#01133B" stroke-width="1.716" stroke-linecap="round" stroke-linejoin="round"/>
<path fill-rule="evenodd" clip-rule="evenodd" d="M216.618 125.105L184.946 230.444C181.347 242.412 168.721 249.199 156.745 245.604C156.584 245.555 156.424 245.505 156.264 245.454C145.221 241.869 139.178 230.015 142.767 218.98C142.974 218.338 143.214 217.707 143.483 217.089L186.694 117.868" fill="white"/>
<path d="M216.618 125.105L184.946 230.444C181.347 242.412 168.721 249.199 156.745 245.604C156.584 245.555 156.424 245.505 156.264 245.454C145.221 241.869 139.178 230.015 142.767 218.98C142.974 218.338 143.214 217.707 143.483 217.089L186.694 117.868" stroke="#01133B" stroke-width="1.32" stroke-linecap="round" stroke-linejoin="round"/>
<path fill-rule="evenodd" clip-rule="evenodd" d="M209.165 124.215L218.326 112.509C219.079 111.546 220.163 110.897 221.368 110.687C222.573 110.478 223.812 110.723 224.847 111.375C225.323 111.675 225.731 112.072 226.044 112.54C226.357 113.007 226.569 113.536 226.665 114.09C226.761 114.645 226.739 115.213 226.601 115.759C226.463 116.305 226.212 116.815 225.865 117.258L213.953 132.412" fill="white"/>
<path d="M209.165 124.215L218.326 112.509C219.079 111.546 220.163 110.897 221.368 110.687C222.573 110.478 223.812 110.723 224.847 111.375C225.323 111.675 225.731 112.072 226.044 112.54C226.357 113.007 226.569 113.536 226.665 114.09C226.761 114.645 226.739 115.213 226.601 115.759C226.463 116.305 226.212 116.815 225.865 117.258L213.953 132.412" stroke="#01133B" stroke-width="1.32" stroke-linecap="round" stroke-linejoin="round"/>
<path fill-rule="evenodd" clip-rule="evenodd" d="M183.495 125.215L195.944 96.3212C196.714 94.533 198.089 93.0721 199.828 92.1935C201.566 91.315 203.559 91.0747 205.457 91.5145L215.225 93.7802C217.352 94.2732 219.198 95.5823 220.367 97.4247C221.535 99.2671 221.932 101.495 221.47 103.627L219.511 112.674C219.389 113.24 219.145 113.772 218.797 114.234C218.448 114.696 218.004 115.078 217.494 115.351C216.984 115.625 216.42 115.785 215.842 115.82C215.265 115.855 214.686 115.765 214.146 115.555C212.951 115.089 211.972 114.194 211.402 113.045C210.832 111.896 210.712 110.576 211.064 109.344L212.466 104.441L205.039 103.52L202.285 110.806" fill="white"/>
<path d="M183.495 125.215L195.944 96.3212C196.714 94.533 198.089 93.0721 199.828 92.1935C201.566 91.315 203.559 91.0747 205.457 91.5145L215.225 93.7802C217.352 94.2732 219.198 95.5823 220.367 97.4247C221.535 99.2671 221.932 101.495 221.47 103.627L219.511 112.674C219.389 113.24 219.145 113.772 218.797 114.234C218.448 114.696 218.004 115.078 217.494 115.351C216.984 115.625 216.42 115.785 215.842 115.82C215.265 115.855 214.686 115.765 214.146 115.555C212.951 115.089 211.972 114.194 211.402 113.045C210.832 111.896 210.712 110.576 211.064 109.344L212.466 104.441L205.039 103.52L202.285 110.807" stroke="#01133B" stroke-width="1.32" stroke-linecap="round" stroke-linejoin="round"/>
<path fill-rule="evenodd" clip-rule="evenodd" d="M172.12 123.984L223.814 144.659L193.822 234.163L143.314 220.275L172.12 123.984Z" fill="#EDEEF2" stroke="#01133B" stroke-width="1.32" stroke-linecap="round" stroke-linejoin="round"/>
<path fill-rule="evenodd" clip-rule="evenodd" d="M168.236 117L148 146.771L220.901 156L224 142.986L168.236 117Z" fill="#EDEEF2" stroke="#01133B" stroke-width="1.32" stroke-linecap="round" stroke-linejoin="round"/>
<path fill-rule="evenodd" clip-rule="evenodd" d="M151.022 148.21L220.442 155.584L219.859 157.085L151.022 152.009V148.21Z" fill="#01133B"/>
<mask id="mask3_296_11658" style="mask-type:alpha" maskUnits="userSpaceOnUse" x="98" y="150" width="125" height="125">
<path d="M160.796 274.723C195.124 274.723 222.954 246.913 222.954 212.61C222.954 178.305 195.124 150.496 160.796 150.496C126.467 150.496 98.6385 178.305 98.6385 212.61C98.6385 246.913 126.467 274.723 160.796 274.723Z" fill="white"/>
</mask>
<g mask="url(#mask3_296_11658)">
<path d="M160.796 274.723C195.124 274.723 222.954 246.913 222.954 212.61C222.954 178.305 195.124 150.496 160.796 150.496C126.467 150.496 98.6385 178.305 98.6385 212.61C98.6385 246.913 126.467 274.723 160.796 274.723Z" fill="#2563EB"/>
<mask id="mask4_296_11658" style="mask-type:alpha" maskUnits="userSpaceOnUse" x="-28" y="49" width="328" height="328">
<path d="M299.006 49.77H-27.7072V376.25H299.006V49.77Z" fill="white"/>
</mask>
<g mask="url(#mask4_296_11658)">
<path d="M299.006 49.77H-27.7072V376.25H299.006V49.77Z" fill="#2563EB"/>
<path d="M102.722 49.77C107.341 109.714 128.835 146.002 167.201 158.634C205.569 171.265 257.701 153.121 323.599 104.202" stroke="white" stroke-width="1.32"/>
<path d="M125.426 49.77C135.651 120.244 112.685 156.654 56.5279 159.001C-27.7072 162.522 33.1499 98.5973 61.8868 124.08C90.6248 149.562 88.2851 204.739 43.4473 242.557C13.5546 267.77 -20.5037 280.376 -58.7277 280.376M299.006 243.361C174.52 235.322 75.7765 279.62 2.7739 376.25" stroke="white" stroke-width="1.32"/>
<path d="M-27.7072 242.434C53.9501 264.307 106.593 308.912 130.223 376.25" stroke="white" stroke-width="1.32"/>
<path d="M299.006 165.073C243.909 220.032 205.45 236.011 183.626 213.01C150.89 178.509 213.419 151.341 222.642 182.176C231.865 213.01 182.556 237.482 116.906 248.366C73.1403 255.621 21.3512 287.364 -38.4598 343.593" stroke="white" stroke-width="1.32"/>
<path d="M-27.7072 174.278C101.108 200.285 202.189 270.721 275.538 385.586" stroke="white" stroke-width="1.32"/>
</g>
</g>
<path d="M215.248 278.829C216.26 278.829 217.262 278.629 218.197 278.243C219.132 277.856 219.982 277.288 220.697 276.573C221.413 275.858 221.98 275.01 222.367 274.075C222.755 273.141 222.954 272.14 222.954 271.129C222.954 270.117 222.755 269.116 222.367 268.182C221.98 267.248 221.413 266.399 220.697 265.684C219.982 264.969 219.132 264.402 218.197 264.015C217.262 263.628 216.26 263.429 215.248 263.429C213.205 263.429 211.245 264.24 209.8 265.684C208.355 267.128 207.543 269.086 207.543 271.129C207.543 273.171 208.355 275.129 209.8 276.573C211.245 278.017 213.205 278.829 215.248 278.829Z" fill="#2563EB"/>
<path d="M227.064 286.017C228.017 286.017 228.932 285.638 229.606 284.964C230.281 284.29 230.659 283.376 230.659 282.423C230.659 281.47 230.281 280.556 229.606 279.882C228.932 279.208 228.017 278.83 227.064 278.83C226.11 278.83 225.195 279.208 224.521 279.882C223.847 280.556 223.468 281.47 223.468 282.423C223.468 283.376 223.847 284.29 224.521 284.964C225.195 285.638 226.11 286.017 227.064 286.017Z" fill="#2563EB"/>
</g>
<path d="M132.961 237.561C133.42 237.561 133.879 237.561 140.43 238.141C146.981 238.72 159.61 239.878 168.144 240.221C176.678 240.565 180.734 240.058 183.398 239.507C187.301 238.701 189.235 237.202 190.702 236.071C193.305 234.064 193.804 230.767 193.805 229.526C193.806 228.393 192.269 226.822 188.962 224.091C186.784 222.291 183.054 220.273 175.078 217.417C167.101 214.561 154.855 211.085 145.026 208.969C135.197 206.853 128.155 206.202 123.494 205.613C116.728 204.758 114.332 203.778 113.753 203.159C113.419 202.802 113.251 202.178 113.248 201.554C113.24 200.26 114.782 198.231 117.553 195.351C119.121 193.722 121.55 192.253 124.11 190.817C126.671 189.381 129.426 188.15 131.994 187.154C134.561 186.158 136.857 185.434 140.566 184.953C144.274 184.471 149.326 184.254 155.105 184.359C160.883 184.465 167.236 184.899 174.477 185.566" stroke="#EEF1F7" stroke-width="2" stroke-linecap="round"/>
</svg>
