<svg width="60" height="60" viewBox="0 0 60 60" fill="none" xmlns="http://www.w3.org/2000/svg">
<path d="M22.2267 55.8702L22.7474 50.7128H26.0841L25.5741 55.8702H22.2267ZM16.7109 52.0586L19.6439 48.6438L22.1624 51.5768L19.2401 55.0056L16.7109 52.0586Z" fill="#9C4E12" stroke="black" stroke-width="0.3" stroke-miterlimit="10"/>
<path d="M26.8919 30.2808L28.4966 41.9984C28.6559 43.1744 28.3689 44.3646 27.7208 45.2006L21.0047 53.8294L18.2949 50.0746L23.8421 43.4578L22.7687 33.5254" fill="white"/>
<path d="M26.8919 30.2808L28.4966 41.9984C28.6559 43.1744 28.3689 44.3646 27.7208 45.2006L21.0047 53.8294L18.2949 50.0746L23.8421 43.4578L22.7687 33.5254" stroke="black" stroke-width="0.3" stroke-miterlimit="10" stroke-linecap="round" stroke-linejoin="round"/>
<path d="M22.3436 33.8232L23.4168 43.1462L22.1523 54.9206H26.0417L27.5187 44.1664C27.6038 43.4862 27.6251 42.792 27.5825 42.0978L27.1362 33.8232H22.3436Z" fill="white" stroke="black" stroke-width="0.3" stroke-miterlimit="10" stroke-linecap="round" stroke-linejoin="round"/>
<path d="M33.47 6.64697C33.4382 6.74617 33.3743 6.81697 33.2894 6.84537C32.96 6.93037 32.7049 7.24217 32.5349 7.79477C32.45 8.0806 32.3963 8.3812 32.3755 8.68737C32.3648 8.87157 32.248 8.99918 32.1205 8.98498C31.9823 8.97078 31.8866 8.81498 31.8973 8.64497C31.8973 8.61658 31.9186 8.12058 32.0885 7.56798C32.3224 6.80298 32.7049 6.33537 33.2044 6.20797C33.3319 6.17957 33.4594 6.29277 33.4807 6.46277C33.502 6.51957 33.4913 6.59037 33.47 6.64697Z" fill="#9C4E12" stroke="black" stroke-width="0.3" stroke-miterlimit="10"/>
<path d="M33.2142 5.89607C33.1929 5.95267 33.1716 5.99527 33.1292 6.03787C33.0974 6.06607 32.396 6.74627 32.1941 8.48907C32.1728 8.65907 32.0453 8.78647 31.9178 8.75827C31.7903 8.72987 31.6946 8.55987 31.7159 8.38987C31.9496 6.34947 32.8211 5.54187 32.8529 5.49927C32.9592 5.40027 33.1185 5.44267 33.1929 5.58427C33.2354 5.68347 33.246 5.79687 33.2142 5.89607Z" fill="#9C4E12" stroke="black" stroke-width="0.3" stroke-miterlimit="10"/>
<path d="M32.3114 6.95874C32.3114 6.95874 32.2052 7.63874 32.3539 7.61054L32.269 7.90794C32.269 7.90794 32.2052 7.45454 32.3114 6.95874Z" fill="black"/>
<path d="M32.3216 7.72412C32.3216 7.72412 32.279 8.00732 32.4597 8.12072L32.396 8.50352C32.396 8.50352 32.3003 8.14932 32.2578 7.90852L32.3216 7.72412Z" fill="black"/>
<path d="M33.0761 8.06425C32.9486 8.03585 32.8211 8.13505 32.7785 8.30505L32.5979 9.07025C32.4173 8.57425 32.2472 8.00745 32.2365 7.56825C32.2791 6.36385 32.651 5.75465 32.6723 5.72625C32.7048 5.68002 32.7237 5.61962 32.7254 5.55625C32.736 5.45705 32.7041 5.34365 32.6403 5.27285C32.5341 5.15945 32.3853 5.17365 32.3003 5.31545C32.2791 5.34385 31.9284 5.89625 31.8009 6.95905C31.769 7.24245 31.7052 7.52585 31.6308 7.79505C31.4609 8.37585 30.0687 15.0637 30.0687 15.0637L28.0391 16.2255L28.6979 19.9803L31.482 18.3651C31.7372 18.2233 31.9178 17.9115 31.9709 17.5573L33.2993 8.51765C33.3204 8.29085 33.2249 8.10665 33.0761 8.06425Z" fill="#9C4E12" stroke="black" stroke-width="0.3" stroke-miterlimit="10" stroke-linecap="round" stroke-linejoin="round"/>
<path d="M25.2754 16.335C26.6561 16.335 27.7754 15.2156 27.7754 13.835C27.7754 12.4543 26.6561 11.335 25.2754 11.335C23.8947 11.335 22.7754 12.4543 22.7754 13.835C22.7754 15.2156 23.8947 16.335 25.2754 16.335Z" fill="#9C4E12" stroke="black" stroke-width="0.3" stroke-miterlimit="10"/>
<path d="M24.1104 11.521C23.7284 11.6859 22.4952 12.7056 22.8335 14.9402C22.9754 15.8699 23.4993 16.335 23.4993 16.335C24.3068 15.9899 24.3396 14.3853 24.4051 14.4002C24.8417 14.5204 25.2891 14.0105 25.5728 13.2306C25.8785 12.3909 25.7475 11.5509 25.7475 11.5509C25.5073 11.4609 25.0162 11.1311 24.1104 11.521Z" fill="black"/>
<path d="M24.2754 15.335C24.408 15.335 24.5352 15.2296 24.6289 15.0421C24.7227 14.8545 24.7754 14.6002 24.7754 14.335C24.7754 14.0697 24.7227 13.8154 24.6289 13.6279C24.5352 13.4403 24.408 13.335 24.2754 13.335C24.1428 13.335 24.0156 13.4403 23.9218 13.6279C23.8281 13.8154 23.7754 14.0697 23.7754 14.335C23.7754 14.6002 23.8281 14.8545 23.9218 15.0421C24.0156 15.2296 24.1428 15.335 24.2754 15.335Z" fill="#9C4E12"/>
<path d="M26.7754 12.3347C26.7754 12.3347 26.0462 12.0763 25.7754 11.6625L26.0149 11.335C26.0045 11.335 26.5775 11.7829 26.7754 12.3347Z" fill="black"/>
<path d="M23.7754 14.335H24.7754" stroke="black" stroke-width="0.3" stroke-miterlimit="10" stroke-linecap="round" stroke-linejoin="round"/>
<path d="M35.3184 6.56201C35.3184 6.56201 35.6373 7.15721 35.8603 8.10641L35.3184 6.56201Z" fill="white"/>
<path d="M35.3184 6.56201C35.3184 6.56201 35.6373 7.15721 35.8603 8.10641" stroke="black" stroke-width="0.3" stroke-miterlimit="10" stroke-linecap="round" stroke-linejoin="round"/>
<path d="M36.2637 7.31299C36.2637 7.31299 36.5187 7.99299 36.6675 8.74399L36.2637 7.31299Z" fill="white"/>
<path d="M22.0039 21.8928V34.1204H27.4765V21.8078L29.772 20.3342L28.5817 15.8994C28.5817 15.8994 25.0324 17.798 23.8848 18.4498C22.7796 19.0874 22.0039 20.2918 22.0039 21.8928Z" fill="#7CA1F3" stroke="black" stroke-width="0.3" stroke-miterlimit="10" stroke-linecap="round" stroke-linejoin="round"/>
<path d="M25.5728 55.8701L28.1764 57.6979C28.2636 57.7586 28.3366 57.8502 28.3873 57.9627C28.4379 58.0753 28.4642 58.2043 28.4633 58.3355V58.4487C28.4627 58.4973 28.4479 58.5436 28.4221 58.578C28.3963 58.6123 28.3616 58.632 28.3252 58.6329H22.0768C22.0568 58.6328 22.037 58.6271 22.0189 58.616C22.0007 58.6049 21.9845 58.5887 21.9714 58.5686C21.9583 58.5485 21.9486 58.5248 21.943 58.4993C21.9373 58.4737 21.9358 58.4469 21.9386 58.4205L22.2361 55.8701H25.5728ZM19.7284 54.4105L20.0047 57.0317L20.4722 57.4851C20.6848 57.6977 20.8123 58.0235 20.8123 58.3779V58.4769C20.8123 58.5761 20.7592 58.6471 20.6848 58.6471H19.6009C19.5158 58.6471 19.4414 58.6045 19.3883 58.5195L15.8179 53.1495C15.7753 53.0787 15.7753 52.9795 15.8284 52.9227L17.6563 50.9817L19.7284 54.4105Z" fill="#B6BBE2" stroke="black" stroke-width="0.3" stroke-miterlimit="10"/>
<path d="M30.9183 26.7104H32.491L32.1616 31.2586C32.1565 31.3402 32.1284 31.4162 32.0831 31.4713C32.0378 31.5265 31.9785 31.5568 31.9171 31.5562H29.8981C29.7706 31.5562 29.6643 31.4286 29.6536 31.2586L29.3242 26.7104H30.9183Z" fill="#7CA1F3" stroke="black" stroke-width="0.3" stroke-miterlimit="10" stroke-linecap="round" stroke-linejoin="round"/>
<path d="M30.9188 25.1519H32.5766L32.7997 26.7105H29.0273L29.2504 25.1519H30.9188Z" fill="white" stroke="black" stroke-width="0.3" stroke-miterlimit="10" stroke-linecap="round"/>
<path d="M30.9204 24.7124H31.9512C32.1 24.7124 32.2275 24.8824 32.2275 25.0808V25.1516H29.6133V25.0808C29.6133 24.8824 29.7408 24.7124 29.8896 24.7124H30.9204Z" fill="#DEDFEA" stroke="black" stroke-width="0.3" stroke-miterlimit="10"/>
<path d="M29.3359 26.7104L32.4708 26.9654L32.4921 26.7104H29.3359Z" fill="black"/>
<path d="M30.6328 22.7996C30.5373 22.6578 30.4098 22.587 30.2823 22.5728C30.2253 22.5664 30.1716 22.5352 30.1293 22.484C30.087 22.4327 30.0586 22.3643 30.0484 22.2894C30.0271 22.1194 29.9527 21.9636 29.8359 21.8502C29.7417 21.7667 29.63 21.7257 29.5171 21.7334C29.4042 21.7411 29.2961 21.797 29.2089 21.8928C29.1562 21.9564 29.1141 22.034 29.0853 22.1206C29.0564 22.2072 29.0416 22.3009 29.0416 22.3957C29.0416 22.4904 29.0564 22.5841 29.0853 22.6707C29.1141 22.7574 29.1562 22.835 29.2089 22.8986C29.3046 23.012 29.4108 23.0688 29.5278 23.0688C29.634 23.0688 29.7297 23.182 29.7508 23.338C29.7615 23.4938 29.8252 23.6354 29.9103 23.7488C30.1335 24.018 30.4842 23.9614 30.6541 23.6354C30.7923 23.3804 30.7816 23.0262 30.6328 22.7996ZM28.539 20.6036C28.5786 20.6047 28.618 20.5954 28.6549 20.576C28.6918 20.5566 28.7254 20.5275 28.7537 20.4906C28.7821 20.4536 28.8046 20.4095 28.8199 20.3608C28.8353 20.312 28.8432 20.2597 28.8432 20.2069C28.8432 20.154 28.8353 20.1017 28.8199 20.053C28.8046 20.0042 28.7821 19.9601 28.7537 19.9231C28.7254 19.8862 28.6918 19.8572 28.6549 19.8378C28.618 19.8184 28.5786 19.809 28.539 19.8102C28.4612 19.8125 28.3872 19.8553 28.3329 19.9294C28.2785 20.0036 28.248 20.1032 28.248 20.2069C28.248 20.3106 28.2785 20.4101 28.3329 20.4843C28.3872 20.5584 28.4612 20.6012 28.539 20.6036Z" fill="white" stroke="black" stroke-width="0.3" stroke-miterlimit="10" stroke-linecap="round"/>
<path d="M32.4378 29.0198C32.6291 28.6372 32.6397 28.1556 32.4804 27.7446L32.4591 27.7022L29.4198 27.7162L29.3349 26.9936C29.3349 26.9936 29.1648 27.1354 29.0693 27.2628C28.9523 27.4046 28.8567 27.6454 28.8567 27.6454L25.8918 26.9086L25.9025 22.9414L22.502 24.6842V28.2406C22.502 29.2608 23.0864 30.125 23.8515 30.2242L28.8885 30.8902L29.4305 31.1736C29.5793 31.2302 29.7387 31.2586 29.898 31.2586H31.8852C32.0871 31.2586 32.2785 31.0744 32.3103 30.8052C32.3423 30.635 32.3316 30.4508 32.2997 30.2666V30.2526L32.3528 30.1108C32.4804 29.7992 32.4909 29.4308 32.3954 29.0906L32.4378 29.0198Z" fill="#9C4E12" stroke="black" stroke-width="0.3" stroke-miterlimit="10"/>
<path d="M26.0735 21.6238V25.6052H22.3223V21.6238" fill="#7CA1F3"/>
<path d="M26.0735 21.6238V25.6052H22.3223V21.6238" stroke="black" stroke-width="0.3" stroke-miterlimit="10" stroke-linecap="round" stroke-linejoin="round"/>
<path d="M23.6076 30.1958L27.4438 31.2444V30.7626L23.6076 30.1958ZM22.3965 34.1062L22.4389 34.6304L27.4228 34.2904L27.391 34.1344L22.3965 34.1062Z" fill="black"/>
<path d="M32.5872 9.07031L32.2578 9.80711" stroke="black" stroke-width="0.3" stroke-miterlimit="10" stroke-linecap="round" stroke-linejoin="round"/>
<path d="M28.4644 58.3357H21.9502M20.8021 58.3779H19.6864C19.642 58.3784 19.5981 58.366 19.5577 58.3415C19.5173 58.3171 19.4814 58.2811 19.4525 58.2362L15.8926 52.8521" stroke="black" stroke-width="0.3" stroke-miterlimit="10"/>
<path d="M15 58.6328H36.4125M39.844 58.6328H44.269M32.3322 2.8358L33.0017 4.281M34.4256 2L34.2344 4.1112M35.286 4.763L36.4125 4.0404" stroke="black" stroke-width="0.3" stroke-miterlimit="10" stroke-linecap="round" stroke-linejoin="round"/>
</svg>
