<svg width="393" height="300" viewBox="0 0 393 300" fill="none" xmlns="http://www.w3.org/2000/svg">
<path fill-rule="evenodd" clip-rule="evenodd" d="M231.709 143.602C302.415 165.864 344.857 169.814 363.521 199.455C382.185 229.096 364.541 265.986 297.72 275.074C230.898 284.162 232.426 296.562 131.574 298.96C30.723 301.358 -8.45347 196.5 59.357 161.182C127.166 125.863 161.003 121.34 231.709 143.602Z" fill="#F9F8FF"/>
<path d="M232.597 186.401L296.711 114.934L261.321 110.915L202.5 175.52L232.597 186.401ZM250.241 88.0719C249.457 88.0719 248.77 88.3659 248.28 88.9539C246.516 91.5039 243.477 92.6799 239.359 92.3859C236.026 92.1889 233.183 91.0129 233.183 91.0129C232.007 90.5229 230.732 91.1109 230.242 92.2869C229.752 93.4639 230.34 94.7379 231.516 95.2279C231.614 95.3269 234.948 96.6009 238.967 96.8949C244.653 97.2869 249.163 95.4249 251.908 91.6009C252.594 90.6209 252.398 89.2489 251.417 88.4639C251.025 88.2679 250.633 88.0719 250.241 88.0719ZM219.36 79.1509L235.045 83.6609C236.025 83.9549 236.614 84.9349 236.32 85.9149C236.123 86.6999 235.437 87.2879 234.653 87.2879L226.32 87.5819L219.36 79.1509Z" fill="#FFF8FB" stroke="black" stroke-width="0.98" stroke-miterlimit="10"/>
<path d="M253.772 92.4849C253.38 92.4849 252.89 92.5829 252.498 92.7789C252.204 92.9749 245.145 96.7989 233.479 93.2689C232.303 92.8769 231.028 93.5629 230.734 94.7389C230.342 95.9159 231.028 97.1899 232.205 97.4849C245.929 101.7 254.36 96.7979 254.752 96.6019C255.012 96.4624 255.24 96.2706 255.422 96.0387C255.604 95.8068 255.736 95.5397 255.809 95.2542C255.883 94.9687 255.897 94.6711 255.85 94.38C255.803 94.0889 255.696 93.8107 255.537 93.5629C255.243 92.8769 254.556 92.4849 253.772 92.4849Z" fill="#FFF8FB" stroke="black" stroke-width="0.98" stroke-miterlimit="10"/>
<path d="M214.752 77.7781L217.693 78.6611C223.085 80.2291 227.889 83.5621 231.32 87.9741C233.673 91.0131 236.614 94.2481 239.359 95.6211C247.005 98.8561 252.299 97.5811 252.593 97.4831C253.013 97.3851 253.449 97.3851 253.868 97.4831C254.554 97.6791 255.142 98.2671 255.338 99.0521C255.632 100.228 254.946 101.503 253.77 101.797C253.476 101.895 248.672 103.071 241.516 101.012C239.555 100.424 237.594 100.13 235.634 99.9341C231.418 99.5421 225.928 99.4441 218.576 96.9941L210.439 94.4441" fill="#FFF8FB"/>
<path d="M214.752 77.7781L217.693 78.6611C223.085 80.2291 227.889 83.5621 231.32 87.9741C233.673 91.0131 236.614 94.2481 239.359 95.6211C247.005 98.8561 252.299 97.5811 252.593 97.4831C253.013 97.3851 253.449 97.3851 253.868 97.4831C254.554 97.6791 255.142 98.2671 255.338 99.0521C255.632 100.228 254.946 101.503 253.77 101.797C253.476 101.895 248.672 103.071 241.516 101.012C239.555 100.424 237.594 100.13 235.634 99.9341C231.418 99.5421 225.928 99.4441 218.576 96.9941L210.439 94.4441" stroke="black" stroke-width="0.98" stroke-miterlimit="10"/>
<path d="M243.575 96.799C243.575 96.799 238.869 95.623 239.654 94.544L237.398 94.348C237.496 94.348 240.046 96.211 243.575 96.799ZM238.87 94.445C238.87 94.445 236.91 93.955 237.008 92.092L234.362 91.504C234.362 91.504 236.126 93.366 237.499 94.347L238.87 94.445ZM231.025 87.388L232.006 87.29C232.006 87.29 228.673 85.23 226.418 81.113L220.438 79.447C220.438 79.447 226.222 82.095 231.025 87.388Z" fill="black"/>
<path d="M124.074 62.582H167.798C171.719 62.582 175.738 63.072 179.562 64.151L223.971 75.915L217.599 96.796L180.934 85.62H132.309L124.074 62.582Z" fill="#2563EB" stroke="black" stroke-width="0.98" stroke-miterlimit="10" stroke-linecap="round" stroke-linejoin="round"/>
<path d="M68.391 207.967L56.332 245.318L84.762 257.474L95.84 245.318L119.172 157.185L68.391 207.967Z" fill="#FFF8FB" stroke="black" stroke-width="0.98" stroke-miterlimit="10"/>
<path d="M57.901 240.515L56.332 245.319L84.762 257.475L95.84 245.319L97.115 240.515H57.901Z" fill="white" stroke="black" stroke-width="0.98" stroke-miterlimit="10"/>
<path d="M120.935 253.455L106.916 262.866H21.92L8 253.455" stroke="black" stroke-width="0.98" stroke-miterlimit="10" stroke-linecap="round" stroke-linejoin="round"/>
<path d="M219.461 144.638L179.757 107.581L130.544 114.149L136.524 119.149L93.3889 146.5C88.4879 149.441 84.7619 154.147 83.0959 159.637L61.9199 225.81H103.683L120.741 175.126L162.699 152.382L201.325 188.165C211.128 196.498 225.833 195.517 234.558 185.91L291.418 120.913L250.636 111.698L219.461 144.638Z" fill="#DEDFEA" stroke="black" stroke-width="0.98" stroke-miterlimit="10" stroke-linecap="round" stroke-linejoin="round"/>
<path d="M162.699 152.383C183.188 141.403 190.05 122.777 179.756 107.483L162.699 152.383Z" fill="#DEDFEA"/>
<path d="M162.699 152.383C183.188 141.403 190.05 122.777 179.756 107.483" stroke="black" stroke-width="0.98" stroke-miterlimit="10"/>
<path d="M176.128 38.174C177.012 38.174 177.86 37.8227 178.485 37.1975C179.111 36.5722 179.462 35.7242 179.462 34.84C179.462 33.9557 179.111 33.1077 178.485 32.4825C177.86 31.8572 177.012 31.506 176.128 31.506C175.244 31.506 174.396 31.8572 173.77 32.4825C173.145 33.1077 172.794 33.9557 172.794 34.84C172.794 35.7242 173.145 36.5722 173.77 37.1975C174.396 37.8227 175.244 38.174 176.128 38.174ZM159.071 28.467C155.16 28.0814 151.254 29.2427 148.189 31.702C147.153 32.5119 145.876 32.952 144.562 32.952C143.247 32.952 141.97 32.5119 140.935 31.702C138.876 30.133 135.739 28.762 131.524 28.762C128.19 28.859 125.053 29.643 122.798 31.702C118.289 35.819 116.034 29.742 110.936 28.271C107.407 27.291 96.6228 59.838 106.231 59.74C110.25 59.642 113.093 58.367 115.152 56.897C117.505 55.132 120.838 55.034 123.289 56.701C125.838 58.465 128.877 59.446 132.112 59.348C135.543 59.25 138.092 58.368 140.053 57.093C143.092 55.23 146.915 55.034 150.052 56.799C152.405 58.171 155.15 58.956 157.993 58.858C167.012 58.76 174.07 50.818 172.894 41.603C171.914 34.545 166.228 29.055 159.071 28.467Z" fill="black"/>
<path d="M104.368 60.3279C113.464 60.3279 120.838 52.9539 120.838 43.8579C120.838 34.7619 113.464 27.3879 104.368 27.3879C95.2724 27.3879 87.8984 34.7619 87.8984 43.8579C87.8984 52.9539 95.2724 60.3279 104.368 60.3279Z" fill="#FFF8FB" stroke="black" stroke-width="0.98" stroke-miterlimit="10"/>
<path d="M113.583 30.0331C116.328 31.6021 124.465 39.3461 119.269 51.2081C117.112 56.1101 112.505 57.8751 112.505 57.8751C106.72 54.6401 108.681 44.7381 108.191 44.7381C104.76 44.6401 101.231 42.5811 99.1717 37.3861C97.5047 33.1701 98.5837 28.6611 98.5837 28.6611C100.642 27.9741 107.015 26.4061 113.583 30.0331Z" fill="black"/>
<path d="M109.366 51.8959C110.614 51.8959 111.811 51.4001 112.694 50.5175C113.576 49.635 114.072 48.438 114.072 47.1899C114.072 45.9418 113.576 44.7448 112.694 43.8622C111.811 42.9797 110.614 42.4839 109.366 42.4839C108.118 42.4839 106.921 42.9797 106.039 43.8622C105.156 44.7448 104.66 45.9418 104.66 47.1899C104.66 48.438 105.156 49.635 106.039 50.5175C106.921 51.4001 108.118 51.8959 109.366 51.8959Z" fill="#FFF8FB"/>
<path d="M95.25 30.3291C95.25 30.3291 98.485 31.3091 102.603 30.1331L101.328 27.6821C101.426 27.6821 97.407 27.9761 95.25 30.3291Z" fill="black"/>
<path d="M110.934 45.425L107.797 46.8951" stroke="black" stroke-width="0.735" stroke-miterlimit="10" stroke-linecap="round" stroke-linejoin="round"/>
<path d="M96.1347 30.0349C96.1347 30.0349 93.0957 29.6429 93.0957 26.2119" stroke="black" stroke-width="0.98" stroke-miterlimit="10"/>
<path d="M179.755 107.581L145.443 73.368C133.875 62.094 115.444 61.799 103.484 72.681L96.2305 79.838L133.973 121.012L179.755 107.581Z" fill="#2563EB" stroke="black" stroke-width="0.98" stroke-miterlimit="10"/>
<path d="M145.445 73.2691C132.897 59.7401 116.917 59.6421 107.016 68.8571L79.7619 92.6801C69.0759 95.7191 65.5469 100.13 65.5469 106.502C65.5469 112.973 70.6449 118.267 77.1149 118.659C84.0749 119.051 88.8789 116.796 92.5069 114.443C101.33 108.659 127.995 88.9541 127.995 88.9541" fill="#2563EB"/>
<path d="M145.445 73.2691C132.897 59.7401 116.917 59.6421 107.016 68.8571L79.7619 92.6801C69.0759 95.7191 65.5469 100.13 65.5469 106.502C65.5469 112.973 70.6449 118.267 77.1149 118.659C84.0749 119.051 88.8789 116.796 92.5069 114.443C101.33 108.659 127.995 88.9541 127.995 88.9541" stroke="black" stroke-width="0.98" stroke-miterlimit="10" stroke-linecap="round" stroke-linejoin="round"/>
<path d="M95.8409 245.32C93.3909 245.32 91.1359 246.398 89.5669 248.359L88.2929 249.927C87.0179 251.496 84.4689 251.3 83.3909 249.535L83.2929 249.437C82.5918 248.212 81.5782 247.194 80.3555 246.488C79.1329 245.782 77.7448 245.413 76.3329 245.418H56.3329L36.4329 257.476C35.5499 258.064 34.9629 259.044 34.9629 260.123V262.966H91.4299L95.8409 245.32Z" fill="#07142F" stroke="black" stroke-width="0.98" stroke-miterlimit="10"/>
<path d="M34.9619 259.927H92.0179L91.3319 262.868H34.9609L34.9619 259.927ZM296.71 114.934L304.062 106.993L275.731 94.8369L264.555 106.993L261.32 110.915L296.71 114.934Z" fill="white" stroke="black" stroke-width="0.98" stroke-miterlimit="10"/>
<path d="M264.555 106.994C267.006 106.994 269.261 105.916 270.829 103.955L272.104 102.386C273.378 100.818 275.927 101.014 277.005 102.778L277.103 102.877C277.804 104.102 278.818 105.12 280.041 105.826C281.264 106.532 282.652 106.901 284.064 106.896H304.161L324.062 94.8379C324.944 94.2499 325.532 93.2689 325.532 92.1909V89.3479H269.065L264.555 106.994Z" fill="#0098A0" stroke="#0098A0" stroke-width="0.98" stroke-miterlimit="10"/>
<path d="M325.531 92.3851H268.377L269.063 89.4451H325.531V92.3851Z" fill="white" stroke="black" stroke-width="0.98" stroke-miterlimit="10"/>
<path d="M133.876 62.8781C145.248 66.2111 172.697 85.6221 172.697 85.6221L158.09 85.5241C158.09 85.5241 142.405 69.5441 138.091 66.6041C135.15 64.6431 127.209 62.4861 127.209 62.4861C127.209 62.4861 132.209 62.4861 133.876 62.8781Z" fill="black"/>
<path d="M79.7617 92.6799L74.4688 97.4839" stroke="black" stroke-width="0.98" stroke-miterlimit="10" stroke-linecap="round" stroke-linejoin="round"/>
<path d="M75.5452 96.306C75.5452 96.306 74.4672 94.444 70.7422 97.189C73.7802 94.248 78.8782 92.973 78.8782 92.973L75.5452 96.306ZM127.404 89.543L115.934 101.503L114.169 99.248L127.404 89.543Z" fill="black"/>
<path d="M142.308 261.691C140.445 261.789 138.484 261.789 136.524 261.789M317.493 133.854C294.553 198.752 237.694 247.573 168.285 259.141M103.682 225.809H138.582M78.3886 118.66L103.878 118.562M253.774 193.361H256.029M216.715 193.851L247.204 193.459M85.9376 220.613H120.838M146.719 225.809H148.778M36.3316 272.868C36.9941 272.877 37.6519 272.755 38.2667 272.508C38.8814 272.261 39.441 271.894 39.9128 271.429C40.3846 270.964 40.7592 270.409 41.0149 269.798C41.2707 269.187 41.4023 268.531 41.4023 267.869C41.4023 267.206 41.2707 266.55 41.0149 265.939C40.7592 265.328 40.3846 264.773 39.9128 264.308C39.441 263.843 38.8814 263.476 38.2667 263.229C37.6519 262.982 36.9941 262.86 36.3316 262.869C35.0179 262.888 33.7643 263.423 32.8419 264.358C31.9195 265.294 31.4023 266.555 31.4023 267.869C31.4023 269.182 31.9195 270.443 32.8419 271.379C33.7643 272.315 35.0179 272.849 36.3316 272.868ZM91.5246 272.868C92.1871 272.877 92.8449 272.755 93.4597 272.508C94.0745 272.261 94.6341 271.894 95.1059 271.429C95.5778 270.964 95.9525 270.41 96.2083 269.799C96.464 269.188 96.5958 268.532 96.5958 267.869C96.5959 267.206 96.4643 266.551 96.2086 265.939C95.953 265.328 95.5784 264.774 95.1066 264.308C94.6349 263.843 94.0754 263.476 93.4606 263.229C92.8459 262.982 92.1881 262.86 91.5256 262.869C90.2119 262.888 88.9583 263.423 88.0359 264.358C87.1135 265.294 86.5963 266.555 86.5963 267.869C86.5963 269.182 87.1135 270.443 88.0359 271.379C88.9583 272.315 90.2109 272.849 91.5246 272.868Z" stroke="black" stroke-width="0.98" stroke-miterlimit="10" stroke-linecap="round" stroke-linejoin="round"/>
<path d="M218.478 74.6411L212.596 95.1311M79.6621 225.123L100.25 160.323L154.462 127.285M272.497 116.992L223.186 172.283C221.03 174.734 217.304 174.832 214.951 172.577L178.973 138.363" stroke="black" stroke-width="0.49" stroke-miterlimit="10" stroke-linecap="round" stroke-linejoin="round"/>
<path d="M246.125 56.703H386.02C386.02 56.703 374.06 57.88 371.119 48.273C367.688 36.9 347.787 56.115 346.12 43.077C345.336 36.607 340.434 25.137 324.062 31.705C307.691 38.273 291.613 56.409 287.006 47.195C282.398 37.979 246.125 56.703 246.125 56.703ZM235.243 56.704H218.381C218.381 56.704 234.753 47.587 235.243 56.704Z" stroke="black" stroke-width="0.98" stroke-miterlimit="10" stroke-linecap="round" stroke-linejoin="round"/>
</svg>
