<svg width="371" height="320" viewBox="0 0 371 320" fill="none" xmlns="http://www.w3.org/2000/svg">
<path d="M193.695 118.609H0.554688V315.725H193.695V118.609Z" fill="#E2FF82" stroke="black" stroke-width="1.108" stroke-miterlimit="10" stroke-linecap="round" stroke-linejoin="round"/>
<path d="M193.695 150.875H0.554688V319.396H193.695V150.875Z" fill="white" stroke="black" stroke-width="1.108" stroke-miterlimit="10" stroke-linecap="round" stroke-linejoin="round"/>
<path d="M174.273 138.031C174.763 138.045 175.251 137.96 175.708 137.781C176.165 137.603 176.582 137.335 176.933 136.993C177.285 136.651 177.565 136.242 177.755 135.79C177.946 135.338 178.044 134.852 178.044 134.362C178.044 133.871 177.946 133.386 177.755 132.934C177.565 132.482 177.285 132.073 176.933 131.731C176.582 131.389 176.165 131.121 175.708 130.942C175.251 130.764 174.763 130.679 174.273 130.692C173.317 130.719 172.409 131.117 171.743 131.802C171.076 132.487 170.703 133.406 170.703 134.362C170.703 135.318 171.076 136.236 171.743 136.922C172.409 137.607 173.317 138.005 174.273 138.031ZM154.549 138.031C155.039 138.045 155.527 137.96 155.984 137.781C156.441 137.603 156.858 137.335 157.209 136.993C157.561 136.651 157.84 136.242 158.031 135.79C158.222 135.338 158.32 134.852 158.32 134.362C158.32 133.871 158.222 133.386 158.031 132.934C157.84 132.482 157.561 132.073 157.209 131.731C156.858 131.389 156.441 131.121 155.984 130.942C155.527 130.764 155.039 130.679 154.549 130.692C153.593 130.719 152.685 131.117 152.018 131.802C151.352 132.487 150.979 133.406 150.979 134.362C150.979 135.318 151.352 136.236 152.018 136.922C152.685 137.607 153.593 138.005 154.549 138.031Z" fill="black"/>
<path d="M193.849 145.218H155.312V310.221H193.849V145.218Z" fill="#0F285E" stroke="black" stroke-width="1.108" stroke-miterlimit="10" stroke-linecap="round" stroke-linejoin="round"/>
<path d="M369.404 107.293H158.219V139.407H369.404V107.293Z" fill="#D8FF59" stroke="black" stroke-width="1.108" stroke-miterlimit="10" stroke-linecap="round" stroke-linejoin="round"/>
<path d="M0.554688 276.578L82.8262 207.763L52.8539 180.543C46.2782 174.426 45.3605 164.333 50.8653 157.146C56.9829 149.194 68.4521 147.97 76.0973 154.392L92.1549 168.003L177.026 157.605L181.92 198.893C180.238 207.151 177.486 215.103 173.509 222.443C169.533 229.936 164.181 236.665 158.064 242.476L68.6039 319.243H0.707868V276.578H0.554688Z" fill="white" stroke="black" stroke-width="1.108" stroke-miterlimit="10" stroke-linecap="round" stroke-linejoin="round"/>
<path d="M150.877 179.626L141.395 102.859C140.477 94.9061 145.983 87.7204 153.935 86.6482C161.886 85.7305 169.073 91.2367 170.144 99.1882L179.32 177.332" fill="black"/>
<path d="M150.877 179.626L141.395 102.859C140.477 94.9061 145.983 87.7204 153.935 86.6482C161.886 85.7305 169.073 91.2367 170.144 99.1882L179.32 177.332" stroke="black" stroke-width="1.108" stroke-miterlimit="10" stroke-linecap="round" stroke-linejoin="round"/>
<path d="M134.513 170.144L124.421 88.1772C123.35 79.7675 129.467 71.9678 137.877 70.8969C146.288 69.8274 154.086 75.9435 155.157 84.3546L165.251 166.321" fill="white"/>
<path d="M134.513 170.144L124.421 88.1772C123.35 79.7675 129.467 71.9678 137.877 70.8969C146.288 69.8274 154.086 75.9435 155.157 84.3546L165.251 166.321" stroke="black" stroke-width="1.108" stroke-miterlimit="10" stroke-linecap="round" stroke-linejoin="round"/>
<path d="M115.858 163.11L105.764 81.1435C104.693 72.7338 110.811 64.9341 119.222 63.8632C127.632 62.7937 135.432 68.9098 136.502 77.3209L146.594 159.287" fill="white"/>
<path d="M115.858 163.11L105.764 81.1435C104.693 72.7338 110.811 64.9341 119.222 63.8632C127.632 62.7937 135.432 68.9098 136.502 77.3209L146.594 159.287" stroke="black" stroke-width="1.108" stroke-miterlimit="10" stroke-linecap="round" stroke-linejoin="round"/>
<path d="M92.457 168.616L83.1296 89.5558C82.0587 81.1434 88.1762 73.345 96.5859 72.2741C104.997 71.2032 112.797 77.3208 113.866 85.7319L123.96 167.698" fill="white"/>
<path d="M92.457 168.616L83.1296 89.5558C82.0587 81.1434 88.1762 73.345 96.5859 72.2741C104.997 71.2032 112.797 77.3208 113.866 85.7319L123.96 167.698" stroke="black" stroke-width="1.108" stroke-miterlimit="10" stroke-linecap="round" stroke-linejoin="round"/>
<path d="M107.141 151.641C107.141 151.641 114.174 186.048 116.163 186.048C118.15 186.048 173.203 199.659 173.203 199.659L177.178 168.921L161.733 154.241L107.141 151.641Z" fill="white"/>
<path d="M128.091 202.718C128.091 202.718 130.078 166.781 92.459 168.616L128.091 202.718Z" fill="white"/>
<path d="M173.356 220.914L132.373 182.683C125.797 176.567 124.88 166.473 130.384 159.286C136.502 151.333 147.971 150.111 155.616 156.533L171.674 170.144L209.446 131.148L173.356 220.914Z" fill="black" stroke="black" stroke-width="1.108" stroke-miterlimit="10" stroke-linecap="round" stroke-linejoin="round"/>
<path d="M369.404 259.909L263.734 166.78L212.353 121.514L177.639 166.473L161.583 152.864C153.936 146.441 142.467 147.664 136.349 155.615C130.845 162.804 131.762 172.896 138.338 179.013L269.239 301.198L369.251 300.892V259.909H369.404Z" fill="white" stroke="black" stroke-width="1.108" stroke-miterlimit="10" stroke-linecap="round" stroke-linejoin="round"/>
<path d="M236.362 178.095L226.881 101.328C225.963 93.3754 231.468 86.1898 239.42 85.1189C247.373 84.2012 254.56 89.706 255.629 97.6576L263.582 166.626" fill="white"/>
<path d="M236.362 178.095L226.881 101.328C225.963 93.3754 231.468 86.1898 239.42 85.1189C247.373 84.2012 254.56 89.706 255.629 97.6576L263.582 166.626" stroke="black" stroke-width="1.108" stroke-miterlimit="10" stroke-linecap="round" stroke-linejoin="round"/>
<path d="M218.619 168.613L208.526 86.6482C207.455 78.2371 213.573 70.4373 221.984 69.3678C230.394 68.297 238.193 74.4145 239.263 82.8242L249.356 164.791" fill="white"/>
<path d="M218.619 168.613L208.526 86.6482C207.455 78.2371 213.573 70.4373 221.984 69.3678C230.394 68.297 238.193 74.4145 239.263 82.8242L249.356 164.791" stroke="black" stroke-width="1.108" stroke-miterlimit="10" stroke-linecap="round" stroke-linejoin="round"/>
<path d="M198.739 161.58L188.647 79.6145C187.576 71.2034 193.694 63.4037 202.104 62.3342C210.515 61.2633 218.313 67.3795 219.384 75.7906L229.477 157.757" fill="white"/>
<path d="M198.739 161.58L188.647 79.6145C187.576 71.2034 193.694 63.4037 202.104 62.3342C210.515 61.2633 218.313 67.3795 219.384 75.7906L229.477 157.757" stroke="black" stroke-width="1.108" stroke-miterlimit="10" stroke-linecap="round" stroke-linejoin="round"/>
<path d="M178.095 167.085L168.766 88.0253C167.697 79.6142 173.813 71.8144 182.224 70.7436C190.635 69.6741 198.433 75.7902 199.504 84.2013L209.597 166.168" fill="white"/>
<path d="M178.095 167.085L168.766 88.0253C167.697 79.6142 173.813 71.8144 182.224 70.7436C190.635 69.6741 198.433 75.7902 199.504 84.2013L209.597 166.168" stroke="black" stroke-width="1.108" stroke-miterlimit="10" stroke-linecap="round" stroke-linejoin="round"/>
<path d="M192.775 150.11C192.775 150.11 199.809 184.517 201.798 184.517C203.785 184.517 258.837 198.128 258.837 198.128L263.731 166.626L252.415 152.863L192.775 150.11Z" fill="white"/>
<path d="M369.403 259.908L259.451 163.568" stroke="black" stroke-width="1.108" stroke-miterlimit="10" stroke-linecap="round" stroke-linejoin="round"/>
<path d="M82.8266 206.693L86.0379 210.669L49.1836 235.289L82.8266 206.693Z" fill="black"/>
<path d="M89.5537 213.88L82.8262 207.764" stroke="black" stroke-width="1.108" stroke-miterlimit="10" stroke-linecap="round" stroke-linejoin="round"/>
<path d="M308.853 190.944C309.729 197.148 307.782 203.236 303.168 207.45L241.001 264.225C233.078 271.461 220.016 270.1 211.878 261.188C203.739 252.277 203.565 239.145 211.488 231.909L216.363 227.457L228.988 215.927L273.654 175.134C281.578 167.898 294.639 169.261 302.777 178.172C306.176 181.893 308.264 186.452 308.853 190.944Z" fill="#00BEC8" stroke="black" stroke-width="1.108" stroke-miterlimit="10" stroke-linecap="round" stroke-linejoin="round"/>
<path d="M39.3022 241.257C32.3313 234.285 31.7566 223.394 38.178 216.972C40.8527 214.297 44.3884 212.774 48.0527 212.507V212.506C53.1095 212.085 58.4015 214.034 62.4634 218.095L115.746 271.378C122.718 278.35 123.293 289.243 116.871 295.665C110.449 302.087 99.5563 301.511 92.5852 294.54L39.3022 241.257Z" fill="#7CA1F3" stroke="black" stroke-width="1.108" stroke-miterlimit="10" stroke-linecap="round" stroke-linejoin="round"/>
<path d="M114.023 30.2201L136.504 51.0167M160.053 0.554199L163.265 42.9133M196.142 43.6764L211.434 23.7975" stroke="#00BEC8" stroke-width="1.108" stroke-miterlimit="10" stroke-linecap="round" stroke-linejoin="round"/>
<path d="M332.703 64.1694H370.475M309.305 77.779H370.473M346.619 91.3899H370.475" stroke="#CCF2F4" stroke-width="1.108" stroke-miterlimit="10"/>
<circle cx="257.842" cy="219.974" r="32.74" fill="#99E5E9" stroke="black" stroke-width="2"/>
<path d="M257.555 219.554V243.014" stroke="black" stroke-width="3" stroke-linecap="round"/>
<path d="M257.555 219.554H281.015" stroke="black" stroke-width="3" stroke-linecap="round"/>
</svg>
