<svg width="67" height="67" viewBox="0 0 67 67" fill="none" xmlns="http://www.w3.org/2000/svg">
<path d="M58.2783 33.361C58.2783 47.1681 47.0854 58.361 33.2783 58.361C19.4712 58.361 8.27832 47.1681 8.27832 33.361C8.27832 19.5538 19.4712 8.36096 33.2783 8.36096C47.0854 8.36096 58.2783 19.5538 58.2783 33.361Z" fill="#FFC13B"/>
<path d="M51.5476 30.4763C51.5476 42.1593 42.0766 51.6302 30.3937 51.6302C18.7108 51.6302 9.23986 42.1593 9.23986 30.4763C9.23986 18.7934 18.7108 9.3225 30.3937 9.3225C42.0766 9.3225 51.5476 18.7934 51.5476 30.4763Z" fill="#FFD549"/>
<path d="M31.9058 17.5526C33.3414 20.405 31.03 24.4663 26.7433 26.6238C22.4565 28.7812 17.8177 28.2179 16.3821 25.3655C14.9465 22.5132 17.2579 18.4519 21.5446 16.2944C25.8314 14.1369 30.4702 14.7002 31.9058 17.5526Z" fill="#FFEC8B" fill-opacity="0.5"/>
<path d="M33.8278 1.29744C34.0094 0.919811 34.5472 0.919811 34.7289 1.29744L38.2636 8.64418C38.4233 8.97614 38.1814 9.36096 37.813 9.36096H30.7436C30.3752 9.36096 30.1333 8.97614 30.2931 8.64418L33.8278 1.29744Z" fill="#FFD549"/>
<path d="M7.74518 13.9583C7.54808 13.5885 7.86606 13.1548 8.27803 13.2316L16.2929 14.7253C16.655 14.7928 16.8223 15.2154 16.6045 15.5125L12.4242 21.2135C12.2064 21.5106 11.753 21.4781 11.5797 21.1531L7.74518 13.9583Z" fill="#FFD549"/>
<path d="M2.53202 42.4788C2.11723 42.419 1.95553 41.9062 2.26106 41.6193L8.20497 36.0391C8.47353 35.787 8.91329 35.902 9.02405 36.2533L11.1497 42.9956C11.2605 43.3469 10.9662 43.6933 10.6016 43.6408L2.53202 42.4788Z" fill="url(#paint0_linear_840_6671)"/>
<path d="M22.4491 63.5475C22.1557 63.8466 21.6465 63.6738 21.5958 63.2578L20.6105 55.1647C20.566 54.799 20.9187 54.5124 21.2676 54.6308L27.9617 56.9034C28.3105 57.0218 28.4159 57.464 28.158 57.727L22.4491 63.5475Z" fill="url(#paint1_linear_840_6671)"/>
<path d="M51.2176 59.9441C51.2853 60.3577 50.8448 60.6661 50.4794 60.4609L43.3701 56.47C43.0489 56.2897 43.0264 55.8357 43.3281 55.6244L49.1192 51.5698C49.421 51.3585 49.8398 51.535 49.8994 51.8985L51.2176 59.9441Z" fill="url(#paint2_linear_840_6671)"/>
<path d="M65.3227 34.6132C65.6963 34.8031 65.6845 35.3407 65.303 35.5141L57.8807 38.8874C57.5454 39.0398 57.1659 38.7895 57.174 38.4212L57.3285 31.3535C57.3366 30.9852 57.7266 30.7518 58.055 30.9187L65.3227 34.6132Z" fill="url(#paint3_linear_840_6671)"/>
<path d="M53.2353 8.2596C53.6094 8.07063 54.036 8.39801 53.9502 8.80821L52.2816 16.7885C52.2062 17.149 51.78 17.3071 51.4878 17.0828L45.8795 12.7789C45.5873 12.5546 45.6296 12.1021 45.9584 11.936L53.2353 8.2596Z" fill="url(#paint4_linear_840_6671)"/>
<path d="M24.8358 2.42403C24.9046 2.01065 25.4209 1.8602 25.701 2.17192L31.1499 8.2364C31.3961 8.51042 31.2715 8.94755 30.9179 9.05061L24.1307 11.0284C23.7771 11.1315 23.4372 10.8297 23.4976 10.4663L24.8358 2.42403Z" fill="#FFD549"/>
<path d="M3.33571 21.8758C3.04301 21.5759 3.22697 21.0706 3.64397 21.0291L11.7567 20.2209C12.1232 20.1844 12.4021 20.5433 12.2761 20.8895L9.85768 27.5324C9.73167 27.8785 9.28731 27.9742 9.03002 27.7105L3.33571 21.8758Z" fill="#FFD549"/>
<path d="M6.3091 50.7165C5.89416 50.7752 5.59544 50.3281 5.80852 49.9672L9.95392 42.9469C10.1412 42.6297 10.5956 42.6171 10.8002 42.9234L14.7273 48.8017C14.9319 49.108 14.7463 49.5229 14.3816 49.5745L6.3091 50.7165Z" fill="url(#paint5_linear_840_6671)"/>
<path d="M32.7289 65.4244C32.5472 65.802 32.0094 65.802 31.8278 65.4244L28.2931 58.0776C28.1333 57.7457 28.3752 57.3608 28.7436 57.3608H35.813C36.1814 57.3608 36.4233 57.7457 36.2636 58.0776L32.7289 65.4244Z" fill="url(#paint6_linear_840_6671)"/>
<path d="M58.8115 52.7636C59.0086 53.1335 58.6906 53.5671 58.2786 53.4904L50.2638 51.9966C49.9016 51.9291 49.7343 51.5065 49.9522 51.2094L54.1324 45.5084C54.3503 45.2113 54.8036 45.2438 54.9769 45.5689L58.8115 52.7636Z" fill="url(#paint7_linear_840_6671)"/>
<path d="M64.0227 24.2432C64.4375 24.3029 64.5992 24.8158 64.2936 25.1026L58.3497 30.6828C58.0812 30.9349 57.6414 30.8199 57.5306 30.4686L55.4049 23.7264C55.2942 23.375 55.5885 23.0286 55.9531 23.0811L64.0227 24.2432Z" fill="url(#paint8_linear_840_6671)"/>
<path d="M44.1036 3.17604C44.397 2.87686 44.9062 3.04973 44.9569 3.46572L45.9422 11.5588C45.9868 11.9245 45.634 12.2111 45.2852 12.0927L38.591 9.82012C38.2422 9.7017 38.1368 9.25953 38.3948 8.99654L44.1036 3.17604Z" fill="url(#paint9_linear_840_6671)"/>
<path d="M15.3371 6.78222C15.2694 6.36867 15.7099 6.06024 16.0753 6.26538L23.1845 10.2563C23.5058 10.4366 23.5283 10.8906 23.2266 11.1019L17.4355 15.1565C17.1337 15.3678 16.7149 15.1913 16.6553 14.8278L15.3371 6.78222Z" fill="#FFD549"/>
<path d="M1.23395 32.1131C0.860384 31.9232 0.872139 31.3856 1.25365 31.2122L8.67591 27.8389C9.01127 27.6865 9.39072 27.9368 9.38267 28.3051L9.22812 35.3728C9.22007 35.7411 8.83005 35.9745 8.50167 35.8076L1.23395 32.1131Z" fill="#FFD549"/>
<path d="M13.3233 58.465C12.9492 58.654 12.5226 58.3266 12.6084 57.9164L14.277 49.9361C14.3524 49.5756 14.7786 49.4175 15.0708 49.6418L20.6791 53.9457C20.9713 54.17 20.929 54.6225 20.6002 54.7886L13.3233 58.465Z" fill="url(#paint10_linear_840_6671)"/>
<path d="M41.7228 64.2981C41.654 64.7115 41.1377 64.862 40.8576 64.5502L35.4087 58.4858C35.1625 58.2118 35.2871 57.7746 35.6407 57.6716L42.4278 55.6938C42.7815 55.5907 43.1214 55.8925 43.061 56.2559L41.7228 64.2981Z" fill="url(#paint11_linear_840_6671)"/>
<path d="M63.219 44.8449C63.5117 45.1448 63.3277 45.6501 62.9107 45.6916L54.798 46.4998C54.4315 46.5363 54.1526 46.1774 54.2786 45.8312L56.697 39.1883C56.823 38.8422 57.2674 38.7465 57.5247 39.0102L63.219 44.8449Z" fill="url(#paint12_linear_840_6671)"/>
<path d="M60.2436 16.0064C60.6586 15.9477 60.9573 16.3948 60.7442 16.7557L56.5988 23.776C56.4115 24.0932 55.9571 24.1058 55.7525 23.7995L51.8255 17.9212C51.6208 17.6149 51.8064 17.2 52.1712 17.1484L60.2436 16.0064Z" fill="url(#paint13_linear_840_6671)"/>
<defs>
<linearGradient id="paint0_linear_840_6671" x1="1.50339" y1="42.3306" x2="12.9481" y2="38.7224" gradientUnits="userSpaceOnUse">
<stop stop-color="#FFD549"/>
<stop offset="1" stop-color="#FFC13B"/>
</linearGradient>
<linearGradient id="paint1_linear_840_6671" x1="21.7214" y1="64.2894" x2="25.579" y2="52.9263" gradientUnits="userSpaceOnUse">
<stop stop-color="#FFD549"/>
<stop offset="1" stop-color="#FFC13B"/>
</linearGradient>
<linearGradient id="paint2_linear_840_6671" x1="51.3856" y1="60.9697" x2="44.503" y2="51.1396" gradientUnits="userSpaceOnUse">
<stop stop-color="#FFD549"/>
<stop offset="1" stop-color="#FFC13B"/>
</linearGradient>
<linearGradient id="paint3_linear_840_6671" x1="66.2491" y1="35.0841" x2="54.252" y2="34.8218" gradientUnits="userSpaceOnUse">
<stop stop-color="#FFD549"/>
<stop offset="1" stop-color="#FFC13B"/>
</linearGradient>
<linearGradient id="paint4_linear_840_6671" x1="54.1629" y1="7.79097" x2="46.8572" y2="17.3108" gradientUnits="userSpaceOnUse">
<stop stop-color="#FFD549"/>
<stop offset="1" stop-color="#FFC13B"/>
</linearGradient>
<linearGradient id="paint5_linear_840_6671" x1="5.28011" y1="50.8621" x2="15.2583" y2="44.1961" gradientUnits="userSpaceOnUse">
<stop stop-color="#FFD549"/>
<stop offset="1" stop-color="#FFC13B"/>
</linearGradient>
<linearGradient id="paint6_linear_840_6671" x1="32.2783" y1="66.3608" x2="32.2783" y2="54.3608" gradientUnits="userSpaceOnUse">
<stop stop-color="#FFD549"/>
<stop offset="1" stop-color="#FFC13B"/>
</linearGradient>
<linearGradient id="paint7_linear_840_6671" x1="59.3003" y1="53.6808" x2="49.623" y2="46.585" gradientUnits="userSpaceOnUse">
<stop stop-color="#FFD549"/>
<stop offset="1" stop-color="#FFC13B"/>
</linearGradient>
<linearGradient id="paint8_linear_840_6671" x1="65.0513" y1="24.3913" x2="53.6066" y2="27.9996" gradientUnits="userSpaceOnUse">
<stop stop-color="#FFD549"/>
<stop offset="1" stop-color="#FFC13B"/>
</linearGradient>
<linearGradient id="paint9_linear_840_6671" x1="44.8313" y1="2.43411" x2="40.9737" y2="13.7972" gradientUnits="userSpaceOnUse">
<stop stop-color="#FFD549"/>
<stop offset="1" stop-color="#FFC13B"/>
</linearGradient>
<linearGradient id="paint10_linear_840_6671" x1="12.3957" y1="58.9336" x2="19.7014" y2="49.4138" gradientUnits="userSpaceOnUse">
<stop stop-color="#FFD549"/>
<stop offset="1" stop-color="#FFC13B"/>
</linearGradient>
<linearGradient id="paint11_linear_840_6671" x1="41.5522" y1="65.3233" x2="38.195" y2="53.8025" gradientUnits="userSpaceOnUse">
<stop stop-color="#FFD549"/>
<stop offset="1" stop-color="#FFC13B"/>
</linearGradient>
<linearGradient id="paint12_linear_840_6671" x1="63.9448" y1="45.5886" x2="52.6688" y2="41.4835" gradientUnits="userSpaceOnUse">
<stop stop-color="#FFD549"/>
<stop offset="1" stop-color="#FFC13B"/>
</linearGradient>
<linearGradient id="paint13_linear_840_6671" x1="61.2726" y1="15.8608" x2="51.2944" y2="22.5268" gradientUnits="userSpaceOnUse">
<stop stop-color="#FFD549"/>
<stop offset="1" stop-color="#FFC13B"/>
</linearGradient>
</defs>
</svg>
