<svg width="62" height="53" viewBox="0 0 62 53" fill="none" xmlns="http://www.w3.org/2000/svg">
<path d="M10.2677 23.7908L6.67576 16.1781L14.6176 14.6555L14.2094 6.23071L23.5974 9.88484L29.3118 0.952515L34.618 9.88484L44.0059 6.23071L44.6474 14.6555L53.8021 15.6706L50.8049 23.7908L60.3328 28.5615L49.7203 33.0277L54.6184 40.3359L45.2305 39.5239L46.455 47.6442L32.3322 44.0916L27.7141 51.7044L14.8858 49.2683L12.1686 37.8999L3.59698 38.7119L10.2677 32.6217L1.14795 28.5615L10.2677 23.7908Z" fill="#FFD33B" stroke="#FDD745"/>
<path d="M50.8925 30.5915C50.8925 41.833 41.7795 50.9461 30.5379 50.9461C19.2964 50.9461 10.1833 41.833 10.1833 30.5915C10.1833 19.35 19.2964 10.2369 30.5379 10.2369C41.7795 10.2369 50.8925 19.35 50.8925 30.5915Z" fill="#FFD02F"/>
<path d="M45.4124 28.2429C45.4124 37.755 37.7014 45.466 28.1893 45.466C18.6773 45.466 10.9662 37.755 10.9662 28.2429C10.9662 18.7309 18.6773 11.0198 28.1893 11.0198C37.7014 11.0198 45.4124 18.7309 45.4124 28.2429Z" fill="#FFD649"/>
<path d="M30.945 16.6962C32.1138 19.0186 28.7074 23.3496 25.2172 25.1062C21.727 26.8628 16.6444 27.2146 15.4755 24.8922C14.3067 22.5699 17.4943 18.4528 20.9845 16.6962C24.4747 14.9396 29.7762 14.3738 30.945 16.6962Z" fill="#FFE98B" fill-opacity="0.5"/>
<path d="M29.746 37.5477C29.746 32.6014 33.7557 28.5917 38.702 28.5917C43.6483 28.5917 47.658 32.6014 47.658 37.5477C47.658 42.494 43.6483 46.5037 38.702 46.5037C33.7557 46.5037 29.746 42.494 29.746 37.5477Z" fill="#F2F5FA"/>
<path d="M16.6835 40.7719C16.6835 35.8257 20.6932 31.8159 25.6395 31.8159C30.5858 31.8159 34.5955 35.8257 34.5955 40.7719C34.5955 45.7182 30.5858 49.7279 25.6395 49.7279C20.6932 49.7279 16.6835 45.7182 16.6835 40.7719Z" fill="#F2F5FA"/>
<path d="M0.333496 44.4262C0.333496 39.7173 4.15085 35.8999 8.8598 35.8999H48.9512C53.6601 35.8999 57.4775 39.7173 57.4775 44.4262C57.4775 49.1352 53.6601 52.9525 48.9512 52.9525H8.85979C4.15084 52.9525 0.333496 49.1352 0.333496 44.4262Z" fill="#F2F5FA"/>
<path d="M1.96631 43.6142C1.96631 39.3537 5.42011 35.8999 9.68059 35.8999H49.7633C54.0238 35.8999 57.4776 39.3537 57.4776 43.6142C57.4776 47.8747 54.0238 51.3285 49.7633 51.3285H9.68058C5.4201 51.3285 1.96631 47.8747 1.96631 43.6142Z" fill="#E6F0FA"/>
<path d="M39.5372 43.6141C39.5372 39.3424 43.0002 35.8794 47.272 35.8794C51.5438 35.8794 55.0067 39.3424 55.0067 43.6141C55.0067 47.8859 51.5438 51.3489 47.272 51.3489C43.0002 51.3489 39.5372 47.8859 39.5372 43.6141Z" fill="#E6F0FA"/>
<path d="M32.1896 36.3264C32.1896 32.0546 35.6525 28.5917 39.9243 28.5917C44.1961 28.5917 47.6591 32.0546 47.6591 36.3264C47.6591 40.5982 44.1961 44.0612 39.9243 44.0612C35.6525 44.0612 32.1896 40.5982 32.1896 36.3264Z" fill="#E6F0FA"/>
<path d="M19.129 40.3658C19.129 36.0941 22.592 32.6311 26.8638 32.6311C31.1355 32.6311 34.5985 36.0941 34.5985 40.3658C34.5985 44.6376 31.1355 48.1006 26.8638 48.1006C22.592 48.1006 19.129 44.6376 19.129 40.3658Z" fill="#E6F0FA"/>
</svg>
