<svg width="393" height="295" viewBox="0 0 393 295" fill="none" xmlns="http://www.w3.org/2000/svg">
<mask id="mask0_296_11444" style="mask-type:alpha" maskUnits="userSpaceOnUse" x="23" y="66" width="306" height="215">
<path d="M206.079 85.8784C269.169 118.23 287.186 96.9665 315.56 140.072C343.936 183.177 324.602 263.732 264.979 276.939C205.355 290.147 194.667 257.627 113.75 271.734C32.8332 285.841 -8.21072 162.751 52.2946 111.425C112.799 60.0993 142.991 53.5267 206.079 85.8784Z" fill="white"/>
</mask>
<g mask="url(#mask0_296_11444)">
<path d="M206.079 85.8784C269.169 118.23 287.186 96.9665 315.56 140.072C343.936 183.177 324.602 263.732 264.979 276.939C205.355 290.147 194.667 257.627 113.75 271.734C32.8332 285.841 -8.21072 162.751 52.2946 111.425C112.799 60.0993 142.991 53.5267 206.079 85.8784Z" fill="#F2F5FF"/>
<path d="M142.99 22.0109C147.605 81.949 169.079 118.232 207.415 130.862C245.749 143.492 297.837 125.35 363.679 76.4364" stroke="white" stroke-width="1.32"/>
<path d="M165.674 22.0109C175.89 92.4765 152.944 128.882 96.8352 131.229C12.6713 134.75 73.4773 70.8324 102.19 96.3115C130.903 121.791 128.565 176.962 83.765 214.776C53.897 239.984 19.8691 252.589 -18.3226 252.589M339.107 215.578C214.727 207.541 116.067 251.833 43.1268 348.451" stroke="white" stroke-width="1.32"/>
<path d="M12.6722 214.653C94.259 236.522 146.856 281.122 170.466 348.451" stroke="white" stroke-width="1.32"/>
<path d="M339.107 137.3C284.058 192.252 245.63 208.23 223.824 185.231C191.117 150.734 253.592 123.57 262.808 154.4C272.023 185.231 222.755 209.7 157.162 220.582C113.434 227.837 61.6883 259.576 1.92773 315.797M217.515 348.452C209.424 300.42 220.004 274.657 249.256 271.161C278.507 267.664 311.031 280.547 346.826 309.806M258.247 81.3098C280.41 81.3098 298.377 56.1011 298.377 25.0061C298.377 -6.08986 280.41 -31.2976 258.247 -31.2976C236.083 -31.2976 218.116 -6.08986 218.116 25.0061C218.116 56.1011 236.083 81.3098 258.247 81.3098Z" stroke="white" stroke-width="1.32"/>
<path d="M339.107 173.006C286.997 223.811 264.635 285.404 272.023 357.786" stroke="white" stroke-width="1.32"/>
<path d="M12.6722 146.503C141.377 172.508 242.372 242.935 315.659 357.786" stroke="white" stroke-width="1.32"/>
<path d="M59.9501 22.0109C20.6108 30.0604 6.0669 46.8469 16.3163 72.3703C31.6895 110.655 88.3454 183.053 12.6713 195.61M12.6722 281.552C43.3046 327.213 75.7645 338.628 110.051 315.797C161.482 281.552 178.919 274.442 200.354 281.552C214.645 286.292 227.639 308.591 239.338 348.451" stroke="white" stroke-width="1.32"/>
</g>
<mask id="mask1_296_11444" style="mask-type:alpha" maskUnits="userSpaceOnUse" x="34" y="13" width="346" height="269">
<path d="M373.072 35.9035C401.517 79.1515 335.947 264.709 276.175 277.961C216.402 291.212 205.686 258.584 124.567 272.738C71.739 281.956 35.864 232.792 34.0198 183.155C33.0314 156.573 69.2493 67.7586 90.4045 49.798C137.356 19.5861 344.625 -7.34545 373.072 35.9035Z" fill="#F2F5FF"/>
</mask>
<g mask="url(#mask1_296_11444)">
<mask id="mask2_296_11444" style="mask-type:alpha" maskUnits="userSpaceOnUse" x="50" y="110" width="216" height="197">
<path d="M160.942 128.098C149.926 175.758 143.007 207.985 140.186 224.779C139.553 228.54 138.771 233.577 137.838 239.893C137.614 241.403 137.011 242.831 136.083 244.043C135.156 245.255 133.936 246.211 132.537 246.82C128.671 248.504 125.486 249.6 122.98 250.106C107.5 253.236 89.1557 249.99 77.7204 244.696C62.4778 237.638 57.0653 248.11 54.3093 255.074C51.5544 262.038 45.1485 275.082 61.4344 281.48C77.7204 287.878 110.981 304.411 175.821 306.151C240.66 307.892 255.14 302.71 261.44 279.351C267.74 255.992 265.122 229.224 262.958 181.551C261.889 158.025 260.164 140.33 257.783 128.466C257.119 125.157 255.537 122.102 253.22 119.651C250.902 117.199 247.942 115.45 244.678 114.604C235.2 112.145 223.664 110.916 210.068 110.916C196.302 110.916 184.324 112.176 174.134 114.696C170.913 115.493 167.975 117.167 165.647 119.532C163.318 121.898 161.69 124.863 160.942 128.098Z" fill="white"/>
</mask>
<g mask="url(#mask2_296_11444)">
<path d="M160.942 128.098C149.926 175.758 143.007 207.985 140.186 224.779C139.553 228.54 138.771 233.577 137.838 239.893C137.614 241.403 137.011 242.831 136.083 244.043C135.156 245.255 133.936 246.211 132.537 246.82C128.671 248.504 125.486 249.6 122.98 250.106C107.5 253.236 89.1557 249.99 77.7204 244.696C62.4778 237.638 57.0653 248.11 54.3093 255.074C51.5544 262.038 45.1485 275.082 61.4344 281.48C77.7204 287.878 110.981 304.411 175.821 306.151C240.66 307.892 255.14 302.71 261.44 279.351C267.74 255.992 265.122 229.224 262.958 181.551C261.889 158.025 260.164 140.33 257.783 128.466C257.119 125.157 255.537 122.102 253.22 119.651C250.902 117.199 247.942 115.45 244.678 114.604C235.2 112.145 223.664 110.916 210.068 110.916C196.302 110.916 184.324 112.176 174.134 114.696C170.913 115.493 167.975 117.167 165.647 119.532C163.318 121.898 161.69 124.863 160.942 128.098Z" fill="#01133B"/>
<path fill-rule="evenodd" clip-rule="evenodd" d="M255.308 122.352C253.239 119.352 250.79 117.852 247.957 117.852C243.71 117.852 238.638 122.425 238.638 137.529C238.638 152.633 244.947 250.769 233.322 261.224C221.697 271.679 201.675 265.29 188.941 262.82C176.207 260.35 168.182 261.224 153.553 261.224C138.923 261.224 90.5597 252.316 79.1528 244.916C79.3965 236.984 87.7743 216.588 104.285 183.728C128.727 144.499 140.948 124.041 140.948 122.352C140.948 120.665 157.486 113.667 190.56 101.362L256.69 107.049L255.308 122.352Z" fill="#01133B" stroke="white" stroke-width="1.32"/>
<path fill-rule="evenodd" clip-rule="evenodd" d="M61.4345 281.48C93.967 291.984 118.762 297.236 135.821 297.236C149.309 297.236 160.636 296.886 169.8 296.187C174.411 295.835 179.049 296.091 183.594 296.947C206.3 301.227 224.71 302.24 238.825 299.991C262.125 296.275 265.015 273.736 265.387 259.901C271.978 258.292 281.562 272.399 294.137 302.221L231.758 316.549L103.16 315.161L43.2533 293.994L61.4345 281.48Z" fill="#3351E5"/>
</g>
<path fill-rule="evenodd" clip-rule="evenodd" d="M316.241 59.5985C318.202 60.3319 323.116 52.0531 323.848 50.0977C324.58 48.1432 323.583 45.9632 321.621 45.2291C319.659 44.4955 317.475 45.4851 316.743 47.4402C316.011 49.3956 314.278 58.8649 316.241 59.5985ZM297.534 61.2169C299.48 60.4599 297.542 51.0117 296.767 49.066C295.994 47.1198 293.788 46.1556 291.843 46.9128C289.897 47.6699 288.948 49.8618 289.722 51.8082C290.496 53.7543 295.588 61.9739 297.534 61.2169ZM330.661 71.9336C329.691 70.0854 337.358 64.2305 339.221 63.2707C341.084 62.311 343.38 63.0309 344.35 64.8784C345.321 66.7266 344.597 69.0025 342.734 69.9628C340.872 70.9226 331.632 73.7812 330.661 71.9336Z" fill="#436FFF"/>
<path fill-rule="evenodd" clip-rule="evenodd" d="M202.407 251.426C204.596 240.161 197.425 229.2 186.237 226.707L86.8931 204.563C75.0245 201.918 63.259 209.405 60.6141 221.286C60.5748 221.463 60.5385 221.64 60.5031 221.817C58.0989 234.027 66.0366 245.874 78.2333 248.278L78.2893 248.289L178.259 267.732C189.424 269.903 200.235 262.603 202.407 251.426Z" fill="white" stroke="#01133B" stroke-width="1.32" stroke-linecap="round" stroke-linejoin="round"/>
<path fill-rule="evenodd" clip-rule="evenodd" d="M217.152 236.988L215.264 253.067C213.418 268.794 199.337 280.153 183.592 278.616L99.2234 270.38L60.3351 357.799C56.1584 367.187 45.1702 371.409 35.7902 367.23C26.4113 363.051 22.1944 352.052 26.37 342.664L69.8555 240.571C71.141 237.552 73.2656 234.966 75.9767 233.12C78.6879 231.275 81.8715 230.247 85.1491 230.16L169.216 227.927L217.152 236.988Z" fill="white" stroke="#01133B" stroke-width="1.32" stroke-linecap="round" stroke-linejoin="round"/>
<path d="M203.123 235.225L199.615 250.254C197.342 259.999 188.141 266.498 178.207 265.375L87.8332 255.162L62.079 312.824" stroke="#01133B" stroke-width="1.32" stroke-linecap="round" stroke-linejoin="round"/>
<path d="M197.588 253.97C193.375 252.768 189.686 250.185 187.113 246.635C184.539 243.086 183.23 238.775 183.395 234.392L183.483 232.06" stroke="#01133B" stroke-width="1.32" stroke-linecap="round" stroke-linejoin="round"/>
<path d="M196.628 257.331C186.773 254.491 180.158 245.248 180.639 234.991L180.812 231.296" stroke="#01133B" stroke-width="0.528" stroke-linecap="round" stroke-linejoin="round" stroke-dasharray="1.58 1.58"/>
<path fill-rule="evenodd" clip-rule="evenodd" d="M85.7229 204.414C73.1341 202.307 61.2243 210.815 59.1217 223.415C58.8362 225.127 58.744 226.865 58.8466 228.597L66.1878 352.536L105.865 349.942L101.125 228.703" fill="white"/>
<path d="M85.7229 204.414C73.1341 202.307 61.2243 210.815 59.1217 223.415C58.8362 225.127 58.744 226.865 58.8466 228.597L66.1878 352.536L105.865 349.942L101.125 228.703" stroke="#01133B" stroke-width="1.32" stroke-linecap="round" stroke-linejoin="round"/>
<path d="M120.106 228.703L89.3443 220.587C88.2408 220.296 87.0843 220.269 85.9685 220.509C84.8528 220.749 83.8093 221.249 82.9226 221.968C82.0359 222.687 81.3311 223.605 80.8652 224.648C80.3994 225.69 80.1857 226.828 80.2415 227.969L84.0496 306.2" stroke="#01133B" stroke-width="1.32" stroke-linecap="round" stroke-linejoin="round"/>
<path fill-rule="evenodd" clip-rule="evenodd" d="M289.206 143.626L263.783 214.723C261.483 223.606 244.438 227.423 235.563 225.122C230.111 223.708 226.062 219.716 223.666 214.29L221.615 209.322L217.149 236.998L157.882 225.929L152.207 217.833L132.19 207.494C124.166 204.411 113.311 169.126 116.392 161.095L141.9 130.276C143.271 128.62 145.007 127.307 146.973 126.44C148.939 125.572 151.079 125.175 153.225 125.28L196.462 127.382L226.295 133.93C228.915 134.505 231.312 135.83 233.193 137.743L244.452 149.199L254.573 117.768" fill="white"/>
<path d="M289.206 143.626L263.783 214.723C261.483 223.606 244.438 227.423 235.563 225.122C230.111 223.708 226.062 219.716 223.666 214.29L221.615 209.322L217.149 236.998L157.882 225.929L152.207 217.833L132.19 207.494C124.166 204.411 113.311 169.126 116.392 161.095L141.9 130.276C143.271 128.62 145.007 127.307 146.973 126.44C148.939 125.572 151.079 125.175 153.225 125.28L196.462 127.382L226.295 133.93C228.915 134.505 231.312 135.83 233.193 137.743L244.452 149.199L254.573 117.768M221.442 210.7L225.894 181.794" stroke="#01133B" stroke-width="1.32" stroke-linecap="round" stroke-linejoin="round"/>
<path d="M180.841 133.814L192.071 150.349L212.097 138.847" stroke="#01133B" stroke-width="1.32" stroke-linecap="round" stroke-linejoin="round"/>
<path fill-rule="evenodd" clip-rule="evenodd" d="M250.925 134.401L288.485 143.943L300.756 110.199L262.975 96.4355L250.925 134.401Z" fill="white"/>
<path fill-rule="evenodd" clip-rule="evenodd" d="M288.933 144.484L314.497 76.349C315.068 74.827 315.011 73.1404 314.34 71.6601C313.668 70.1799 312.436 69.0273 310.916 68.4558L310.858 68.4342C309.294 67.8643 307.57 67.9212 306.047 68.5929C304.524 69.2646 303.319 70.4993 302.683 72.0391L288.932 105.385" fill="white"/>
<path d="M288.933 144.484L314.497 76.349C315.068 74.827 315.011 73.1404 314.34 71.6601C313.668 70.1799 312.436 69.0273 310.916 68.4558L310.858 68.4342C309.294 67.8643 307.57 67.9212 306.047 68.5929C304.524 69.2646 303.319 70.4993 302.683 72.0391L288.932 105.385" stroke="#01133B" stroke-width="1.32" stroke-linecap="round" stroke-linejoin="round"/>
<path fill-rule="evenodd" clip-rule="evenodd" d="M295.435 127.265L299.281 117.182C302.657 108.335 298.493 98.3934 289.822 94.6007L267.083 84.6533C265.81 84.0963 264.372 84.0482 263.065 84.5187C261.758 84.9892 260.68 85.9426 260.053 87.1834C259.752 87.7781 259.574 88.4274 259.53 89.0925C259.486 89.7575 259.576 90.4246 259.796 91.054C260.015 91.6833 260.359 92.2619 260.807 92.7552C261.254 93.2485 261.797 93.6464 262.402 93.9251L281.355 102.662" fill="white"/>
<path d="M295.435 127.265L299.281 117.182C302.657 108.335 298.493 98.3934 289.822 94.6007L267.083 84.6533C265.81 84.0963 264.372 84.0482 263.065 84.5187C261.758 84.9892 260.68 85.9426 260.053 87.1834C259.752 87.7781 259.574 88.4274 259.53 89.0925C259.486 89.7575 259.576 90.4246 259.796 91.054C260.015 91.6833 260.359 92.2619 260.807 92.7552C261.254 93.2485 261.797 93.6464 262.402 93.9251L281.355 102.662" stroke="#01133B" stroke-width="1.32" stroke-linecap="round" stroke-linejoin="round"/>
<path fill-rule="evenodd" clip-rule="evenodd" d="M281.356 102.662L262.32 93.8887C261.094 93.3236 259.696 93.2611 258.424 93.7147C257.153 94.1682 256.109 95.1018 255.517 96.3156C255.228 96.9064 255.061 97.5491 255.025 98.2056C254.988 98.8621 255.084 99.5193 255.306 100.138C255.527 100.757 255.87 101.326 256.315 101.81C256.76 102.294 257.297 102.684 257.894 102.957L277.537 111.937" fill="white"/>
<path d="M281.356 102.662L262.32 93.8887C261.094 93.3236 259.696 93.2611 258.424 93.7147C257.153 94.1682 256.109 95.1018 255.517 96.3156C255.228 96.9064 255.061 97.5491 255.025 98.2056C254.988 98.8621 255.084 99.5193 255.306 100.138C255.527 100.757 255.87 101.326 256.315 101.81C256.76 102.294 257.297 102.684 257.894 102.957L277.537 111.937" stroke="#01133B" stroke-width="1.32" stroke-linecap="round" stroke-linejoin="round"/>
<path fill-rule="evenodd" clip-rule="evenodd" d="M277.537 111.938L257.824 102.926C257.232 102.655 256.592 102.503 255.942 102.48C255.291 102.457 254.642 102.562 254.032 102.789C253.422 103.017 252.863 103.363 252.386 103.807C251.909 104.251 251.525 104.784 251.254 105.377L251.248 105.392C250.703 106.596 250.657 107.967 251.12 109.204C251.584 110.442 252.518 111.446 253.72 111.995L273.432 121.006" fill="white"/>
<path d="M277.537 111.938L257.824 102.926C257.232 102.655 256.592 102.503 255.942 102.48C255.291 102.457 254.642 102.562 254.032 102.789C253.422 103.017 252.863 103.363 252.386 103.807C251.909 104.251 251.525 104.784 251.254 105.377L251.248 105.392C250.703 106.596 250.657 107.967 251.12 109.204C251.584 110.442 252.518 111.446 253.72 111.995L273.432 121.006" stroke="#01133B" stroke-width="1.32" stroke-linecap="round" stroke-linejoin="round"/>
<path fill-rule="evenodd" clip-rule="evenodd" d="M273.432 121.007L254.357 112.287C252.997 111.665 251.445 111.609 250.044 112.132C248.642 112.655 247.506 113.713 246.884 115.075L246.87 115.108L244.94 119.409C244.541 120.298 244.325 121.258 244.305 122.232C244.285 123.206 244.461 124.174 244.823 125.079C245.185 125.983 245.725 126.806 246.412 127.497C247.098 128.188 247.916 128.733 248.818 129.101L253.062 130.833C253.538 131.027 254.047 131.124 254.56 131.117C255.073 131.111 255.58 131.001 256.05 130.796C256.521 130.59 256.945 130.291 257.298 129.919C257.651 129.546 257.926 129.106 258.106 128.625C258.478 127.634 258.448 126.537 258.024 125.568C257.6 124.599 256.815 123.833 255.836 123.434L253.653 122.546" fill="white"/>
<path d="M273.432 121.007L254.357 112.287C252.997 111.665 251.445 111.609 250.044 112.132C248.642 112.655 247.506 113.713 246.884 115.075L246.87 115.108L244.94 119.409C244.541 120.298 244.325 121.258 244.305 122.232C244.285 123.206 244.461 124.174 244.823 125.079C245.185 125.983 245.725 126.806 246.412 127.497C247.098 128.188 247.916 128.733 248.818 129.101L253.062 130.833C253.538 131.027 254.047 131.124 254.56 131.117C255.073 131.111 255.58 131.001 256.05 130.796C256.521 130.59 256.945 130.291 257.298 129.919C257.651 129.546 257.926 129.106 258.106 128.625C258.478 127.634 258.448 126.537 258.024 125.568C257.6 124.599 256.815 123.833 255.836 123.434L253.653 122.546" stroke="#01133B" stroke-width="1.32" stroke-linecap="round" stroke-linejoin="round"/>
<path fill-rule="evenodd" clip-rule="evenodd" d="M206.257 131.135L209.087 110.996L190.679 108.409L187.85 128.548" fill="white"/>
<path d="M206.257 131.135L209.087 110.996L190.679 108.409L187.85 128.548" stroke="#01133B" stroke-width="1.32" stroke-linecap="round" stroke-linejoin="round"/>
<mask id="mask3_296_11444" style="mask-type:alpha" maskUnits="userSpaceOnUse" x="187" y="108" width="23" height="30">
<path d="M209.087 110.995L190.681 108.409L188.062 127.048C187.347 132.136 190.887 136.841 195.969 137.555C201.052 138.268 205.751 134.723 206.466 129.634L209.087 110.995Z" fill="white"/>
</mask>
<g mask="url(#mask3_296_11444)">
<path d="M204.105 120.264C192.624 118.649 184.528 108.713 186.023 98.0717C187.519 87.4291 198.038 80.1101 209.52 81.7248C221.001 83.3374 229.097 93.274 227.602 103.917C226.106 114.558 215.587 121.877 204.105 120.264Z" fill="#01133B"/>
</g>
<path fill-rule="evenodd" clip-rule="evenodd" d="M117.164 160.158L111.69 167.003C109.205 170.112 107.438 173.731 106.514 177.603C105.59 181.475 105.533 185.503 106.348 189.4L121.68 262.812C121.964 264.171 122.776 265.362 123.936 266.122C125.097 266.882 126.512 267.15 127.87 266.867L127.965 266.846C128.646 266.69 129.29 266.402 129.859 265.997C130.428 265.593 130.912 265.08 131.284 264.488C131.655 263.896 131.906 263.237 132.023 262.548C132.139 261.859 132.119 261.153 131.963 260.472L131.96 260.46L126.635 237.384" fill="white"/>
<path d="M117.164 160.158L111.69 167.003C109.205 170.112 107.438 173.731 106.514 177.603C105.59 181.475 105.533 185.503 106.348 189.4L121.68 262.812C121.964 264.171 122.776 265.362 123.936 266.122C125.097 266.882 126.512 267.15 127.87 266.867L127.965 266.846C128.646 266.69 129.29 266.402 129.859 265.997C130.428 265.593 130.912 265.08 131.284 264.488C131.655 263.896 131.906 263.237 132.023 262.548C132.139 261.859 132.119 261.153 131.963 260.472L131.96 260.46L126.635 237.384" stroke="#01133B" stroke-width="1.32" stroke-linecap="round" stroke-linejoin="round"/>
<path fill-rule="evenodd" clip-rule="evenodd" d="M153.542 227.693L159.136 234.009C159.597 234.529 160.158 234.95 160.786 235.246C161.415 235.542 162.096 235.707 162.79 235.731C163.484 235.755 164.176 235.638 164.823 235.386C165.47 235.134 166.06 234.753 166.555 234.266C167.592 233.247 168.198 231.867 168.248 230.413C168.298 228.959 167.788 227.541 166.823 226.452L152.577 210.369" fill="white"/>
<path d="M153.542 227.693L159.136 234.009C159.597 234.529 160.158 234.95 160.786 235.246C161.415 235.542 162.096 235.707 162.79 235.731C163.484 235.755 164.176 235.638 164.823 235.386C165.47 235.134 166.06 234.753 166.555 234.266C167.592 233.247 168.198 231.867 168.248 230.413C168.298 228.959 167.788 227.541 166.823 226.452L152.577 210.369" stroke="#01133B" stroke-width="1.32" stroke-linecap="round" stroke-linejoin="round"/>
<path fill-rule="evenodd" clip-rule="evenodd" d="M126.634 237.381L131.988 260.581C132.141 261.246 132.424 261.874 132.821 262.429C133.218 262.984 133.72 263.455 134.3 263.815C134.879 264.175 135.524 264.416 136.197 264.526C136.869 264.635 137.557 264.61 138.221 264.453C139.566 264.132 140.731 263.292 141.46 262.115C142.188 260.939 142.423 259.521 142.111 258.172L136.756 234.965" fill="white"/>
<path d="M126.634 237.381L131.988 260.581C132.141 261.246 132.424 261.874 132.821 262.429C133.218 262.984 133.72 263.455 134.3 263.815C134.879 264.175 135.524 264.416 136.197 264.526C136.869 264.635 137.557 264.61 138.221 264.453C139.566 264.132 140.731 263.292 141.46 262.115C142.188 260.939 142.423 259.521 142.111 258.172L136.756 234.965" stroke="#01133B" stroke-width="1.32" stroke-linecap="round" stroke-linejoin="round"/>
<path fill-rule="evenodd" clip-rule="evenodd" d="M136.759 234.963L142.093 258.079C142.405 259.432 143.241 260.605 144.417 261.341C145.593 262.077 147.013 262.315 148.365 262.003L148.43 261.988C149.801 261.652 150.984 260.79 151.724 259.587C152.464 258.385 152.701 256.939 152.383 255.562L147.038 232.399" fill="white"/>
<path d="M136.759 234.963L142.093 258.079C142.405 259.432 143.241 260.605 144.417 261.341C145.593 262.077 147.013 262.315 148.365 262.003L148.43 261.988C149.801 261.652 150.984 260.79 151.724 259.587C152.464 258.385 152.701 256.939 152.383 255.562L147.038 232.399" stroke="#01133B" stroke-width="1.32" stroke-linecap="round" stroke-linejoin="round"/>
<path fill-rule="evenodd" clip-rule="evenodd" d="M147.044 232.398L152.337 255.34C152.666 256.763 153.545 257.998 154.782 258.772C156.02 259.546 157.514 259.797 158.936 259.469L158.956 259.464C160.389 259.127 161.631 258.239 162.413 256.992C163.196 255.745 163.456 254.24 163.138 252.802L148.49 186.619" fill="white"/>
<path d="M147.044 232.398L152.337 255.34C152.666 256.763 153.545 257.998 154.782 258.772C156.02 259.546 157.514 259.797 158.936 259.469L158.956 259.464C160.389 259.127 161.631 258.239 162.413 256.992C163.196 255.745 163.456 254.24 163.138 252.802L148.49 186.619" stroke="#01133B" stroke-width="1.32" stroke-linecap="round" stroke-linejoin="round"/>
<path d="M107.598 183.402L144.001 176.323L154.319 229.42L117.916 236.497L107.598 183.402Z" fill="white"/>
<path fill-rule="evenodd" clip-rule="evenodd" d="M213.328 131.113L197.28 242.395C196.691 246.475 197.134 250.638 198.568 254.503C200.002 258.367 202.381 261.811 205.488 264.518L228.289 284.386L231.295 224.207C239.777 233.694 254.337 234.502 263.816 226.014C266.831 223.314 269.082 219.867 270.342 216.02L291.126 152.6L241.761 136.025V149.985L241.513 145.714C241.371 143.267 240.434 140.933 238.844 139.067C237.254 137.202 235.099 135.907 232.707 135.38L213.328 131.113Z" fill="#2563EB" stroke="#01133B" stroke-width="1.32" stroke-linecap="round" stroke-linejoin="round"/>
<path d="M239.766 146.863L235.553 166.31M231.315 224.171L224.469 217.569M225.894 133.814L213.257 156.808L223.98 169.269C225.129 170.604 225.843 172.258 226.027 174.011C226.211 175.763 225.857 177.53 225.011 179.075L199.758 225.196" stroke="#01133B" stroke-width="1.32" stroke-linecap="round" stroke-linejoin="round"/>
<path fill-rule="evenodd" clip-rule="evenodd" d="M237.66 133.814L232.55 150.733L289.99 175.185L294.138 152.6L237.66 133.814ZM160.616 211.031L159.182 204.697L182.699 127.023L154.856 124.624C151.273 124.315 147.668 124.855 144.332 126.199C140.996 127.543 138.024 129.654 135.655 132.362L108.425 163.478C105.433 166.896 103.237 170.936 101.994 175.306C100.75 179.676 100.491 184.268 101.235 188.75L107.281 225.196L160.616 211.031Z" fill="#2563EB" stroke="#01133B" stroke-width="1.32" stroke-linecap="round" stroke-linejoin="round"/>
<path d="M152.367 172.547L159.837 207.517" stroke="#01133B" stroke-width="1.32" stroke-linecap="round" stroke-linejoin="round"/>
<path fill-rule="evenodd" clip-rule="evenodd" d="M100.094 206.411L159.182 195.831L162.242 210.953L105.864 225.196L100.094 206.411Z" fill="#2563EB" stroke="#01133B" stroke-width="1.32" stroke-linecap="round" stroke-linejoin="round"/>
<path d="M169.943 125.606L171.084 149.421L159.054 154.506C157.449 155.185 156.086 156.332 155.144 157.799C154.202 159.265 153.725 160.982 153.775 162.725L154.319 181.794" stroke="#01133B" stroke-width="1.32" stroke-linecap="round" stroke-linejoin="round"/>
<path fill-rule="evenodd" clip-rule="evenodd" d="M238.317 154.362L283.09 176.324L284.202 172.547L238.726 153.504L238.317 154.362ZM113.516 223.673L113.703 224.721L155.071 216.442L154.319 212.987L113.516 223.673ZM205.195 70.2534C196.208 68.9898 187.897 75.2585 186.633 84.256C186.604 84.4635 186.579 84.672 186.557 84.8804L185.871 91.6261C184.949 100.694 191.35 108.869 200.366 110.136C209.284 111.39 217.531 105.169 218.786 96.2419L219.725 89.5552C221.038 80.2076 214.533 71.5671 205.195 70.2534Z" fill="#01133B"/>
<path fill-rule="evenodd" clip-rule="evenodd" d="M187.802 87.8609L186.294 98.5871C185.15 106.732 190.819 114.262 198.955 115.406C207.092 116.55 214.616 110.874 215.761 102.729L217.268 92.0027C218.411 83.8577 212.743 76.3274 204.606 75.1837C196.47 74.0401 188.946 79.7159 187.802 87.8609Z" fill="white" stroke="#01133B" stroke-width="1.32" stroke-linecap="round" stroke-linejoin="round"/>
<path d="M200.237 107.485C201.566 107.672 202.914 107.323 203.985 106.514C205.056 105.706 205.763 104.506 205.949 103.176" stroke="#01133B" stroke-width="1.32" stroke-linecap="round" stroke-linejoin="round"/>
<path fill-rule="evenodd" clip-rule="evenodd" d="M214.718 75.7718C218.895 74.3164 221.681 76.2408 223.077 81.5439C224.184 85.7447 223.34 92.5307 217.151 103.399C216.894 103.849 217.073 97.5202 216.752 96.9774C214.317 92.87 212.763 88.4243 212.091 83.6414C211.331 78.2281 212.206 75.6046 214.718 75.7718Z" fill="#01133B"/>
<path fill-rule="evenodd" clip-rule="evenodd" d="M216.523 97.2222L218.271 97.1995C218.818 97.1922 219.359 97.3106 219.853 97.5458C220.347 97.781 220.781 98.1266 221.12 98.5559C221.46 98.9853 221.696 99.487 221.811 100.022C221.927 100.558 221.917 101.112 221.784 101.643C221.453 102.97 220.73 104.166 219.709 105.075C218.687 105.983 217.416 106.562 216.06 106.736L215.17 106.849L216.523 97.2222Z" fill="white" stroke="#01133B" stroke-width="1.32" stroke-linecap="round" stroke-linejoin="round"/>
<path d="M218.125 100.4L217.703 103.398M217.859 102.285L219.418 101.35M199.618 97.2694L198.48 100.965L200.503 101.612" stroke="#01133B" stroke-width="1.32" stroke-linecap="round" stroke-linejoin="round"/>
<path d="M209.886 97.5595C208.284 97.3344 207.089 96.4051 207.219 95.4827C207.349 94.5614 208.753 93.9969 210.356 94.2221C211.958 94.4473 213.152 95.3765 213.022 96.2989C212.894 97.2203 211.489 97.7847 209.886 97.5595Z" stroke="#01133B" stroke-width="0.918" stroke-linecap="round" stroke-linejoin="round"/>
<path d="M209.886 97.5595C208.924 97.4238 208.25 96.5673 208.38 95.6459C208.51 94.7245 209.394 94.0863 210.356 94.222C211.317 94.3568 211.992 95.2132 211.862 96.1346C211.732 97.057 210.848 97.6942 209.886 97.5595Z" fill="#01133B"/>
<path d="M193.813 95.2989C192.209 95.0727 191.015 94.1435 191.145 93.2221C191.275 92.3007 192.679 91.7353 194.281 91.9604C195.884 92.1866 197.078 93.1159 196.949 94.0372C196.819 94.9596 195.415 95.5241 193.813 95.2989Z" stroke="#01133B" stroke-width="0.918" stroke-linecap="round" stroke-linejoin="round"/>
<path d="M193.813 95.2978C192.851 95.1631 192.176 94.3066 192.305 93.3852C192.435 92.4628 193.319 91.8256 194.281 91.9604C195.243 92.0961 195.917 92.9525 195.787 93.8739C195.659 94.7953 194.773 95.4335 193.813 95.2978Z" fill="#01133B"/>
<path fill-rule="evenodd" clip-rule="evenodd" d="M209.853 75.0186C198.801 70.7194 190.111 70.0075 183.783 72.8828C174.292 77.1947 179.851 93.5229 199.749 91.2387C213.015 89.7165 216.382 84.3091 209.853 75.0186Z" fill="#01133B"/>
<path fill-rule="evenodd" clip-rule="evenodd" d="M217.854 78.7366C217.343 74.1395 205.188 64.9434 197.94 66.2355C193.108 67.0969 193.712 72.5268 199.752 82.5254C212.161 83.0642 218.195 81.8016 217.854 78.7366Z" fill="#01133B"/>
</g>
</svg>
